M48
; DRILL file {KiCad (6.0.4)} date Wed May 25 21:12:15 2022
; FORMAT={-:-/ absolute / inch / decimal}
; #@! TF.CreationDate,2022-05-25T21:12:15+01:00
; #@! TF.GenerationSoftware,Kicad,Pcbnew,(6.0.4)
; #@! TF.FileFunction,Plated,1,2,PTH
FMAT,2
INCH
; #@! TA.AperFunction,Plated,PTH,ViaDrill
T1C0.0157
; #@! TA.AperFunction,Plated,PTH,ComponentDrill
T2C0.0315
; #@! TA.AperFunction,Plated,PTH,ComponentDrill
T3C0.0394
%
G90
G05
T1
X6.115Y-4.045
X6.37Y-3.81
T2
X5.0196Y-3.5544
X5.0196Y-3.6544
X5.0196Y-3.7544
X5.0196Y-3.8544
X5.0196Y-3.9544
X5.0196Y-4.0544
X5.0196Y-4.1544
X5.0196Y-4.2544
X5.3196Y-3.5544
X5.3196Y-3.6544
X5.3196Y-3.7544
X5.3196Y-3.8544
X5.3196Y-3.9544
X5.3196Y-4.0544
X5.3196Y-4.1544
X5.3196Y-4.2544
X5.582Y-3.466
X5.584Y-3.302
X5.584Y-3.636
X5.586Y-3.147
X5.586Y-3.8
X5.586Y-4.134
X5.588Y-3.966
X5.588Y-4.3
X5.982Y-3.466
X5.984Y-3.302
X5.984Y-3.636
X5.986Y-3.147
X5.986Y-3.8
X5.986Y-4.134
X5.988Y-3.966
X5.988Y-4.3
X6.22Y-3.385
X6.22Y-3.985
X6.32Y-3.385
X6.32Y-3.985
X6.42Y-3.385
X6.42Y-3.985
X6.52Y-3.385
X6.52Y-3.985
X6.62Y-3.385
X6.62Y-3.985
T3
X4.9548Y-3.2
X5.0548Y-3.2
X5.1548Y-3.2
X5.2548Y-3.2
X5.3548Y-3.2
T0
M30
