%TF.GenerationSoftware,KiCad,Pcbnew,(6.0.4)*%
%TF.CreationDate,2022-05-25T21:12:10+01:00*%
%TF.ProjectId,7SegmentDB,37536567-6d65-46e7-9444-422e6b696361,V1.0*%
%TF.SameCoordinates,Original*%
%TF.FileFunction,Legend,Top*%
%TF.FilePolarity,Positive*%
%FSLAX46Y46*%
G04 Gerber Fmt 4.6, Leading zero omitted, Abs format (unit mm)*
G04 Created by KiCad (PCBNEW (6.0.4)) date 2022-05-25 21:12:10*
%MOMM*%
%LPD*%
G01*
G04 APERTURE LIST*
%ADD10C,0.200000*%
%ADD11C,0.250000*%
%ADD12C,0.150000*%
%ADD13C,0.120000*%
G04 APERTURE END LIST*
D10*
X126053809Y-85064476D02*
X126091904Y-84950190D01*
X126091904Y-84759714D01*
X126053809Y-84683523D01*
X126015714Y-84645428D01*
X125939523Y-84607333D01*
X125863333Y-84607333D01*
X125787142Y-84645428D01*
X125749047Y-84683523D01*
X125710952Y-84759714D01*
X125672857Y-84912095D01*
X125634761Y-84988285D01*
X125596666Y-85026380D01*
X125520476Y-85064476D01*
X125444285Y-85064476D01*
X125368095Y-85026380D01*
X125330000Y-84988285D01*
X125291904Y-84912095D01*
X125291904Y-84721619D01*
X125330000Y-84607333D01*
X125672857Y-84264476D02*
X125672857Y-83997809D01*
X126091904Y-83883523D02*
X126091904Y-84264476D01*
X125291904Y-84264476D01*
X125291904Y-83883523D01*
X126091904Y-83083523D02*
X125710952Y-83350190D01*
X126091904Y-83540666D02*
X125291904Y-83540666D01*
X125291904Y-83235904D01*
X125330000Y-83159714D01*
X125368095Y-83121619D01*
X125444285Y-83083523D01*
X125558571Y-83083523D01*
X125634761Y-83121619D01*
X125672857Y-83159714D01*
X125710952Y-83235904D01*
X125710952Y-83540666D01*
X128720809Y-86588380D02*
X128758904Y-86474095D01*
X128758904Y-86283619D01*
X128720809Y-86207428D01*
X128682714Y-86169333D01*
X128606523Y-86131238D01*
X128530333Y-86131238D01*
X128454142Y-86169333D01*
X128416047Y-86207428D01*
X128377952Y-86283619D01*
X128339857Y-86436000D01*
X128301761Y-86512190D01*
X128263666Y-86550285D01*
X128187476Y-86588380D01*
X128111285Y-86588380D01*
X128035095Y-86550285D01*
X127997000Y-86512190D01*
X127958904Y-86436000D01*
X127958904Y-86245523D01*
X127997000Y-86131238D01*
X128758904Y-85331238D02*
X128377952Y-85597904D01*
X128758904Y-85788380D02*
X127958904Y-85788380D01*
X127958904Y-85483619D01*
X127997000Y-85407428D01*
X128035095Y-85369333D01*
X128111285Y-85331238D01*
X128225571Y-85331238D01*
X128301761Y-85369333D01*
X128339857Y-85407428D01*
X128377952Y-85483619D01*
X128377952Y-85788380D01*
X128682714Y-84531238D02*
X128720809Y-84569333D01*
X128758904Y-84683619D01*
X128758904Y-84759809D01*
X128720809Y-84874095D01*
X128644619Y-84950285D01*
X128568428Y-84988380D01*
X128416047Y-85026476D01*
X128301761Y-85026476D01*
X128149380Y-84988380D01*
X128073190Y-84950285D01*
X127997000Y-84874095D01*
X127958904Y-84759809D01*
X127958904Y-84683619D01*
X127997000Y-84569333D01*
X128035095Y-84531238D01*
X128758904Y-83807428D02*
X128758904Y-84188380D01*
X127958904Y-84188380D01*
X128758904Y-83540761D02*
X127958904Y-83540761D01*
X128758904Y-83083619D02*
X128301761Y-83426476D01*
X127958904Y-83083619D02*
X128416047Y-83540761D01*
X131298904Y-85331190D02*
X130917952Y-85597857D01*
X131298904Y-85788333D02*
X130498904Y-85788333D01*
X130498904Y-85483571D01*
X130537000Y-85407380D01*
X130575095Y-85369285D01*
X130651285Y-85331190D01*
X130765571Y-85331190D01*
X130841761Y-85369285D01*
X130879857Y-85407380D01*
X130917952Y-85483571D01*
X130917952Y-85788333D01*
X131222714Y-84531190D02*
X131260809Y-84569285D01*
X131298904Y-84683571D01*
X131298904Y-84759761D01*
X131260809Y-84874047D01*
X131184619Y-84950238D01*
X131108428Y-84988333D01*
X130956047Y-85026428D01*
X130841761Y-85026428D01*
X130689380Y-84988333D01*
X130613190Y-84950238D01*
X130537000Y-84874047D01*
X130498904Y-84759761D01*
X130498904Y-84683571D01*
X130537000Y-84569285D01*
X130575095Y-84531190D01*
X131298904Y-83807380D02*
X131298904Y-84188333D01*
X130498904Y-84188333D01*
X131298904Y-83540714D02*
X130498904Y-83540714D01*
X131298904Y-83083571D02*
X130841761Y-83426428D01*
X130498904Y-83083571D02*
X130956047Y-83540714D01*
X133204000Y-84683523D02*
X133165904Y-84759714D01*
X133165904Y-84874000D01*
X133204000Y-84988285D01*
X133280190Y-85064476D01*
X133356380Y-85102571D01*
X133508761Y-85140666D01*
X133623047Y-85140666D01*
X133775428Y-85102571D01*
X133851619Y-85064476D01*
X133927809Y-84988285D01*
X133965904Y-84874000D01*
X133965904Y-84797809D01*
X133927809Y-84683523D01*
X133889714Y-84645428D01*
X133623047Y-84645428D01*
X133623047Y-84797809D01*
X133965904Y-84302571D02*
X133165904Y-84302571D01*
X133965904Y-83845428D01*
X133165904Y-83845428D01*
X133965904Y-83464476D02*
X133165904Y-83464476D01*
X133165904Y-83274000D01*
X133204000Y-83159714D01*
X133280190Y-83083523D01*
X133356380Y-83045428D01*
X133508761Y-83007333D01*
X133623047Y-83007333D01*
X133775428Y-83045428D01*
X133851619Y-83083523D01*
X133927809Y-83159714D01*
X133965904Y-83274000D01*
X133965904Y-83464476D01*
X135578904Y-85140666D02*
X136378904Y-84874000D01*
X135578904Y-84607333D01*
X136302714Y-83883523D02*
X136340809Y-83921619D01*
X136378904Y-84035904D01*
X136378904Y-84112095D01*
X136340809Y-84226380D01*
X136264619Y-84302571D01*
X136188428Y-84340666D01*
X136036047Y-84378761D01*
X135921761Y-84378761D01*
X135769380Y-84340666D01*
X135693190Y-84302571D01*
X135617000Y-84226380D01*
X135578904Y-84112095D01*
X135578904Y-84035904D01*
X135617000Y-83921619D01*
X135655095Y-83883523D01*
X136302714Y-83083523D02*
X136340809Y-83121619D01*
X136378904Y-83235904D01*
X136378904Y-83312095D01*
X136340809Y-83426380D01*
X136264619Y-83502571D01*
X136188428Y-83540666D01*
X136036047Y-83578761D01*
X135921761Y-83578761D01*
X135769380Y-83540666D01*
X135693190Y-83502571D01*
X135617000Y-83426380D01*
X135578904Y-83312095D01*
X135578904Y-83235904D01*
X135617000Y-83121619D01*
X135655095Y-83083523D01*
D11*
X155702857Y-108883380D02*
X156369523Y-108883380D01*
X155940952Y-109883380D01*
X157464761Y-109835761D02*
X157560000Y-109883380D01*
X157750476Y-109883380D01*
X157845714Y-109835761D01*
X157893333Y-109740523D01*
X157893333Y-109692904D01*
X157845714Y-109597666D01*
X157750476Y-109550047D01*
X157607619Y-109550047D01*
X157512380Y-109502428D01*
X157464761Y-109407190D01*
X157464761Y-109359571D01*
X157512380Y-109264333D01*
X157607619Y-109216714D01*
X157750476Y-109216714D01*
X157845714Y-109264333D01*
X158702857Y-109835761D02*
X158607619Y-109883380D01*
X158417142Y-109883380D01*
X158321904Y-109835761D01*
X158274285Y-109740523D01*
X158274285Y-109359571D01*
X158321904Y-109264333D01*
X158417142Y-109216714D01*
X158607619Y-109216714D01*
X158702857Y-109264333D01*
X158750476Y-109359571D01*
X158750476Y-109454809D01*
X158274285Y-109550047D01*
X159607619Y-109216714D02*
X159607619Y-110026238D01*
X159560000Y-110121476D01*
X159512380Y-110169095D01*
X159417142Y-110216714D01*
X159274285Y-110216714D01*
X159179047Y-110169095D01*
X159607619Y-109835761D02*
X159512380Y-109883380D01*
X159321904Y-109883380D01*
X159226666Y-109835761D01*
X159179047Y-109788142D01*
X159131428Y-109692904D01*
X159131428Y-109407190D01*
X159179047Y-109311952D01*
X159226666Y-109264333D01*
X159321904Y-109216714D01*
X159512380Y-109216714D01*
X159607619Y-109264333D01*
X160083809Y-109883380D02*
X160083809Y-109216714D01*
X160083809Y-109311952D02*
X160131428Y-109264333D01*
X160226666Y-109216714D01*
X160369523Y-109216714D01*
X160464761Y-109264333D01*
X160512380Y-109359571D01*
X160512380Y-109883380D01*
X160512380Y-109359571D02*
X160560000Y-109264333D01*
X160655238Y-109216714D01*
X160798095Y-109216714D01*
X160893333Y-109264333D01*
X160940952Y-109359571D01*
X160940952Y-109883380D01*
X161798095Y-109835761D02*
X161702857Y-109883380D01*
X161512380Y-109883380D01*
X161417142Y-109835761D01*
X161369523Y-109740523D01*
X161369523Y-109359571D01*
X161417142Y-109264333D01*
X161512380Y-109216714D01*
X161702857Y-109216714D01*
X161798095Y-109264333D01*
X161845714Y-109359571D01*
X161845714Y-109454809D01*
X161369523Y-109550047D01*
X162274285Y-109216714D02*
X162274285Y-109883380D01*
X162274285Y-109311952D02*
X162321904Y-109264333D01*
X162417142Y-109216714D01*
X162560000Y-109216714D01*
X162655238Y-109264333D01*
X162702857Y-109359571D01*
X162702857Y-109883380D01*
X163036190Y-109216714D02*
X163417142Y-109216714D01*
X163179047Y-108883380D02*
X163179047Y-109740523D01*
X163226666Y-109835761D01*
X163321904Y-109883380D01*
X163417142Y-109883380D01*
X164940952Y-109883380D02*
X164940952Y-108883380D01*
X164940952Y-109835761D02*
X164845714Y-109883380D01*
X164655238Y-109883380D01*
X164560000Y-109835761D01*
X164512380Y-109788142D01*
X164464761Y-109692904D01*
X164464761Y-109407190D01*
X164512380Y-109311952D01*
X164560000Y-109264333D01*
X164655238Y-109216714D01*
X164845714Y-109216714D01*
X164940952Y-109264333D01*
X165417142Y-109883380D02*
X165417142Y-109216714D01*
X165417142Y-108883380D02*
X165369523Y-108931000D01*
X165417142Y-108978619D01*
X165464761Y-108931000D01*
X165417142Y-108883380D01*
X165417142Y-108978619D01*
X165845714Y-109835761D02*
X165940952Y-109883380D01*
X166131428Y-109883380D01*
X166226666Y-109835761D01*
X166274285Y-109740523D01*
X166274285Y-109692904D01*
X166226666Y-109597666D01*
X166131428Y-109550047D01*
X165988571Y-109550047D01*
X165893333Y-109502428D01*
X165845714Y-109407190D01*
X165845714Y-109359571D01*
X165893333Y-109264333D01*
X165988571Y-109216714D01*
X166131428Y-109216714D01*
X166226666Y-109264333D01*
X166702857Y-109216714D02*
X166702857Y-110216714D01*
X166702857Y-109264333D02*
X166798095Y-109216714D01*
X166988571Y-109216714D01*
X167083809Y-109264333D01*
X167131428Y-109311952D01*
X167179047Y-109407190D01*
X167179047Y-109692904D01*
X167131428Y-109788142D01*
X167083809Y-109835761D01*
X166988571Y-109883380D01*
X166798095Y-109883380D01*
X166702857Y-109835761D01*
X167750476Y-109883380D02*
X167655238Y-109835761D01*
X167607619Y-109740523D01*
X167607619Y-108883380D01*
X168560000Y-109883380D02*
X168560000Y-109359571D01*
X168512380Y-109264333D01*
X168417142Y-109216714D01*
X168226666Y-109216714D01*
X168131428Y-109264333D01*
X168560000Y-109835761D02*
X168464761Y-109883380D01*
X168226666Y-109883380D01*
X168131428Y-109835761D01*
X168083809Y-109740523D01*
X168083809Y-109645285D01*
X168131428Y-109550047D01*
X168226666Y-109502428D01*
X168464761Y-109502428D01*
X168560000Y-109454809D01*
X168940952Y-109216714D02*
X169179047Y-109883380D01*
X169417142Y-109216714D02*
X169179047Y-109883380D01*
X169083809Y-110121476D01*
X169036190Y-110169095D01*
X168940952Y-110216714D01*
X157012380Y-111493380D02*
X157012380Y-110493380D01*
X157012380Y-110874333D02*
X157107619Y-110826714D01*
X157298095Y-110826714D01*
X157393333Y-110874333D01*
X157440952Y-110921952D01*
X157488571Y-111017190D01*
X157488571Y-111302904D01*
X157440952Y-111398142D01*
X157393333Y-111445761D01*
X157298095Y-111493380D01*
X157107619Y-111493380D01*
X157012380Y-111445761D01*
X157917142Y-111493380D02*
X157917142Y-110826714D01*
X157917142Y-111017190D02*
X157964761Y-110921952D01*
X158012380Y-110874333D01*
X158107619Y-110826714D01*
X158202857Y-110826714D01*
X158917142Y-111445761D02*
X158821904Y-111493380D01*
X158631428Y-111493380D01*
X158536190Y-111445761D01*
X158488571Y-111350523D01*
X158488571Y-110969571D01*
X158536190Y-110874333D01*
X158631428Y-110826714D01*
X158821904Y-110826714D01*
X158917142Y-110874333D01*
X158964761Y-110969571D01*
X158964761Y-111064809D01*
X158488571Y-111160047D01*
X159821904Y-111493380D02*
X159821904Y-110969571D01*
X159774285Y-110874333D01*
X159679047Y-110826714D01*
X159488571Y-110826714D01*
X159393333Y-110874333D01*
X159821904Y-111445761D02*
X159726666Y-111493380D01*
X159488571Y-111493380D01*
X159393333Y-111445761D01*
X159345714Y-111350523D01*
X159345714Y-111255285D01*
X159393333Y-111160047D01*
X159488571Y-111112428D01*
X159726666Y-111112428D01*
X159821904Y-111064809D01*
X160298095Y-111493380D02*
X160298095Y-110493380D01*
X160393333Y-111112428D02*
X160679047Y-111493380D01*
X160679047Y-110826714D02*
X160298095Y-111207666D01*
X161250476Y-111493380D02*
X161155238Y-111445761D01*
X161107619Y-111398142D01*
X161060000Y-111302904D01*
X161060000Y-111017190D01*
X161107619Y-110921952D01*
X161155238Y-110874333D01*
X161250476Y-110826714D01*
X161393333Y-110826714D01*
X161488571Y-110874333D01*
X161536190Y-110921952D01*
X161583809Y-111017190D01*
X161583809Y-111302904D01*
X161536190Y-111398142D01*
X161488571Y-111445761D01*
X161393333Y-111493380D01*
X161250476Y-111493380D01*
X162440952Y-110826714D02*
X162440952Y-111493380D01*
X162012380Y-110826714D02*
X162012380Y-111350523D01*
X162060000Y-111445761D01*
X162155238Y-111493380D01*
X162298095Y-111493380D01*
X162393333Y-111445761D01*
X162440952Y-111398142D01*
X162774285Y-110826714D02*
X163155238Y-110826714D01*
X162917142Y-110493380D02*
X162917142Y-111350523D01*
X162964761Y-111445761D01*
X163060000Y-111493380D01*
X163155238Y-111493380D01*
X164583809Y-110969571D02*
X164726666Y-111017190D01*
X164774285Y-111064809D01*
X164821904Y-111160047D01*
X164821904Y-111302904D01*
X164774285Y-111398142D01*
X164726666Y-111445761D01*
X164631428Y-111493380D01*
X164250476Y-111493380D01*
X164250476Y-110493380D01*
X164583809Y-110493380D01*
X164679047Y-110541000D01*
X164726666Y-110588619D01*
X164774285Y-110683857D01*
X164774285Y-110779095D01*
X164726666Y-110874333D01*
X164679047Y-110921952D01*
X164583809Y-110969571D01*
X164250476Y-110969571D01*
X165393333Y-111493380D02*
X165298095Y-111445761D01*
X165250476Y-111398142D01*
X165202857Y-111302904D01*
X165202857Y-111017190D01*
X165250476Y-110921952D01*
X165298095Y-110874333D01*
X165393333Y-110826714D01*
X165536190Y-110826714D01*
X165631428Y-110874333D01*
X165679047Y-110921952D01*
X165726666Y-111017190D01*
X165726666Y-111302904D01*
X165679047Y-111398142D01*
X165631428Y-111445761D01*
X165536190Y-111493380D01*
X165393333Y-111493380D01*
X166583809Y-111493380D02*
X166583809Y-110969571D01*
X166536190Y-110874333D01*
X166440952Y-110826714D01*
X166250476Y-110826714D01*
X166155238Y-110874333D01*
X166583809Y-111445761D02*
X166488571Y-111493380D01*
X166250476Y-111493380D01*
X166155238Y-111445761D01*
X166107619Y-111350523D01*
X166107619Y-111255285D01*
X166155238Y-111160047D01*
X166250476Y-111112428D01*
X166488571Y-111112428D01*
X166583809Y-111064809D01*
X167060000Y-111493380D02*
X167060000Y-110826714D01*
X167060000Y-111017190D02*
X167107619Y-110921952D01*
X167155238Y-110874333D01*
X167250476Y-110826714D01*
X167345714Y-110826714D01*
X168107619Y-111493380D02*
X168107619Y-110493380D01*
X168107619Y-111445761D02*
X168012380Y-111493380D01*
X167821904Y-111493380D01*
X167726666Y-111445761D01*
X167679047Y-111398142D01*
X167631428Y-111302904D01*
X167631428Y-111017190D01*
X167679047Y-110921952D01*
X167726666Y-110874333D01*
X167821904Y-110826714D01*
X168012380Y-110826714D01*
X168107619Y-110874333D01*
X123317190Y-109942380D02*
X123650523Y-110942380D01*
X123983857Y-109942380D01*
X124841000Y-110942380D02*
X124269571Y-110942380D01*
X124555285Y-110942380D02*
X124555285Y-109942380D01*
X124460047Y-110085238D01*
X124364809Y-110180476D01*
X124269571Y-110228095D01*
X125269571Y-110847142D02*
X125317190Y-110894761D01*
X125269571Y-110942380D01*
X125221952Y-110894761D01*
X125269571Y-110847142D01*
X125269571Y-110942380D01*
X125936238Y-109942380D02*
X126031476Y-109942380D01*
X126126714Y-109990000D01*
X126174333Y-110037619D01*
X126221952Y-110132857D01*
X126269571Y-110323333D01*
X126269571Y-110561428D01*
X126221952Y-110751904D01*
X126174333Y-110847142D01*
X126126714Y-110894761D01*
X126031476Y-110942380D01*
X125936238Y-110942380D01*
X125841000Y-110894761D01*
X125793380Y-110847142D01*
X125745761Y-110751904D01*
X125698142Y-110561428D01*
X125698142Y-110323333D01*
X125745761Y-110132857D01*
X125793380Y-110037619D01*
X125841000Y-109990000D01*
X125936238Y-109942380D01*
D12*
%TO.C,U2*%
X155020380Y-94360904D02*
X155829904Y-94360904D01*
X155925142Y-94313285D01*
X155972761Y-94265666D01*
X156020380Y-94170428D01*
X156020380Y-93979952D01*
X155972761Y-93884714D01*
X155925142Y-93837095D01*
X155829904Y-93789476D01*
X155020380Y-93789476D01*
X155115619Y-93360904D02*
X155068000Y-93313285D01*
X155020380Y-93218047D01*
X155020380Y-92979952D01*
X155068000Y-92884714D01*
X155115619Y-92837095D01*
X155210857Y-92789476D01*
X155306095Y-92789476D01*
X155448952Y-92837095D01*
X156020380Y-93408523D01*
X156020380Y-92789476D01*
%TO.C,R3*%
X146696133Y-88539580D02*
X146362800Y-88063390D01*
X146124704Y-88539580D02*
X146124704Y-87539580D01*
X146505657Y-87539580D01*
X146600895Y-87587200D01*
X146648514Y-87634819D01*
X146696133Y-87730057D01*
X146696133Y-87872914D01*
X146648514Y-87968152D01*
X146600895Y-88015771D01*
X146505657Y-88063390D01*
X146124704Y-88063390D01*
X147029466Y-87539580D02*
X147648514Y-87539580D01*
X147315180Y-87920533D01*
X147458038Y-87920533D01*
X147553276Y-87968152D01*
X147600895Y-88015771D01*
X147648514Y-88111009D01*
X147648514Y-88349104D01*
X147600895Y-88444342D01*
X147553276Y-88491961D01*
X147458038Y-88539580D01*
X147172323Y-88539580D01*
X147077085Y-88491961D01*
X147029466Y-88444342D01*
%TO.C,R1*%
X146899333Y-80360780D02*
X146566000Y-79884590D01*
X146327904Y-80360780D02*
X146327904Y-79360780D01*
X146708857Y-79360780D01*
X146804095Y-79408400D01*
X146851714Y-79456019D01*
X146899333Y-79551257D01*
X146899333Y-79694114D01*
X146851714Y-79789352D01*
X146804095Y-79836971D01*
X146708857Y-79884590D01*
X146327904Y-79884590D01*
X147851714Y-80360780D02*
X147280285Y-80360780D01*
X147566000Y-80360780D02*
X147566000Y-79360780D01*
X147470761Y-79503638D01*
X147375523Y-79598876D01*
X147280285Y-79646495D01*
%TO.C,R6*%
X146848533Y-105455980D02*
X146515200Y-104979790D01*
X146277104Y-105455980D02*
X146277104Y-104455980D01*
X146658057Y-104455980D01*
X146753295Y-104503600D01*
X146800914Y-104551219D01*
X146848533Y-104646457D01*
X146848533Y-104789314D01*
X146800914Y-104884552D01*
X146753295Y-104932171D01*
X146658057Y-104979790D01*
X146277104Y-104979790D01*
X147705676Y-104455980D02*
X147515200Y-104455980D01*
X147419961Y-104503600D01*
X147372342Y-104551219D01*
X147277104Y-104694076D01*
X147229485Y-104884552D01*
X147229485Y-105265504D01*
X147277104Y-105360742D01*
X147324723Y-105408361D01*
X147419961Y-105455980D01*
X147610438Y-105455980D01*
X147705676Y-105408361D01*
X147753295Y-105360742D01*
X147800914Y-105265504D01*
X147800914Y-105027409D01*
X147753295Y-104932171D01*
X147705676Y-104884552D01*
X147610438Y-104836933D01*
X147419961Y-104836933D01*
X147324723Y-104884552D01*
X147277104Y-104932171D01*
X147229485Y-105027409D01*
%TO.C,R5*%
X146899333Y-96921580D02*
X146566000Y-96445390D01*
X146327904Y-96921580D02*
X146327904Y-95921580D01*
X146708857Y-95921580D01*
X146804095Y-95969200D01*
X146851714Y-96016819D01*
X146899333Y-96112057D01*
X146899333Y-96254914D01*
X146851714Y-96350152D01*
X146804095Y-96397771D01*
X146708857Y-96445390D01*
X146327904Y-96445390D01*
X147804095Y-95921580D02*
X147327904Y-95921580D01*
X147280285Y-96397771D01*
X147327904Y-96350152D01*
X147423142Y-96302533D01*
X147661238Y-96302533D01*
X147756476Y-96350152D01*
X147804095Y-96397771D01*
X147851714Y-96493009D01*
X147851714Y-96731104D01*
X147804095Y-96826342D01*
X147756476Y-96873961D01*
X147661238Y-96921580D01*
X147423142Y-96921580D01*
X147327904Y-96873961D01*
X147280285Y-96826342D01*
%TO.C,R7*%
X147153333Y-109621580D02*
X146820000Y-109145390D01*
X146581904Y-109621580D02*
X146581904Y-108621580D01*
X146962857Y-108621580D01*
X147058095Y-108669200D01*
X147105714Y-108716819D01*
X147153333Y-108812057D01*
X147153333Y-108954914D01*
X147105714Y-109050152D01*
X147058095Y-109097771D01*
X146962857Y-109145390D01*
X146581904Y-109145390D01*
X147486666Y-108621580D02*
X148153333Y-108621580D01*
X147724761Y-109621580D01*
%TO.C,J1*%
X137794380Y-81613333D02*
X138508666Y-81613333D01*
X138651523Y-81660952D01*
X138746761Y-81756190D01*
X138794380Y-81899047D01*
X138794380Y-81994285D01*
X138794380Y-80613333D02*
X138794380Y-81184761D01*
X138794380Y-80899047D02*
X137794380Y-80899047D01*
X137937238Y-80994285D01*
X138032476Y-81089523D01*
X138080095Y-81184761D01*
%TO.C,R8*%
X146848533Y-101239580D02*
X146515200Y-100763390D01*
X146277104Y-101239580D02*
X146277104Y-100239580D01*
X146658057Y-100239580D01*
X146753295Y-100287200D01*
X146800914Y-100334819D01*
X146848533Y-100430057D01*
X146848533Y-100572914D01*
X146800914Y-100668152D01*
X146753295Y-100715771D01*
X146658057Y-100763390D01*
X146277104Y-100763390D01*
X147419961Y-100668152D02*
X147324723Y-100620533D01*
X147277104Y-100572914D01*
X147229485Y-100477676D01*
X147229485Y-100430057D01*
X147277104Y-100334819D01*
X147324723Y-100287200D01*
X147419961Y-100239580D01*
X147610438Y-100239580D01*
X147705676Y-100287200D01*
X147753295Y-100334819D01*
X147800914Y-100430057D01*
X147800914Y-100477676D01*
X147753295Y-100572914D01*
X147705676Y-100620533D01*
X147610438Y-100668152D01*
X147419961Y-100668152D01*
X147324723Y-100715771D01*
X147277104Y-100763390D01*
X147229485Y-100858628D01*
X147229485Y-101049104D01*
X147277104Y-101144342D01*
X147324723Y-101191961D01*
X147419961Y-101239580D01*
X147610438Y-101239580D01*
X147705676Y-101191961D01*
X147753295Y-101144342D01*
X147800914Y-101049104D01*
X147800914Y-100858628D01*
X147753295Y-100763390D01*
X147705676Y-100715771D01*
X147610438Y-100668152D01*
%TO.C,R4*%
X146797733Y-92857580D02*
X146464400Y-92381390D01*
X146226304Y-92857580D02*
X146226304Y-91857580D01*
X146607257Y-91857580D01*
X146702495Y-91905200D01*
X146750114Y-91952819D01*
X146797733Y-92048057D01*
X146797733Y-92190914D01*
X146750114Y-92286152D01*
X146702495Y-92333771D01*
X146607257Y-92381390D01*
X146226304Y-92381390D01*
X147654876Y-92190914D02*
X147654876Y-92857580D01*
X147416780Y-91809961D02*
X147178685Y-92524247D01*
X147797733Y-92524247D01*
%TO.C,U1*%
X130546095Y-109844380D02*
X130546095Y-110653904D01*
X130593714Y-110749142D01*
X130641333Y-110796761D01*
X130736571Y-110844380D01*
X130927047Y-110844380D01*
X131022285Y-110796761D01*
X131069904Y-110749142D01*
X131117523Y-110653904D01*
X131117523Y-109844380D01*
X132117523Y-110844380D02*
X131546095Y-110844380D01*
X131831809Y-110844380D02*
X131831809Y-109844380D01*
X131736571Y-109987238D01*
X131641333Y-110082476D01*
X131546095Y-110130095D01*
X130643380Y-101686904D02*
X130643380Y-101020238D01*
X131643380Y-101448809D01*
X130976714Y-100210714D02*
X131643380Y-100210714D01*
X130595761Y-100448809D02*
X131310047Y-100686904D01*
X131310047Y-100067857D01*
X131643380Y-99686904D02*
X130643380Y-99686904D01*
X131119571Y-99686904D02*
X131119571Y-99115476D01*
X131643380Y-99115476D02*
X130643380Y-99115476D01*
X131548142Y-98067857D02*
X131595761Y-98115476D01*
X131643380Y-98258333D01*
X131643380Y-98353571D01*
X131595761Y-98496428D01*
X131500523Y-98591666D01*
X131405285Y-98639285D01*
X131214809Y-98686904D01*
X131071952Y-98686904D01*
X130881476Y-98639285D01*
X130786238Y-98591666D01*
X130691000Y-98496428D01*
X130643380Y-98353571D01*
X130643380Y-98258333D01*
X130691000Y-98115476D01*
X130738619Y-98067857D01*
X130643380Y-97163095D02*
X130643380Y-97639285D01*
X131119571Y-97686904D01*
X131071952Y-97639285D01*
X131024333Y-97544047D01*
X131024333Y-97305952D01*
X131071952Y-97210714D01*
X131119571Y-97163095D01*
X131214809Y-97115476D01*
X131452904Y-97115476D01*
X131548142Y-97163095D01*
X131595761Y-97210714D01*
X131643380Y-97305952D01*
X131643380Y-97544047D01*
X131595761Y-97639285D01*
X131548142Y-97686904D01*
X131643380Y-96639285D02*
X131643380Y-96448809D01*
X131595761Y-96353571D01*
X131548142Y-96305952D01*
X131405285Y-96210714D01*
X131214809Y-96163095D01*
X130833857Y-96163095D01*
X130738619Y-96210714D01*
X130691000Y-96258333D01*
X130643380Y-96353571D01*
X130643380Y-96544047D01*
X130691000Y-96639285D01*
X130738619Y-96686904D01*
X130833857Y-96734523D01*
X131071952Y-96734523D01*
X131167190Y-96686904D01*
X131214809Y-96639285D01*
X131262428Y-96544047D01*
X131262428Y-96353571D01*
X131214809Y-96258333D01*
X131167190Y-96210714D01*
X131071952Y-96163095D01*
X130643380Y-95258333D02*
X130643380Y-95734523D01*
X131119571Y-95782142D01*
X131071952Y-95734523D01*
X131024333Y-95639285D01*
X131024333Y-95401190D01*
X131071952Y-95305952D01*
X131119571Y-95258333D01*
X131214809Y-95210714D01*
X131452904Y-95210714D01*
X131548142Y-95258333D01*
X131595761Y-95305952D01*
X131643380Y-95401190D01*
X131643380Y-95639285D01*
X131595761Y-95734523D01*
X131548142Y-95782142D01*
%TO.C,R2*%
X146746933Y-84373980D02*
X146413600Y-83897790D01*
X146175504Y-84373980D02*
X146175504Y-83373980D01*
X146556457Y-83373980D01*
X146651695Y-83421600D01*
X146699314Y-83469219D01*
X146746933Y-83564457D01*
X146746933Y-83707314D01*
X146699314Y-83802552D01*
X146651695Y-83850171D01*
X146556457Y-83897790D01*
X146175504Y-83897790D01*
X147127885Y-83469219D02*
X147175504Y-83421600D01*
X147270742Y-83373980D01*
X147508838Y-83373980D01*
X147604076Y-83421600D01*
X147651695Y-83469219D01*
X147699314Y-83564457D01*
X147699314Y-83659695D01*
X147651695Y-83802552D01*
X147080266Y-84373980D01*
X147699314Y-84373980D01*
D13*
%TO.C,U2*%
X169368000Y-83964000D02*
X156768000Y-83964000D01*
X160068000Y-88599000D02*
X167068000Y-88599000D01*
X167068000Y-88599000D02*
X166068000Y-93599000D01*
X166068000Y-93599000D02*
X159068000Y-93599000D01*
X165068000Y-98599000D02*
X166068000Y-93599000D01*
X160068000Y-88599000D02*
X159068000Y-93599000D01*
X159068000Y-93599000D02*
X158068000Y-98599000D01*
X157768000Y-103234000D02*
X169368000Y-103234000D01*
X169478000Y-99314000D02*
X169478000Y-87884000D01*
X156658000Y-99314000D02*
X156658000Y-87884000D01*
X158068000Y-98599000D02*
X165068000Y-98599000D01*
X167515214Y-98599000D02*
G75*
G03*
X167515214Y-98599000I-447214J0D01*
G01*
%TO.C,R3*%
X143592800Y-86666400D02*
X143592800Y-89406400D01*
X143592800Y-89406400D02*
X150132800Y-89406400D01*
X150902800Y-88036400D02*
X150132800Y-88036400D01*
X150132800Y-86666400D02*
X143592800Y-86666400D01*
X142822800Y-88036400D02*
X143592800Y-88036400D01*
X150132800Y-89406400D02*
X150132800Y-86666400D01*
%TO.C,R1*%
X150234400Y-78563800D02*
X143694400Y-78563800D01*
X151004400Y-79933800D02*
X150234400Y-79933800D01*
X142924400Y-79933800D02*
X143694400Y-79933800D01*
X143694400Y-78563800D02*
X143694400Y-81303800D01*
X143694400Y-81303800D02*
X150234400Y-81303800D01*
X150234400Y-81303800D02*
X150234400Y-78563800D01*
%TO.C,R6*%
X142924400Y-105003600D02*
X143694400Y-105003600D01*
X150234400Y-106373600D02*
X150234400Y-103633600D01*
X143694400Y-103633600D02*
X143694400Y-106373600D01*
X143694400Y-106373600D02*
X150234400Y-106373600D01*
X150234400Y-103633600D02*
X143694400Y-103633600D01*
X151004400Y-105003600D02*
X150234400Y-105003600D01*
%TO.C,R5*%
X143694400Y-97890000D02*
X150234400Y-97890000D01*
X142924400Y-96520000D02*
X143694400Y-96520000D01*
X150234400Y-97890000D02*
X150234400Y-95150000D01*
X150234400Y-95150000D02*
X143694400Y-95150000D01*
X151004400Y-96520000D02*
X150234400Y-96520000D01*
X143694400Y-95150000D02*
X143694400Y-97890000D01*
%TO.C,R7*%
X151055200Y-109220000D02*
X150285200Y-109220000D01*
X143745200Y-110590000D02*
X150285200Y-110590000D01*
X143745200Y-107850000D02*
X143745200Y-110590000D01*
X150285200Y-110590000D02*
X150285200Y-107850000D01*
X142975200Y-109220000D02*
X143745200Y-109220000D01*
X150285200Y-107850000D02*
X143745200Y-107850000D01*
%TO.C,J1*%
X124522000Y-79950000D02*
X124522000Y-82610000D01*
X136012000Y-79950000D02*
X137342000Y-79950000D01*
X137342000Y-79950000D02*
X137342000Y-81280000D01*
X134742000Y-79950000D02*
X134742000Y-82610000D01*
X134742000Y-82610000D02*
X124522000Y-82610000D01*
X134742000Y-79950000D02*
X124522000Y-79950000D01*
%TO.C,R8*%
X150285200Y-102106400D02*
X150285200Y-99366400D01*
X151055200Y-100736400D02*
X150285200Y-100736400D01*
X150285200Y-99366400D02*
X143745200Y-99366400D01*
X143745200Y-102106400D02*
X150285200Y-102106400D01*
X143745200Y-99366400D02*
X143745200Y-102106400D01*
X142975200Y-100736400D02*
X143745200Y-100736400D01*
%TO.C,R4*%
X150953600Y-92354400D02*
X150183600Y-92354400D01*
X143643600Y-90984400D02*
X143643600Y-93724400D01*
X142873600Y-92354400D02*
X143643600Y-92354400D01*
X143643600Y-93724400D02*
X150183600Y-93724400D01*
X150183600Y-90984400D02*
X143643600Y-90984400D01*
X150183600Y-93724400D02*
X150183600Y-90984400D01*
%TO.C,U1*%
X133958000Y-109392000D02*
X133958000Y-88952000D01*
X128658000Y-109392000D02*
X130308000Y-109392000D01*
X133958000Y-88952000D02*
X128658000Y-88952000D01*
X128658000Y-88952000D02*
X128658000Y-109392000D01*
X132308000Y-109392000D02*
X133958000Y-109392000D01*
X132308000Y-109392000D02*
G75*
G03*
X130308000Y-109392000I-1000000J0D01*
G01*
%TO.C,R2*%
X150953600Y-83870800D02*
X150183600Y-83870800D01*
X150183600Y-85240800D02*
X150183600Y-82500800D01*
X142873600Y-83870800D02*
X143643600Y-83870800D01*
X143643600Y-82500800D02*
X143643600Y-85240800D01*
X150183600Y-82500800D02*
X143643600Y-82500800D01*
X143643600Y-85240800D02*
X150183600Y-85240800D01*
%TD*%
M02*
