%TF.GenerationSoftware,KiCad,Pcbnew,(6.0.4)*%
%TF.CreationDate,2022-05-25T21:12:10+01:00*%
%TF.ProjectId,7SegmentDB,37536567-6d65-46e7-9444-422e6b696361,V1.0*%
%TF.SameCoordinates,Original*%
%TF.FileFunction,Copper,L1,Top*%
%TF.FilePolarity,Positive*%
%FSLAX46Y46*%
G04 Gerber Fmt 4.6, Leading zero omitted, Abs format (unit mm)*
G04 Created by KiCad (PCBNEW (6.0.4)) date 2022-05-25 21:12:10*
%MOMM*%
%LPD*%
G01*
G04 APERTURE LIST*
%TA.AperFunction,ComponentPad*%
%ADD10R,1.524000X2.524000*%
%TD*%
%TA.AperFunction,ComponentPad*%
%ADD11O,1.524000X2.524000*%
%TD*%
%TA.AperFunction,ComponentPad*%
%ADD12C,1.600000*%
%TD*%
%TA.AperFunction,ComponentPad*%
%ADD13O,1.600000X1.600000*%
%TD*%
%TA.AperFunction,ComponentPad*%
%ADD14R,1.700000X1.700000*%
%TD*%
%TA.AperFunction,ComponentPad*%
%ADD15O,1.700000X1.700000*%
%TD*%
%TA.AperFunction,ComponentPad*%
%ADD16R,1.600000X1.600000*%
%TD*%
%TA.AperFunction,ViaPad*%
%ADD17C,0.800000*%
%TD*%
%TA.AperFunction,Conductor*%
%ADD18C,0.400000*%
%TD*%
%TA.AperFunction,Conductor*%
%ADD19C,0.250000*%
%TD*%
G04 APERTURE END LIST*
D10*
%TO.P,U2,1,E*%
%TO.N,Net-(R4-Pad2)*%
X157988000Y-101219000D03*
D11*
%TO.P,U2,2,D*%
%TO.N,Net-(R5-Pad2)*%
X160528000Y-101219000D03*
%TO.P,U2,3,CA*%
%TO.N,VCC*%
X163068000Y-101219000D03*
%TO.P,U2,4,C*%
%TO.N,Net-(R6-Pad2)*%
X165608000Y-101219000D03*
%TO.P,U2,5,DP*%
%TO.N,Net-(R1-Pad2)*%
X168148000Y-101219000D03*
%TO.P,U2,6,B*%
%TO.N,Net-(R7-Pad2)*%
X168148000Y-85979000D03*
%TO.P,U2,7,A*%
%TO.N,Net-(R8-Pad2)*%
X165608000Y-85979000D03*
%TO.P,U2,8,CA*%
%TO.N,VCC*%
X163068000Y-85979000D03*
%TO.P,U2,9,F*%
%TO.N,Net-(R3-Pad2)*%
X160528000Y-85979000D03*
%TO.P,U2,10,G*%
%TO.N,Net-(R2-Pad2)*%
X157988000Y-85979000D03*
%TD*%
D12*
%TO.P,R3,1*%
%TO.N,/SIG6*%
X141782800Y-88036400D03*
D13*
%TO.P,R3,2*%
%TO.N,Net-(R3-Pad2)*%
X151942800Y-88036400D03*
%TD*%
D12*
%TO.P,R1,1*%
%TO.N,/SIG8*%
X141884400Y-79933800D03*
D13*
%TO.P,R1,2*%
%TO.N,Net-(R1-Pad2)*%
X152044400Y-79933800D03*
%TD*%
D12*
%TO.P,R6,1*%
%TO.N,/SIG3*%
X141884400Y-105003600D03*
D13*
%TO.P,R6,2*%
%TO.N,Net-(R6-Pad2)*%
X152044400Y-105003600D03*
%TD*%
D12*
%TO.P,R5,1*%
%TO.N,/SIG4*%
X141884400Y-96520000D03*
D13*
%TO.P,R5,2*%
%TO.N,Net-(R5-Pad2)*%
X152044400Y-96520000D03*
%TD*%
D12*
%TO.P,R7,1*%
%TO.N,/SIG2*%
X141935200Y-109220000D03*
D13*
%TO.P,R7,2*%
%TO.N,Net-(R7-Pad2)*%
X152095200Y-109220000D03*
%TD*%
D14*
%TO.P,J1,1,Pin_1*%
%TO.N,VCC*%
X136012000Y-81280000D03*
D15*
%TO.P,J1,2,Pin_2*%
%TO.N,GND*%
X133472000Y-81280000D03*
%TO.P,J1,3,Pin_3*%
%TO.N,/LATCH*%
X130932000Y-81280000D03*
%TO.P,J1,4,Pin_4*%
%TO.N,/CLOCK*%
X128392000Y-81280000D03*
%TO.P,J1,5,Pin_5*%
%TO.N,/DATA*%
X125852000Y-81280000D03*
%TD*%
D12*
%TO.P,R8,1*%
%TO.N,/SIG1*%
X141935200Y-100736400D03*
D13*
%TO.P,R8,2*%
%TO.N,Net-(R8-Pad2)*%
X152095200Y-100736400D03*
%TD*%
D12*
%TO.P,R4,1*%
%TO.N,/SIG5*%
X141833600Y-92354400D03*
D13*
%TO.P,R4,2*%
%TO.N,Net-(R4-Pad2)*%
X151993600Y-92354400D03*
%TD*%
D16*
%TO.P,U1,1,QB*%
%TO.N,/SIG2*%
X135118000Y-108062000D03*
D13*
%TO.P,U1,2,QC*%
%TO.N,/SIG3*%
X135118000Y-105522000D03*
%TO.P,U1,3,QD*%
%TO.N,/SIG4*%
X135118000Y-102982000D03*
%TO.P,U1,4,QE*%
%TO.N,/SIG5*%
X135118000Y-100442000D03*
%TO.P,U1,5,QF*%
%TO.N,/SIG6*%
X135118000Y-97902000D03*
%TO.P,U1,6,QG*%
%TO.N,/SIG7*%
X135118000Y-95362000D03*
%TO.P,U1,7,QH*%
%TO.N,/SIG8*%
X135118000Y-92822000D03*
%TO.P,U1,8,GND*%
%TO.N,GND*%
X135118000Y-90282000D03*
%TO.P,U1,9,QH'*%
%TO.N,unconnected-(U1-Pad9)*%
X127498000Y-90282000D03*
%TO.P,U1,10,~{SRCLR}*%
%TO.N,VCC*%
X127498000Y-92822000D03*
%TO.P,U1,11,SRCLK*%
%TO.N,/CLOCK*%
X127498000Y-95362000D03*
%TO.P,U1,12,RCLK*%
%TO.N,/LATCH*%
X127498000Y-97902000D03*
%TO.P,U1,13,~{OE}*%
%TO.N,GND*%
X127498000Y-100442000D03*
%TO.P,U1,14,SER*%
%TO.N,/DATA*%
X127498000Y-102982000D03*
%TO.P,U1,15,QA*%
%TO.N,/SIG1*%
X127498000Y-105522000D03*
%TO.P,U1,16,VCC*%
%TO.N,VCC*%
X127498000Y-108062000D03*
%TD*%
D12*
%TO.P,R2,1*%
%TO.N,/SIG7*%
X141833600Y-83870800D03*
D13*
%TO.P,R2,2*%
%TO.N,Net-(R2-Pad2)*%
X151993600Y-83870800D03*
%TD*%
D17*
%TO.N,Net-(R1-Pad2)*%
X161798000Y-96774000D03*
%TO.N,Net-(R8-Pad2)*%
X155321000Y-102743000D03*
%TD*%
D18*
%TO.N,VCC*%
X163068000Y-85979000D02*
X163068000Y-101219000D01*
D19*
%TO.N,Net-(R1-Pad2)*%
X161798000Y-84904048D02*
X161798000Y-96774000D01*
X156827752Y-79933800D02*
X161798000Y-84904048D01*
X152044400Y-79933800D02*
X156827752Y-79933800D01*
%TO.N,Net-(R3-Pad2)*%
X151942800Y-88036400D02*
X158470600Y-88036400D01*
X158470600Y-88036400D02*
X160528000Y-85979000D01*
%TO.N,Net-(R2-Pad2)*%
X155879800Y-83870800D02*
X157988000Y-85979000D01*
X151993600Y-83870800D02*
X155879800Y-83870800D01*
%TO.N,Net-(R8-Pad2)*%
X153314400Y-100736400D02*
X155321000Y-102743000D01*
X152095200Y-100736400D02*
X153314400Y-100736400D01*
%TO.N,Net-(R7-Pad2)*%
X167005000Y-101858571D02*
X167005000Y-87122000D01*
X167005000Y-87122000D02*
X168148000Y-85979000D01*
X159643571Y-109220000D02*
X167005000Y-101858571D01*
X152095200Y-109220000D02*
X159643571Y-109220000D01*
%TO.N,Net-(R6-Pad2)*%
X161823400Y-105003600D02*
X165608000Y-101219000D01*
X152044400Y-105003600D02*
X161823400Y-105003600D01*
%TO.N,Net-(R5-Pad2)*%
X158941489Y-102805511D02*
X160528000Y-101219000D01*
X156901489Y-102805511D02*
X158941489Y-102805511D01*
X152044400Y-97948422D02*
X156901489Y-102805511D01*
X152044400Y-96520000D02*
X152044400Y-97948422D01*
%TO.N,Net-(R4-Pad2)*%
X157988000Y-98348800D02*
X157988000Y-101219000D01*
X151993600Y-92354400D02*
X157988000Y-98348800D01*
D18*
%TO.N,VCC*%
X163068000Y-82677000D02*
X163068000Y-85979000D01*
X157861000Y-77470000D02*
X163068000Y-82677000D01*
X139822000Y-77470000D02*
X157861000Y-77470000D01*
X136012000Y-81280000D02*
X139822000Y-77470000D01*
D19*
%TO.N,/SIG8*%
X140157200Y-79933800D02*
X141884400Y-79933800D01*
X136342511Y-88447489D02*
X139573000Y-85217000D01*
X139573000Y-85217000D02*
X139573000Y-80518000D01*
X139573000Y-80518000D02*
X140157200Y-79933800D01*
X136342511Y-91597489D02*
X136342511Y-88447489D01*
X135118000Y-92822000D02*
X136342511Y-91597489D01*
%TO.N,/SIG7*%
X141833600Y-85877400D02*
X141833600Y-83870800D01*
X137033000Y-90678000D02*
X141833600Y-85877400D01*
X137033000Y-94107000D02*
X137033000Y-90678000D01*
X136652000Y-94488000D02*
X137033000Y-94107000D01*
X135118000Y-95362000D02*
X135992000Y-94488000D01*
X135992000Y-94488000D02*
X136652000Y-94488000D01*
%TO.N,/SIG6*%
X137668000Y-92151200D02*
X141782800Y-88036400D01*
X137668000Y-96393000D02*
X137668000Y-92151200D01*
X137287000Y-96774000D02*
X137668000Y-96393000D01*
X136246000Y-96774000D02*
X137287000Y-96774000D01*
X135118000Y-97902000D02*
X136246000Y-96774000D01*
%TO.N,/SIG5*%
X140309600Y-92354400D02*
X141833600Y-92354400D01*
X138303000Y-94361000D02*
X140309600Y-92354400D01*
X138303000Y-97257000D02*
X138303000Y-94361000D01*
X135118000Y-100442000D02*
X138303000Y-97257000D01*
%TO.N,/SIG4*%
X139954000Y-96520000D02*
X141884400Y-96520000D01*
X138684000Y-101219000D02*
X138684000Y-97790000D01*
X138684000Y-97790000D02*
X139954000Y-96520000D01*
X136921000Y-102982000D02*
X138684000Y-101219000D01*
X135118000Y-102982000D02*
X136921000Y-102982000D01*
%TO.N,/SIG1*%
X138565089Y-104106511D02*
X141935200Y-100736400D01*
X134780489Y-104106511D02*
X138565089Y-104106511D01*
X129540000Y-109347000D02*
X134780489Y-104106511D01*
X126273489Y-108569210D02*
X127051279Y-109347000D01*
X126273489Y-106746511D02*
X126273489Y-108569210D01*
X127051279Y-109347000D02*
X129540000Y-109347000D01*
X127498000Y-105522000D02*
X126273489Y-106746511D01*
%TO.N,/SIG3*%
X141366000Y-105522000D02*
X141884400Y-105003600D01*
X135118000Y-105522000D02*
X141366000Y-105522000D01*
%TO.N,/SIG2*%
X140777200Y-108062000D02*
X141935200Y-109220000D01*
X135118000Y-108062000D02*
X140777200Y-108062000D01*
D18*
%TO.N,VCC*%
X129275520Y-94599520D02*
X129275520Y-106284480D01*
X129275520Y-106284480D02*
X127498000Y-108062000D01*
X127498000Y-92822000D02*
X129275520Y-94599520D01*
D19*
%TO.N,/DATA*%
X124010480Y-99494480D02*
X127498000Y-102982000D01*
X124010480Y-83121520D02*
X124010480Y-99494480D01*
X125852000Y-81280000D02*
X124010480Y-83121520D01*
%TO.N,/LATCH*%
X128651000Y-94924700D02*
X128651000Y-96749000D01*
X128651000Y-96749000D02*
X127498000Y-97902000D01*
X127960300Y-94234000D02*
X128651000Y-94924700D01*
X127178279Y-94234000D02*
X127960300Y-94234000D01*
X126273489Y-93329210D02*
X127178279Y-94234000D01*
X126273489Y-92314790D02*
X126273489Y-93329210D01*
X126990790Y-91597489D02*
X126273489Y-92314790D01*
X127839307Y-91597489D02*
X126990790Y-91597489D01*
X130932000Y-88504796D02*
X127839307Y-91597489D01*
X130932000Y-81280000D02*
X130932000Y-88504796D01*
D18*
%TO.N,VCC*%
X136012000Y-84308000D02*
X127498000Y-92822000D01*
X136012000Y-81280000D02*
X136012000Y-84308000D01*
D19*
%TO.N,/CLOCK*%
X124460000Y-92324000D02*
X127498000Y-95362000D01*
X124460000Y-85212000D02*
X124460000Y-92324000D01*
X128392000Y-81280000D02*
X124460000Y-85212000D01*
%TD*%
%TA.AperFunction,Conductor*%
%TO.N,VCC*%
G36*
X167620205Y-76699890D02*
G01*
X167643842Y-76703570D01*
X167652745Y-76702406D01*
X167652747Y-76702406D01*
X167663196Y-76701040D01*
X167685712Y-76700128D01*
X167979989Y-76714586D01*
X167992289Y-76715798D01*
X168312868Y-76763353D01*
X168324979Y-76765761D01*
X168545852Y-76821088D01*
X168639361Y-76844511D01*
X168651191Y-76848100D01*
X168679421Y-76858201D01*
X168956320Y-76957278D01*
X168967743Y-76962010D01*
X169260697Y-77100568D01*
X169271602Y-77106396D01*
X169549582Y-77273012D01*
X169559863Y-77279882D01*
X169820154Y-77472927D01*
X169829712Y-77480771D01*
X170069843Y-77698413D01*
X170078587Y-77707157D01*
X170296229Y-77947288D01*
X170304073Y-77956846D01*
X170497118Y-78217137D01*
X170503988Y-78227418D01*
X170670604Y-78505398D01*
X170676432Y-78516303D01*
X170814990Y-78809257D01*
X170819722Y-78820680D01*
X170928899Y-79125806D01*
X170932489Y-79137639D01*
X170955912Y-79231148D01*
X171011120Y-79451545D01*
X171011237Y-79452013D01*
X171013647Y-79464132D01*
X171048695Y-79700398D01*
X171061202Y-79784708D01*
X171062414Y-79797010D01*
X171076104Y-80075651D01*
X171076510Y-80083918D01*
X171075162Y-80109478D01*
X171073430Y-80120606D01*
X171076579Y-80144683D01*
X171077557Y-80152165D01*
X171078621Y-80168503D01*
X171078621Y-109307752D01*
X171077121Y-109327138D01*
X171075006Y-109340724D01*
X171073430Y-109350842D01*
X171074594Y-109359745D01*
X171074594Y-109359747D01*
X171075960Y-109370196D01*
X171076872Y-109392712D01*
X171063286Y-109669243D01*
X171062414Y-109686986D01*
X171061202Y-109699289D01*
X171015150Y-110009742D01*
X171013649Y-110019860D01*
X171011239Y-110031979D01*
X170955912Y-110252852D01*
X170932489Y-110346361D01*
X170928900Y-110358191D01*
X170823342Y-110653202D01*
X170819722Y-110663320D01*
X170814990Y-110674743D01*
X170676432Y-110967697D01*
X170670604Y-110978602D01*
X170503988Y-111256582D01*
X170497118Y-111266863D01*
X170304073Y-111527154D01*
X170296229Y-111536712D01*
X170078587Y-111776843D01*
X170069843Y-111785587D01*
X169829712Y-112003229D01*
X169820154Y-112011073D01*
X169559863Y-112204118D01*
X169549582Y-112210988D01*
X169271602Y-112377604D01*
X169260697Y-112383432D01*
X168967743Y-112521990D01*
X168956321Y-112526722D01*
X168679458Y-112625786D01*
X168651194Y-112635899D01*
X168639361Y-112639489D01*
X168545852Y-112662912D01*
X168324979Y-112718239D01*
X168312868Y-112720647D01*
X167992289Y-112768202D01*
X167979990Y-112769414D01*
X167693078Y-112783510D01*
X167667522Y-112782162D01*
X167656394Y-112780430D01*
X167633194Y-112783464D01*
X167624911Y-112784547D01*
X167608543Y-112785611D01*
X124636409Y-112775511D01*
X124617055Y-112774011D01*
X124602151Y-112771690D01*
X124602144Y-112771690D01*
X124593276Y-112770309D01*
X124573921Y-112772840D01*
X124551406Y-112773752D01*
X124257124Y-112759294D01*
X124244830Y-112758084D01*
X123924249Y-112710529D01*
X123912143Y-112708122D01*
X123597765Y-112629375D01*
X123585935Y-112625786D01*
X123280798Y-112516606D01*
X123269374Y-112511874D01*
X122985483Y-112377604D01*
X122976406Y-112373311D01*
X122965505Y-112367484D01*
X122687533Y-112200874D01*
X122677258Y-112194008D01*
X122416951Y-112000951D01*
X122407397Y-111993109D01*
X122167271Y-111775473D01*
X122158527Y-111766729D01*
X121940891Y-111526603D01*
X121933047Y-111517046D01*
X121739992Y-111256742D01*
X121733126Y-111246467D01*
X121566516Y-110968495D01*
X121560687Y-110957590D01*
X121518740Y-110868899D01*
X121422126Y-110664626D01*
X121417394Y-110653202D01*
X121308214Y-110348065D01*
X121304625Y-110336233D01*
X121277063Y-110226198D01*
X121225878Y-110021857D01*
X121223469Y-110009742D01*
X121219832Y-109985220D01*
X121175916Y-109689170D01*
X121174705Y-109676869D01*
X121174331Y-109669243D01*
X121163466Y-109448087D01*
X121160794Y-109393698D01*
X121162388Y-109366613D01*
X121162768Y-109364356D01*
X121162768Y-109364351D01*
X121163576Y-109359552D01*
X121163729Y-109347000D01*
X121159757Y-109319262D01*
X121158485Y-109301445D01*
X121149406Y-83101463D01*
X123372260Y-83101463D01*
X123373006Y-83109355D01*
X123376421Y-83145481D01*
X123376980Y-83157339D01*
X123376980Y-99415713D01*
X123376453Y-99426896D01*
X123374778Y-99434389D01*
X123375027Y-99442315D01*
X123375027Y-99442316D01*
X123376918Y-99502466D01*
X123376980Y-99506425D01*
X123376980Y-99534336D01*
X123377477Y-99538270D01*
X123377477Y-99538271D01*
X123377485Y-99538336D01*
X123378418Y-99550173D01*
X123379807Y-99594369D01*
X123385458Y-99613819D01*
X123389467Y-99633180D01*
X123390250Y-99639374D01*
X123392006Y-99653277D01*
X123394925Y-99660648D01*
X123394925Y-99660650D01*
X123408284Y-99694392D01*
X123412129Y-99705622D01*
X123424462Y-99748073D01*
X123428495Y-99754892D01*
X123428497Y-99754897D01*
X123434773Y-99765508D01*
X123443468Y-99783256D01*
X123450928Y-99802097D01*
X123455590Y-99808513D01*
X123455590Y-99808514D01*
X123476916Y-99837867D01*
X123483432Y-99847787D01*
X123505938Y-99885842D01*
X123520259Y-99900163D01*
X123533099Y-99915196D01*
X123545008Y-99931587D01*
X123559904Y-99943910D01*
X123579085Y-99959778D01*
X123587864Y-99967768D01*
X126188848Y-102568752D01*
X126222874Y-102631064D01*
X126221459Y-102690459D01*
X126205882Y-102748591D01*
X126205881Y-102748598D01*
X126204457Y-102753913D01*
X126184502Y-102982000D01*
X126204457Y-103210087D01*
X126205881Y-103215400D01*
X126205881Y-103215402D01*
X126262207Y-103425610D01*
X126263716Y-103431243D01*
X126266039Y-103436224D01*
X126266039Y-103436225D01*
X126358151Y-103633762D01*
X126358154Y-103633767D01*
X126360477Y-103638749D01*
X126491802Y-103826300D01*
X126653700Y-103988198D01*
X126658208Y-103991355D01*
X126658211Y-103991357D01*
X126672410Y-104001299D01*
X126841251Y-104119523D01*
X126846233Y-104121846D01*
X126846238Y-104121849D01*
X126880457Y-104137805D01*
X126933742Y-104184722D01*
X126953203Y-104252999D01*
X126932661Y-104320959D01*
X126880457Y-104366195D01*
X126846238Y-104382151D01*
X126846233Y-104382154D01*
X126841251Y-104384477D01*
X126736389Y-104457902D01*
X126658211Y-104512643D01*
X126658208Y-104512645D01*
X126653700Y-104515802D01*
X126491802Y-104677700D01*
X126488645Y-104682208D01*
X126488643Y-104682211D01*
X126456044Y-104728767D01*
X126360477Y-104865251D01*
X126358154Y-104870233D01*
X126358151Y-104870238D01*
X126298517Y-104998125D01*
X126263716Y-105072757D01*
X126262294Y-105078065D01*
X126262293Y-105078067D01*
X126219706Y-105237002D01*
X126204457Y-105293913D01*
X126184502Y-105522000D01*
X126204457Y-105750087D01*
X126205879Y-105755392D01*
X126205881Y-105755406D01*
X126221459Y-105813539D01*
X126219771Y-105884516D01*
X126188848Y-105935248D01*
X125986129Y-106137966D01*
X125881231Y-106242864D01*
X125872952Y-106250398D01*
X125866471Y-106254511D01*
X125819846Y-106304162D01*
X125817091Y-106307004D01*
X125797354Y-106326741D01*
X125794874Y-106329938D01*
X125787171Y-106338958D01*
X125756903Y-106371190D01*
X125753084Y-106378136D01*
X125753082Y-106378139D01*
X125747141Y-106388945D01*
X125736290Y-106405464D01*
X125723875Y-106421470D01*
X125720730Y-106428739D01*
X125720727Y-106428743D01*
X125706315Y-106462048D01*
X125701098Y-106472698D01*
X125679794Y-106511451D01*
X125677823Y-106519126D01*
X125677823Y-106519127D01*
X125674756Y-106531073D01*
X125668352Y-106549777D01*
X125660308Y-106568366D01*
X125659069Y-106576189D01*
X125659066Y-106576199D01*
X125653390Y-106612035D01*
X125650984Y-106623655D01*
X125639989Y-106666481D01*
X125639989Y-106686735D01*
X125638438Y-106706445D01*
X125635269Y-106726454D01*
X125636015Y-106734346D01*
X125639430Y-106770472D01*
X125639989Y-106782330D01*
X125639989Y-108490443D01*
X125639462Y-108501626D01*
X125637787Y-108509119D01*
X125638036Y-108517045D01*
X125638036Y-108517046D01*
X125639927Y-108577196D01*
X125639989Y-108581155D01*
X125639989Y-108609066D01*
X125640486Y-108613000D01*
X125640486Y-108613001D01*
X125640494Y-108613066D01*
X125641427Y-108624903D01*
X125642816Y-108669099D01*
X125648467Y-108688549D01*
X125652476Y-108707910D01*
X125652819Y-108710621D01*
X125655015Y-108728007D01*
X125657934Y-108735378D01*
X125657934Y-108735380D01*
X125671293Y-108769122D01*
X125675138Y-108780352D01*
X125687471Y-108822803D01*
X125691504Y-108829622D01*
X125691506Y-108829627D01*
X125697782Y-108840238D01*
X125706477Y-108857986D01*
X125713937Y-108876827D01*
X125718599Y-108883243D01*
X125718599Y-108883244D01*
X125739925Y-108912597D01*
X125746441Y-108922517D01*
X125768947Y-108960572D01*
X125783268Y-108974893D01*
X125796108Y-108989926D01*
X125808017Y-109006317D01*
X125814123Y-109011368D01*
X125842094Y-109034508D01*
X125850873Y-109042498D01*
X126547622Y-109739247D01*
X126555166Y-109747537D01*
X126559279Y-109754018D01*
X126565056Y-109759443D01*
X126608946Y-109800658D01*
X126611788Y-109803413D01*
X126631509Y-109823134D01*
X126634704Y-109825612D01*
X126643726Y-109833318D01*
X126675958Y-109863586D01*
X126682907Y-109867406D01*
X126693711Y-109873346D01*
X126710235Y-109884199D01*
X126726238Y-109896613D01*
X126766822Y-109914176D01*
X126777452Y-109919383D01*
X126816219Y-109940695D01*
X126823896Y-109942666D01*
X126823901Y-109942668D01*
X126835837Y-109945732D01*
X126854545Y-109952137D01*
X126873134Y-109960181D01*
X126880962Y-109961421D01*
X126880969Y-109961423D01*
X126916803Y-109967099D01*
X126928423Y-109969505D01*
X126960238Y-109977673D01*
X126971249Y-109980500D01*
X126991503Y-109980500D01*
X127011213Y-109982051D01*
X127031222Y-109985220D01*
X127039114Y-109984474D01*
X127057859Y-109982702D01*
X127075241Y-109981059D01*
X127087098Y-109980500D01*
X129461233Y-109980500D01*
X129472416Y-109981027D01*
X129479909Y-109982702D01*
X129487835Y-109982453D01*
X129487836Y-109982453D01*
X129547986Y-109980562D01*
X129551945Y-109980500D01*
X129579856Y-109980500D01*
X129583791Y-109980003D01*
X129583856Y-109979995D01*
X129595693Y-109979062D01*
X129627951Y-109978048D01*
X129631970Y-109977922D01*
X129639889Y-109977673D01*
X129659343Y-109972021D01*
X129678700Y-109968013D01*
X129690930Y-109966468D01*
X129690931Y-109966468D01*
X129698797Y-109965474D01*
X129706168Y-109962555D01*
X129706170Y-109962555D01*
X129739912Y-109949196D01*
X129751142Y-109945351D01*
X129785983Y-109935229D01*
X129785984Y-109935229D01*
X129793593Y-109933018D01*
X129800412Y-109928985D01*
X129800417Y-109928983D01*
X129811028Y-109922707D01*
X129828776Y-109914012D01*
X129847617Y-109906552D01*
X129867987Y-109891753D01*
X129883387Y-109880564D01*
X129893307Y-109874048D01*
X129924535Y-109855580D01*
X129924538Y-109855578D01*
X129931362Y-109851542D01*
X129945683Y-109837221D01*
X129960717Y-109824380D01*
X129963723Y-109822196D01*
X129977107Y-109812472D01*
X130005298Y-109778395D01*
X130013288Y-109769616D01*
X133733560Y-106049344D01*
X133795872Y-106015318D01*
X133866687Y-106020383D01*
X133923523Y-106062930D01*
X133936850Y-106085190D01*
X133978149Y-106173758D01*
X133978153Y-106173764D01*
X133980477Y-106178749D01*
X134021884Y-106237884D01*
X134062381Y-106295719D01*
X134111802Y-106366300D01*
X134273700Y-106528198D01*
X134278211Y-106531357D01*
X134282424Y-106534892D01*
X134281473Y-106536026D01*
X134321471Y-106586071D01*
X134328776Y-106656690D01*
X134296742Y-106720049D01*
X134235538Y-106756030D01*
X134218483Y-106759082D01*
X134207684Y-106760255D01*
X134071295Y-106811385D01*
X133954739Y-106898739D01*
X133867385Y-107015295D01*
X133816255Y-107151684D01*
X133809500Y-107213866D01*
X133809500Y-108910134D01*
X133816255Y-108972316D01*
X133867385Y-109108705D01*
X133954739Y-109225261D01*
X134071295Y-109312615D01*
X134207684Y-109363745D01*
X134269866Y-109370500D01*
X135966134Y-109370500D01*
X136028316Y-109363745D01*
X136164705Y-109312615D01*
X136281261Y-109225261D01*
X136368615Y-109108705D01*
X136419745Y-108972316D01*
X136426500Y-108910134D01*
X136426500Y-108821500D01*
X136446502Y-108753379D01*
X136500158Y-108706886D01*
X136552500Y-108695500D01*
X140462606Y-108695500D01*
X140530727Y-108715502D01*
X140551701Y-108732405D01*
X140626048Y-108806752D01*
X140660074Y-108869064D01*
X140658659Y-108928459D01*
X140643082Y-108986591D01*
X140643081Y-108986598D01*
X140641657Y-108991913D01*
X140621702Y-109220000D01*
X140641657Y-109448087D01*
X140643081Y-109453400D01*
X140643081Y-109453402D01*
X140696134Y-109651395D01*
X140700916Y-109669243D01*
X140703239Y-109674224D01*
X140703239Y-109674225D01*
X140795351Y-109871762D01*
X140795354Y-109871767D01*
X140797677Y-109876749D01*
X140929002Y-110064300D01*
X141090900Y-110226198D01*
X141095408Y-110229355D01*
X141095411Y-110229357D01*
X141173589Y-110284098D01*
X141278451Y-110357523D01*
X141283433Y-110359846D01*
X141283438Y-110359849D01*
X141480975Y-110451961D01*
X141485957Y-110454284D01*
X141491265Y-110455706D01*
X141491267Y-110455707D01*
X141701798Y-110512119D01*
X141701800Y-110512119D01*
X141707113Y-110513543D01*
X141935200Y-110533498D01*
X142163287Y-110513543D01*
X142168600Y-110512119D01*
X142168602Y-110512119D01*
X142379133Y-110455707D01*
X142379135Y-110455706D01*
X142384443Y-110454284D01*
X142389425Y-110451961D01*
X142586962Y-110359849D01*
X142586967Y-110359846D01*
X142591949Y-110357523D01*
X142696811Y-110284098D01*
X142774989Y-110229357D01*
X142774992Y-110229355D01*
X142779500Y-110226198D01*
X142941398Y-110064300D01*
X143072723Y-109876749D01*
X143075046Y-109871767D01*
X143075049Y-109871762D01*
X143167161Y-109674225D01*
X143167161Y-109674224D01*
X143169484Y-109669243D01*
X143174267Y-109651395D01*
X143227319Y-109453402D01*
X143227319Y-109453400D01*
X143228743Y-109448087D01*
X143248698Y-109220000D01*
X143228743Y-108991913D01*
X143225475Y-108979715D01*
X143170907Y-108776067D01*
X143170906Y-108776065D01*
X143169484Y-108770757D01*
X143151600Y-108732405D01*
X143075049Y-108568238D01*
X143075046Y-108568233D01*
X143072723Y-108563251D01*
X142941398Y-108375700D01*
X142779500Y-108213802D01*
X142774992Y-108210645D01*
X142774989Y-108210643D01*
X142696811Y-108155902D01*
X142591949Y-108082477D01*
X142586967Y-108080154D01*
X142586962Y-108080151D01*
X142389425Y-107988039D01*
X142389424Y-107988039D01*
X142384443Y-107985716D01*
X142379135Y-107984294D01*
X142379133Y-107984293D01*
X142168602Y-107927881D01*
X142168600Y-107927881D01*
X142163287Y-107926457D01*
X141935200Y-107906502D01*
X141707113Y-107926457D01*
X141643658Y-107943460D01*
X141572682Y-107941770D01*
X141521953Y-107910848D01*
X141280852Y-107669747D01*
X141273312Y-107661461D01*
X141269200Y-107654982D01*
X141219548Y-107608356D01*
X141216707Y-107605602D01*
X141196970Y-107585865D01*
X141193773Y-107583385D01*
X141184751Y-107575680D01*
X141158300Y-107550841D01*
X141152521Y-107545414D01*
X141145575Y-107541595D01*
X141145572Y-107541593D01*
X141134766Y-107535652D01*
X141118247Y-107524801D01*
X141117783Y-107524441D01*
X141102241Y-107512386D01*
X141094972Y-107509241D01*
X141094968Y-107509238D01*
X141061663Y-107494826D01*
X141051013Y-107489609D01*
X141012260Y-107468305D01*
X140992637Y-107463267D01*
X140973934Y-107456863D01*
X140962620Y-107451967D01*
X140962619Y-107451967D01*
X140955345Y-107448819D01*
X140947522Y-107447580D01*
X140947512Y-107447577D01*
X140911676Y-107441901D01*
X140900056Y-107439495D01*
X140864911Y-107430472D01*
X140864910Y-107430472D01*
X140857230Y-107428500D01*
X140836976Y-107428500D01*
X140817265Y-107426949D01*
X140805086Y-107425020D01*
X140797257Y-107423780D01*
X140789365Y-107424526D01*
X140753239Y-107427941D01*
X140741381Y-107428500D01*
X136552500Y-107428500D01*
X136484379Y-107408498D01*
X136437886Y-107354842D01*
X136426500Y-107302500D01*
X136426500Y-107213866D01*
X136419745Y-107151684D01*
X136368615Y-107015295D01*
X136281261Y-106898739D01*
X136164705Y-106811385D01*
X136028316Y-106760255D01*
X136017526Y-106759083D01*
X136015394Y-106758197D01*
X136012778Y-106757575D01*
X136012879Y-106757152D01*
X135951965Y-106731845D01*
X135911537Y-106673483D01*
X135909078Y-106602529D01*
X135945371Y-106541510D01*
X135954031Y-106534511D01*
X135957793Y-106531354D01*
X135962300Y-106528198D01*
X136124198Y-106366300D01*
X136172287Y-106297622D01*
X136234181Y-106209229D01*
X136289638Y-106164901D01*
X136337394Y-106155500D01*
X141230549Y-106155500D01*
X141283799Y-106167305D01*
X141435157Y-106237884D01*
X141440465Y-106239306D01*
X141440467Y-106239307D01*
X141650998Y-106295719D01*
X141651000Y-106295719D01*
X141656313Y-106297143D01*
X141884400Y-106317098D01*
X142112487Y-106297143D01*
X142117800Y-106295719D01*
X142117802Y-106295719D01*
X142328333Y-106239307D01*
X142328335Y-106239306D01*
X142333643Y-106237884D01*
X142338625Y-106235561D01*
X142536162Y-106143449D01*
X142536167Y-106143446D01*
X142541149Y-106141123D01*
X142672223Y-106049344D01*
X142724189Y-106012957D01*
X142724192Y-106012955D01*
X142728700Y-106009798D01*
X142890598Y-105847900D01*
X142914253Y-105814118D01*
X142997111Y-105695784D01*
X143021923Y-105660349D01*
X143024246Y-105655367D01*
X143024249Y-105655362D01*
X143116361Y-105457825D01*
X143116361Y-105457824D01*
X143118684Y-105452843D01*
X143124691Y-105430427D01*
X143176519Y-105237002D01*
X143176519Y-105237000D01*
X143177943Y-105231687D01*
X143197898Y-105003600D01*
X143177943Y-104775513D01*
X143167673Y-104737184D01*
X143120107Y-104559667D01*
X143120106Y-104559665D01*
X143118684Y-104554357D01*
X143099233Y-104512643D01*
X143024249Y-104351838D01*
X143024246Y-104351833D01*
X143021923Y-104346851D01*
X142890598Y-104159300D01*
X142728700Y-103997402D01*
X142724192Y-103994245D01*
X142724189Y-103994243D01*
X142635624Y-103932229D01*
X142541149Y-103866077D01*
X142536167Y-103863754D01*
X142536162Y-103863751D01*
X142338625Y-103771639D01*
X142338624Y-103771639D01*
X142333643Y-103769316D01*
X142328335Y-103767894D01*
X142328333Y-103767893D01*
X142117802Y-103711481D01*
X142117800Y-103711481D01*
X142112487Y-103710057D01*
X141884400Y-103690102D01*
X141656313Y-103710057D01*
X141651000Y-103711481D01*
X141650998Y-103711481D01*
X141440467Y-103767893D01*
X141440465Y-103767894D01*
X141435157Y-103769316D01*
X141430176Y-103771639D01*
X141430175Y-103771639D01*
X141232638Y-103863751D01*
X141232633Y-103863754D01*
X141227651Y-103866077D01*
X141133176Y-103932229D01*
X141044611Y-103994243D01*
X141044608Y-103994245D01*
X141040100Y-103997402D01*
X140878202Y-104159300D01*
X140746877Y-104346851D01*
X140744554Y-104351833D01*
X140744551Y-104351838D01*
X140669567Y-104512643D01*
X140650116Y-104554357D01*
X140590857Y-104775513D01*
X140590378Y-104780984D01*
X140589779Y-104784382D01*
X140558251Y-104847994D01*
X140497337Y-104884462D01*
X140465694Y-104888500D01*
X138954336Y-104888500D01*
X138886215Y-104868498D01*
X138839722Y-104814842D01*
X138829618Y-104744568D01*
X138859112Y-104679988D01*
X138880276Y-104660563D01*
X138908476Y-104640075D01*
X138918396Y-104633559D01*
X138949624Y-104615091D01*
X138949627Y-104615089D01*
X138956451Y-104611053D01*
X138970772Y-104596732D01*
X138985806Y-104583891D01*
X138995783Y-104576642D01*
X139002196Y-104571983D01*
X139030387Y-104537906D01*
X139038377Y-104529127D01*
X141521952Y-102045552D01*
X141584264Y-102011526D01*
X141643659Y-102012941D01*
X141701791Y-102028518D01*
X141701802Y-102028520D01*
X141707113Y-102029943D01*
X141935200Y-102049898D01*
X142163287Y-102029943D01*
X142168600Y-102028519D01*
X142168602Y-102028519D01*
X142379133Y-101972107D01*
X142379135Y-101972106D01*
X142384443Y-101970684D01*
X142389425Y-101968361D01*
X142586962Y-101876249D01*
X142586967Y-101876246D01*
X142591949Y-101873923D01*
X142772191Y-101747716D01*
X142774989Y-101745757D01*
X142774992Y-101745755D01*
X142779500Y-101742598D01*
X142941398Y-101580700D01*
X142950376Y-101567879D01*
X143007867Y-101485772D01*
X143072723Y-101393149D01*
X143075046Y-101388167D01*
X143075049Y-101388162D01*
X143167161Y-101190625D01*
X143167161Y-101190624D01*
X143169484Y-101185643D01*
X143191560Y-101103257D01*
X143227319Y-100969802D01*
X143227319Y-100969800D01*
X143228743Y-100964487D01*
X143248698Y-100736400D01*
X143228743Y-100508313D01*
X143212444Y-100447485D01*
X143170907Y-100292467D01*
X143170906Y-100292465D01*
X143169484Y-100287157D01*
X143157933Y-100262386D01*
X143075049Y-100084638D01*
X143075046Y-100084633D01*
X143072723Y-100079651D01*
X142983908Y-99952810D01*
X142944557Y-99896611D01*
X142944555Y-99896608D01*
X142941398Y-99892100D01*
X142779500Y-99730202D01*
X142774992Y-99727045D01*
X142774989Y-99727043D01*
X142669640Y-99653277D01*
X142591949Y-99598877D01*
X142586967Y-99596554D01*
X142586962Y-99596551D01*
X142389425Y-99504439D01*
X142389424Y-99504439D01*
X142384443Y-99502116D01*
X142379135Y-99500694D01*
X142379133Y-99500693D01*
X142168602Y-99444281D01*
X142168600Y-99444281D01*
X142163287Y-99442857D01*
X141935200Y-99422902D01*
X141707113Y-99442857D01*
X141701800Y-99444281D01*
X141701798Y-99444281D01*
X141491267Y-99500693D01*
X141491265Y-99500694D01*
X141485957Y-99502116D01*
X141480976Y-99504439D01*
X141480975Y-99504439D01*
X141283438Y-99596551D01*
X141283433Y-99596554D01*
X141278451Y-99598877D01*
X141200760Y-99653277D01*
X141095411Y-99727043D01*
X141095408Y-99727045D01*
X141090900Y-99730202D01*
X140929002Y-99892100D01*
X140925845Y-99896608D01*
X140925843Y-99896611D01*
X140886492Y-99952810D01*
X140797677Y-100079651D01*
X140795354Y-100084633D01*
X140795351Y-100084638D01*
X140712467Y-100262386D01*
X140700916Y-100287157D01*
X140699494Y-100292465D01*
X140699493Y-100292467D01*
X140657956Y-100447485D01*
X140641657Y-100508313D01*
X140621702Y-100736400D01*
X140641657Y-100964487D01*
X140643080Y-100969798D01*
X140643082Y-100969809D01*
X140658659Y-101027941D01*
X140656970Y-101098917D01*
X140626048Y-101149648D01*
X138339589Y-103436106D01*
X138277277Y-103470132D01*
X138250494Y-103473011D01*
X137630083Y-103473011D01*
X137561962Y-103453009D01*
X137515469Y-103399353D01*
X137505365Y-103329079D01*
X137534859Y-103264499D01*
X137540988Y-103257916D01*
X139076247Y-101722657D01*
X139084537Y-101715113D01*
X139091018Y-101711000D01*
X139137659Y-101661332D01*
X139140413Y-101658491D01*
X139160135Y-101638769D01*
X139162612Y-101635576D01*
X139170317Y-101626555D01*
X139195159Y-101600100D01*
X139200586Y-101594321D01*
X139205932Y-101584597D01*
X139210346Y-101576568D01*
X139221202Y-101560041D01*
X139228757Y-101550302D01*
X139228758Y-101550300D01*
X139233614Y-101544040D01*
X139251174Y-101503460D01*
X139256391Y-101492812D01*
X139273875Y-101461009D01*
X139273876Y-101461007D01*
X139277695Y-101454060D01*
X139282733Y-101434437D01*
X139289137Y-101415734D01*
X139294033Y-101404420D01*
X139294033Y-101404419D01*
X139297181Y-101397145D01*
X139298420Y-101389322D01*
X139298423Y-101389312D01*
X139304099Y-101353476D01*
X139306505Y-101341856D01*
X139315528Y-101306711D01*
X139315528Y-101306710D01*
X139317500Y-101299030D01*
X139317500Y-101278776D01*
X139319051Y-101259065D01*
X139320980Y-101246886D01*
X139322220Y-101239057D01*
X139318059Y-101195038D01*
X139317500Y-101183181D01*
X139317500Y-98104594D01*
X139337502Y-98036473D01*
X139354405Y-98015499D01*
X140179499Y-97190405D01*
X140241811Y-97156379D01*
X140268594Y-97153500D01*
X140665006Y-97153500D01*
X140733127Y-97173502D01*
X140768219Y-97207229D01*
X140844278Y-97315852D01*
X140878202Y-97364300D01*
X141040100Y-97526198D01*
X141044608Y-97529355D01*
X141044611Y-97529357D01*
X141090141Y-97561237D01*
X141227651Y-97657523D01*
X141232633Y-97659846D01*
X141232638Y-97659849D01*
X141367424Y-97722700D01*
X141435157Y-97754284D01*
X141440465Y-97755706D01*
X141440467Y-97755707D01*
X141650998Y-97812119D01*
X141651000Y-97812119D01*
X141656313Y-97813543D01*
X141884400Y-97833498D01*
X142112487Y-97813543D01*
X142117800Y-97812119D01*
X142117802Y-97812119D01*
X142328333Y-97755707D01*
X142328335Y-97755706D01*
X142333643Y-97754284D01*
X142401376Y-97722700D01*
X142536162Y-97659849D01*
X142536167Y-97659846D01*
X142541149Y-97657523D01*
X142678659Y-97561237D01*
X142724189Y-97529357D01*
X142724192Y-97529355D01*
X142728700Y-97526198D01*
X142890598Y-97364300D01*
X142927959Y-97310944D01*
X142980979Y-97235223D01*
X143021923Y-97176749D01*
X143024246Y-97171767D01*
X143024249Y-97171762D01*
X143116361Y-96974225D01*
X143116361Y-96974224D01*
X143118684Y-96969243D01*
X143124985Y-96945730D01*
X143176519Y-96753402D01*
X143176519Y-96753400D01*
X143177943Y-96748087D01*
X143197898Y-96520000D01*
X143177943Y-96291913D01*
X143132012Y-96120498D01*
X143120107Y-96076067D01*
X143120106Y-96076065D01*
X143118684Y-96070757D01*
X143108944Y-96049870D01*
X143024249Y-95868238D01*
X143024246Y-95868233D01*
X143021923Y-95863251D01*
X142890598Y-95675700D01*
X142728700Y-95513802D01*
X142724192Y-95510645D01*
X142724189Y-95510643D01*
X142646011Y-95455902D01*
X142541149Y-95382477D01*
X142536167Y-95380154D01*
X142536162Y-95380151D01*
X142338625Y-95288039D01*
X142338624Y-95288039D01*
X142333643Y-95285716D01*
X142328335Y-95284294D01*
X142328333Y-95284293D01*
X142117802Y-95227881D01*
X142117800Y-95227881D01*
X142112487Y-95226457D01*
X141884400Y-95206502D01*
X141656313Y-95226457D01*
X141651000Y-95227881D01*
X141650998Y-95227881D01*
X141440467Y-95284293D01*
X141440465Y-95284294D01*
X141435157Y-95285716D01*
X141430176Y-95288039D01*
X141430175Y-95288039D01*
X141232638Y-95380151D01*
X141232633Y-95380154D01*
X141227651Y-95382477D01*
X141122789Y-95455902D01*
X141044611Y-95510643D01*
X141044608Y-95510645D01*
X141040100Y-95513802D01*
X140878202Y-95675700D01*
X140875045Y-95680208D01*
X140875043Y-95680211D01*
X140768219Y-95832771D01*
X140712762Y-95877099D01*
X140665006Y-95886500D01*
X140032767Y-95886500D01*
X140021584Y-95885973D01*
X140014091Y-95884298D01*
X140006165Y-95884547D01*
X140006164Y-95884547D01*
X139946014Y-95886438D01*
X139942055Y-95886500D01*
X139914144Y-95886500D01*
X139910210Y-95886997D01*
X139910209Y-95886997D01*
X139910144Y-95887005D01*
X139898307Y-95887938D01*
X139866490Y-95888938D01*
X139862029Y-95889078D01*
X139854110Y-95889327D01*
X139836454Y-95894456D01*
X139834658Y-95894978D01*
X139815306Y-95898986D01*
X139808235Y-95899880D01*
X139795203Y-95901526D01*
X139787834Y-95904443D01*
X139787832Y-95904444D01*
X139754097Y-95917800D01*
X139742869Y-95921645D01*
X139700407Y-95933982D01*
X139693585Y-95938016D01*
X139693579Y-95938019D01*
X139682968Y-95944294D01*
X139665218Y-95952990D01*
X139653756Y-95957528D01*
X139653751Y-95957531D01*
X139646383Y-95960448D01*
X139639968Y-95965109D01*
X139610625Y-95986427D01*
X139600707Y-95992943D01*
X139594578Y-95996568D01*
X139562637Y-96015458D01*
X139548313Y-96029782D01*
X139533281Y-96042621D01*
X139516893Y-96054528D01*
X139488712Y-96088593D01*
X139480722Y-96097373D01*
X139151595Y-96426500D01*
X139089283Y-96460526D01*
X139018468Y-96455461D01*
X138961632Y-96412914D01*
X138936821Y-96346394D01*
X138936500Y-96337405D01*
X138936500Y-94675594D01*
X138956502Y-94607473D01*
X138973405Y-94586499D01*
X140529225Y-93030680D01*
X140591537Y-92996654D01*
X140662353Y-93001719D01*
X140721533Y-93047504D01*
X140754813Y-93095032D01*
X140827402Y-93198700D01*
X140989300Y-93360598D01*
X140993808Y-93363755D01*
X140993811Y-93363757D01*
X141051119Y-93403884D01*
X141176851Y-93491923D01*
X141181833Y-93494246D01*
X141181838Y-93494249D01*
X141314587Y-93556150D01*
X141384357Y-93588684D01*
X141389665Y-93590106D01*
X141389667Y-93590107D01*
X141600198Y-93646519D01*
X141600200Y-93646519D01*
X141605513Y-93647943D01*
X141833600Y-93667898D01*
X142061687Y-93647943D01*
X142067000Y-93646519D01*
X142067002Y-93646519D01*
X142277533Y-93590107D01*
X142277535Y-93590106D01*
X142282843Y-93588684D01*
X142352613Y-93556150D01*
X142485362Y-93494249D01*
X142485367Y-93494246D01*
X142490349Y-93491923D01*
X142616081Y-93403884D01*
X142673389Y-93363757D01*
X142673392Y-93363755D01*
X142677900Y-93360598D01*
X142839798Y-93198700D01*
X142971123Y-93011149D01*
X142973446Y-93006167D01*
X142973449Y-93006162D01*
X143065561Y-92808625D01*
X143065561Y-92808624D01*
X143067884Y-92803643D01*
X143094226Y-92705336D01*
X143125719Y-92587802D01*
X143125719Y-92587800D01*
X143127143Y-92582487D01*
X143147098Y-92354400D01*
X150680102Y-92354400D01*
X150700057Y-92582487D01*
X150701481Y-92587800D01*
X150701481Y-92587802D01*
X150732975Y-92705336D01*
X150759316Y-92803643D01*
X150761639Y-92808624D01*
X150761639Y-92808625D01*
X150853751Y-93006162D01*
X150853754Y-93006167D01*
X150856077Y-93011149D01*
X150987402Y-93198700D01*
X151149300Y-93360598D01*
X151153808Y-93363755D01*
X151153811Y-93363757D01*
X151211119Y-93403884D01*
X151336851Y-93491923D01*
X151341833Y-93494246D01*
X151341838Y-93494249D01*
X151474587Y-93556150D01*
X151544357Y-93588684D01*
X151549665Y-93590106D01*
X151549667Y-93590107D01*
X151760198Y-93646519D01*
X151760200Y-93646519D01*
X151765513Y-93647943D01*
X151993600Y-93667898D01*
X152221687Y-93647943D01*
X152226998Y-93646520D01*
X152227009Y-93646518D01*
X152285141Y-93630941D01*
X152356117Y-93632630D01*
X152406848Y-93663552D01*
X157317595Y-98574300D01*
X157351621Y-98636612D01*
X157354500Y-98663395D01*
X157354500Y-99322500D01*
X157334498Y-99390621D01*
X157280842Y-99437114D01*
X157228500Y-99448500D01*
X157177866Y-99448500D01*
X157115684Y-99455255D01*
X156979295Y-99506385D01*
X156862739Y-99593739D01*
X156775385Y-99710295D01*
X156724255Y-99846684D01*
X156717500Y-99908866D01*
X156717500Y-101421428D01*
X156697498Y-101489549D01*
X156643842Y-101536042D01*
X156573568Y-101546146D01*
X156508988Y-101516652D01*
X156502405Y-101510523D01*
X154697505Y-99705622D01*
X152776895Y-97785012D01*
X152742869Y-97722700D01*
X152747934Y-97651884D01*
X152793720Y-97592704D01*
X152884184Y-97529361D01*
X152884190Y-97529356D01*
X152888700Y-97526198D01*
X153050598Y-97364300D01*
X153087959Y-97310944D01*
X153140979Y-97235223D01*
X153181923Y-97176749D01*
X153184246Y-97171767D01*
X153184249Y-97171762D01*
X153276361Y-96974225D01*
X153276361Y-96974224D01*
X153278684Y-96969243D01*
X153284985Y-96945730D01*
X153336519Y-96753402D01*
X153336519Y-96753400D01*
X153337943Y-96748087D01*
X153357898Y-96520000D01*
X153337943Y-96291913D01*
X153292012Y-96120498D01*
X153280107Y-96076067D01*
X153280106Y-96076065D01*
X153278684Y-96070757D01*
X153268944Y-96049870D01*
X153184249Y-95868238D01*
X153184246Y-95868233D01*
X153181923Y-95863251D01*
X153050598Y-95675700D01*
X152888700Y-95513802D01*
X152884192Y-95510645D01*
X152884189Y-95510643D01*
X152806011Y-95455902D01*
X152701149Y-95382477D01*
X152696167Y-95380154D01*
X152696162Y-95380151D01*
X152498625Y-95288039D01*
X152498624Y-95288039D01*
X152493643Y-95285716D01*
X152488335Y-95284294D01*
X152488333Y-95284293D01*
X152277802Y-95227881D01*
X152277800Y-95227881D01*
X152272487Y-95226457D01*
X152044400Y-95206502D01*
X151816313Y-95226457D01*
X151811000Y-95227881D01*
X151810998Y-95227881D01*
X151600467Y-95284293D01*
X151600465Y-95284294D01*
X151595157Y-95285716D01*
X151590176Y-95288039D01*
X151590175Y-95288039D01*
X151392638Y-95380151D01*
X151392633Y-95380154D01*
X151387651Y-95382477D01*
X151282789Y-95455902D01*
X151204611Y-95510643D01*
X151204608Y-95510645D01*
X151200100Y-95513802D01*
X151038202Y-95675700D01*
X150906877Y-95863251D01*
X150904554Y-95868233D01*
X150904551Y-95868238D01*
X150819856Y-96049870D01*
X150810116Y-96070757D01*
X150808694Y-96076065D01*
X150808693Y-96076067D01*
X150796788Y-96120498D01*
X150750857Y-96291913D01*
X150730902Y-96520000D01*
X150750857Y-96748087D01*
X150752281Y-96753400D01*
X150752281Y-96753402D01*
X150803816Y-96945730D01*
X150810116Y-96969243D01*
X150812439Y-96974224D01*
X150812439Y-96974225D01*
X150904551Y-97171762D01*
X150904554Y-97171767D01*
X150906877Y-97176749D01*
X150947821Y-97235223D01*
X151000842Y-97310944D01*
X151038202Y-97364300D01*
X151200100Y-97526198D01*
X151204608Y-97529355D01*
X151204611Y-97529357D01*
X151357171Y-97636181D01*
X151401499Y-97691638D01*
X151410900Y-97739394D01*
X151410900Y-97869655D01*
X151410373Y-97880838D01*
X151408698Y-97888331D01*
X151408947Y-97896257D01*
X151408947Y-97896258D01*
X151410838Y-97956408D01*
X151410900Y-97960367D01*
X151410900Y-97988278D01*
X151411397Y-97992212D01*
X151411397Y-97992213D01*
X151411405Y-97992278D01*
X151412338Y-98004115D01*
X151413727Y-98048311D01*
X151417127Y-98060013D01*
X151419378Y-98067761D01*
X151423387Y-98087122D01*
X151425926Y-98107219D01*
X151428845Y-98114590D01*
X151428845Y-98114592D01*
X151442204Y-98148334D01*
X151446049Y-98159564D01*
X151454892Y-98190003D01*
X151458382Y-98202015D01*
X151462415Y-98208834D01*
X151462417Y-98208839D01*
X151468693Y-98219450D01*
X151477388Y-98237198D01*
X151484848Y-98256039D01*
X151489510Y-98262455D01*
X151489510Y-98262456D01*
X151510836Y-98291809D01*
X151517352Y-98301729D01*
X151523965Y-98312910D01*
X151539858Y-98339784D01*
X151554179Y-98354105D01*
X151567019Y-98369138D01*
X151578928Y-98385529D01*
X151585034Y-98390580D01*
X151613005Y-98413720D01*
X151621784Y-98421710D01*
X152429375Y-99229301D01*
X152463401Y-99291613D01*
X152458336Y-99362428D01*
X152415789Y-99419264D01*
X152349269Y-99444075D01*
X152323298Y-99442734D01*
X152323287Y-99442857D01*
X152319841Y-99442555D01*
X152319827Y-99442554D01*
X152317820Y-99442379D01*
X152317816Y-99442378D01*
X152100675Y-99423381D01*
X152095200Y-99422902D01*
X151867113Y-99442857D01*
X151861800Y-99444281D01*
X151861798Y-99444281D01*
X151651267Y-99500693D01*
X151651265Y-99500694D01*
X151645957Y-99502116D01*
X151640976Y-99504439D01*
X151640975Y-99504439D01*
X151443438Y-99596551D01*
X151443433Y-99596554D01*
X151438451Y-99598877D01*
X151360760Y-99653277D01*
X151255411Y-99727043D01*
X151255408Y-99727045D01*
X151250900Y-99730202D01*
X151089002Y-99892100D01*
X151085845Y-99896608D01*
X151085843Y-99896611D01*
X151046492Y-99952810D01*
X150957677Y-100079651D01*
X150955354Y-100084633D01*
X150955351Y-100084638D01*
X150872467Y-100262386D01*
X150860916Y-100287157D01*
X150859494Y-100292465D01*
X150859493Y-100292467D01*
X150817956Y-100447485D01*
X150801657Y-100508313D01*
X150781702Y-100736400D01*
X150801657Y-100964487D01*
X150803081Y-100969800D01*
X150803081Y-100969802D01*
X150838841Y-101103257D01*
X150860916Y-101185643D01*
X150863239Y-101190624D01*
X150863239Y-101190625D01*
X150955351Y-101388162D01*
X150955354Y-101388167D01*
X150957677Y-101393149D01*
X151022533Y-101485772D01*
X151080025Y-101567879D01*
X151089002Y-101580700D01*
X151250900Y-101742598D01*
X151255408Y-101745755D01*
X151255411Y-101745757D01*
X151258209Y-101747716D01*
X151438451Y-101873923D01*
X151443433Y-101876246D01*
X151443438Y-101876249D01*
X151640975Y-101968361D01*
X151645957Y-101970684D01*
X151651265Y-101972106D01*
X151651267Y-101972107D01*
X151861798Y-102028519D01*
X151861800Y-102028519D01*
X151867113Y-102029943D01*
X152095200Y-102049898D01*
X152323287Y-102029943D01*
X152328600Y-102028519D01*
X152328602Y-102028519D01*
X152539133Y-101972107D01*
X152539135Y-101972106D01*
X152544443Y-101970684D01*
X152549425Y-101968361D01*
X152746962Y-101876249D01*
X152746967Y-101876246D01*
X152751949Y-101873923D01*
X152932191Y-101747716D01*
X152934989Y-101745757D01*
X152934992Y-101745755D01*
X152939500Y-101742598D01*
X153093002Y-101589096D01*
X153155314Y-101555070D01*
X153226129Y-101560135D01*
X153271192Y-101589096D01*
X153824306Y-102142211D01*
X154373878Y-102691783D01*
X154407904Y-102754095D01*
X154410093Y-102767706D01*
X154416023Y-102824134D01*
X154426704Y-102925750D01*
X154427458Y-102932928D01*
X154486473Y-103114556D01*
X154581960Y-103279944D01*
X154586378Y-103284851D01*
X154586379Y-103284852D01*
X154668602Y-103376170D01*
X154709747Y-103421866D01*
X154864248Y-103534118D01*
X154870276Y-103536802D01*
X154870278Y-103536803D01*
X155032681Y-103609109D01*
X155038712Y-103611794D01*
X155132113Y-103631647D01*
X155219056Y-103650128D01*
X155219061Y-103650128D01*
X155225513Y-103651500D01*
X155416487Y-103651500D01*
X155422939Y-103650128D01*
X155422944Y-103650128D01*
X155509887Y-103631647D01*
X155603288Y-103611794D01*
X155609319Y-103609109D01*
X155771722Y-103536803D01*
X155771724Y-103536802D01*
X155777752Y-103534118D01*
X155932253Y-103421866D01*
X155973398Y-103376170D01*
X156055621Y-103284852D01*
X156055622Y-103284851D01*
X156060040Y-103279944D01*
X156131660Y-103155895D01*
X156183043Y-103106902D01*
X156252756Y-103093466D01*
X156318667Y-103119852D01*
X156329874Y-103129800D01*
X156397832Y-103197758D01*
X156405376Y-103206048D01*
X156409489Y-103212529D01*
X156415266Y-103217954D01*
X156459156Y-103259169D01*
X156461998Y-103261924D01*
X156481719Y-103281645D01*
X156484914Y-103284123D01*
X156493936Y-103291829D01*
X156526168Y-103322097D01*
X156533117Y-103325917D01*
X156543921Y-103331857D01*
X156560445Y-103342710D01*
X156576448Y-103355124D01*
X156617032Y-103372687D01*
X156627662Y-103377894D01*
X156666429Y-103399206D01*
X156674106Y-103401177D01*
X156674111Y-103401179D01*
X156686047Y-103404243D01*
X156704755Y-103410648D01*
X156723344Y-103418692D01*
X156731172Y-103419932D01*
X156731179Y-103419934D01*
X156767013Y-103425610D01*
X156778633Y-103428016D01*
X156811418Y-103436433D01*
X156821459Y-103439011D01*
X156841713Y-103439011D01*
X156861423Y-103440562D01*
X156881432Y-103443731D01*
X156889324Y-103442985D01*
X156908069Y-103441213D01*
X156925451Y-103439570D01*
X156937308Y-103439011D01*
X158862722Y-103439011D01*
X158873905Y-103439538D01*
X158881398Y-103441213D01*
X158889324Y-103440964D01*
X158889325Y-103440964D01*
X158949475Y-103439073D01*
X158953434Y-103439011D01*
X158981345Y-103439011D01*
X158985280Y-103438514D01*
X158985345Y-103438506D01*
X158997182Y-103437573D01*
X159029440Y-103436559D01*
X159033459Y-103436433D01*
X159041378Y-103436184D01*
X159060832Y-103430532D01*
X159080189Y-103426524D01*
X159092419Y-103424979D01*
X159092420Y-103424979D01*
X159100286Y-103423985D01*
X159107657Y-103421066D01*
X159107659Y-103421066D01*
X159141401Y-103407707D01*
X159152631Y-103403862D01*
X159187472Y-103393740D01*
X159187473Y-103393740D01*
X159195082Y-103391529D01*
X159201901Y-103387496D01*
X159201906Y-103387494D01*
X159212517Y-103381218D01*
X159230265Y-103372523D01*
X159249106Y-103365063D01*
X159269476Y-103350264D01*
X159284876Y-103339075D01*
X159294796Y-103332559D01*
X159326024Y-103314091D01*
X159326027Y-103314089D01*
X159332851Y-103310053D01*
X159347172Y-103295732D01*
X159362206Y-103282891D01*
X159366262Y-103279944D01*
X159378596Y-103270983D01*
X159406787Y-103236906D01*
X159414777Y-103228127D01*
X159777930Y-102864974D01*
X159840242Y-102830948D01*
X159917670Y-102838696D01*
X160121124Y-102928007D01*
X160126582Y-102929317D01*
X160126581Y-102929317D01*
X160336192Y-102979640D01*
X160336198Y-102979641D01*
X160341651Y-102980950D01*
X160454808Y-102987475D01*
X160562463Y-102993683D01*
X160562466Y-102993683D01*
X160568069Y-102994006D01*
X160793219Y-102966759D01*
X160798581Y-102965109D01*
X160798583Y-102965109D01*
X160928069Y-102925274D01*
X161009987Y-102900073D01*
X161110753Y-102848063D01*
X161206536Y-102798626D01*
X161206537Y-102798626D01*
X161211519Y-102796054D01*
X161391447Y-102657991D01*
X161476397Y-102564632D01*
X161540308Y-102494395D01*
X161540310Y-102494392D01*
X161544081Y-102490248D01*
X161547062Y-102485496D01*
X161661616Y-102302882D01*
X161661618Y-102302878D01*
X161664599Y-102298126D01*
X161682151Y-102254463D01*
X161726116Y-102198721D01*
X161793241Y-102175596D01*
X161862212Y-102192433D01*
X161912783Y-102247217D01*
X161968028Y-102363041D01*
X161973710Y-102372648D01*
X162099459Y-102547644D01*
X162106758Y-102556100D01*
X162261500Y-102706056D01*
X162270197Y-102713098D01*
X162449040Y-102833276D01*
X162458843Y-102838665D01*
X162656143Y-102925274D01*
X162666747Y-102928843D01*
X162718527Y-102941275D01*
X162780096Y-102976627D01*
X162812778Y-103039654D01*
X162806197Y-103110345D01*
X162778207Y-103152888D01*
X161597900Y-104333195D01*
X161535588Y-104367221D01*
X161508805Y-104370100D01*
X153263794Y-104370100D01*
X153195673Y-104350098D01*
X153160581Y-104316371D01*
X153053757Y-104163811D01*
X153053755Y-104163808D01*
X153050598Y-104159300D01*
X152888700Y-103997402D01*
X152884192Y-103994245D01*
X152884189Y-103994243D01*
X152795624Y-103932229D01*
X152701149Y-103866077D01*
X152696167Y-103863754D01*
X152696162Y-103863751D01*
X152498625Y-103771639D01*
X152498624Y-103771639D01*
X152493643Y-103769316D01*
X152488335Y-103767894D01*
X152488333Y-103767893D01*
X152277802Y-103711481D01*
X152277800Y-103711481D01*
X152272487Y-103710057D01*
X152044400Y-103690102D01*
X151816313Y-103710057D01*
X151811000Y-103711481D01*
X151810998Y-103711481D01*
X151600467Y-103767893D01*
X151600465Y-103767894D01*
X151595157Y-103769316D01*
X151590176Y-103771639D01*
X151590175Y-103771639D01*
X151392638Y-103863751D01*
X151392633Y-103863754D01*
X151387651Y-103866077D01*
X151293176Y-103932229D01*
X151204611Y-103994243D01*
X151204608Y-103994245D01*
X151200100Y-103997402D01*
X151038202Y-104159300D01*
X150906877Y-104346851D01*
X150904554Y-104351833D01*
X150904551Y-104351838D01*
X150829567Y-104512643D01*
X150810116Y-104554357D01*
X150808694Y-104559665D01*
X150808693Y-104559667D01*
X150761127Y-104737184D01*
X150750857Y-104775513D01*
X150730902Y-105003600D01*
X150750857Y-105231687D01*
X150752281Y-105237000D01*
X150752281Y-105237002D01*
X150804110Y-105430427D01*
X150810116Y-105452843D01*
X150812439Y-105457824D01*
X150812439Y-105457825D01*
X150904551Y-105655362D01*
X150904554Y-105655367D01*
X150906877Y-105660349D01*
X150931689Y-105695784D01*
X151014548Y-105814118D01*
X151038202Y-105847900D01*
X151200100Y-106009798D01*
X151204608Y-106012955D01*
X151204611Y-106012957D01*
X151256577Y-106049344D01*
X151387651Y-106141123D01*
X151392633Y-106143446D01*
X151392638Y-106143449D01*
X151590175Y-106235561D01*
X151595157Y-106237884D01*
X151600465Y-106239306D01*
X151600467Y-106239307D01*
X151810998Y-106295719D01*
X151811000Y-106295719D01*
X151816313Y-106297143D01*
X152044400Y-106317098D01*
X152272487Y-106297143D01*
X152277800Y-106295719D01*
X152277802Y-106295719D01*
X152488333Y-106239307D01*
X152488335Y-106239306D01*
X152493643Y-106237884D01*
X152498625Y-106235561D01*
X152696162Y-106143449D01*
X152696167Y-106143446D01*
X152701149Y-106141123D01*
X152832223Y-106049344D01*
X152884189Y-106012957D01*
X152884192Y-106012955D01*
X152888700Y-106009798D01*
X153050598Y-105847900D01*
X153053757Y-105843389D01*
X153160581Y-105690829D01*
X153216038Y-105646501D01*
X153263794Y-105637100D01*
X161744633Y-105637100D01*
X161755816Y-105637627D01*
X161763309Y-105639302D01*
X161771235Y-105639053D01*
X161771236Y-105639053D01*
X161831386Y-105637162D01*
X161835345Y-105637100D01*
X161863256Y-105637100D01*
X161867191Y-105636603D01*
X161867256Y-105636595D01*
X161879093Y-105635662D01*
X161911351Y-105634648D01*
X161915370Y-105634522D01*
X161923289Y-105634273D01*
X161942743Y-105628621D01*
X161962100Y-105624613D01*
X161974330Y-105623068D01*
X161974331Y-105623068D01*
X161982197Y-105622074D01*
X161989568Y-105619155D01*
X161989570Y-105619155D01*
X162018071Y-105607871D01*
X162088771Y-105601392D01*
X162151751Y-105634165D01*
X162187015Y-105695784D01*
X162183366Y-105766687D01*
X162153550Y-105814117D01*
X160757197Y-107210469D01*
X159418071Y-108549595D01*
X159355759Y-108583621D01*
X159328976Y-108586500D01*
X153314594Y-108586500D01*
X153246473Y-108566498D01*
X153211381Y-108532771D01*
X153104557Y-108380211D01*
X153104555Y-108380208D01*
X153101398Y-108375700D01*
X152939500Y-108213802D01*
X152934992Y-108210645D01*
X152934989Y-108210643D01*
X152856811Y-108155902D01*
X152751949Y-108082477D01*
X152746967Y-108080154D01*
X152746962Y-108080151D01*
X152549425Y-107988039D01*
X152549424Y-107988039D01*
X152544443Y-107985716D01*
X152539135Y-107984294D01*
X152539133Y-107984293D01*
X152328602Y-107927881D01*
X152328600Y-107927881D01*
X152323287Y-107926457D01*
X152095200Y-107906502D01*
X151867113Y-107926457D01*
X151861800Y-107927881D01*
X151861798Y-107927881D01*
X151651267Y-107984293D01*
X151651265Y-107984294D01*
X151645957Y-107985716D01*
X151640976Y-107988039D01*
X151640975Y-107988039D01*
X151443438Y-108080151D01*
X151443433Y-108080154D01*
X151438451Y-108082477D01*
X151333589Y-108155902D01*
X151255411Y-108210643D01*
X151255408Y-108210645D01*
X151250900Y-108213802D01*
X151089002Y-108375700D01*
X150957677Y-108563251D01*
X150955354Y-108568233D01*
X150955351Y-108568238D01*
X150878800Y-108732405D01*
X150860916Y-108770757D01*
X150859494Y-108776065D01*
X150859493Y-108776067D01*
X150804925Y-108979715D01*
X150801657Y-108991913D01*
X150781702Y-109220000D01*
X150801657Y-109448087D01*
X150803081Y-109453400D01*
X150803081Y-109453402D01*
X150856134Y-109651395D01*
X150860916Y-109669243D01*
X150863239Y-109674224D01*
X150863239Y-109674225D01*
X150955351Y-109871762D01*
X150955354Y-109871767D01*
X150957677Y-109876749D01*
X151089002Y-110064300D01*
X151250900Y-110226198D01*
X151255408Y-110229355D01*
X151255411Y-110229357D01*
X151333589Y-110284098D01*
X151438451Y-110357523D01*
X151443433Y-110359846D01*
X151443438Y-110359849D01*
X151640975Y-110451961D01*
X151645957Y-110454284D01*
X151651265Y-110455706D01*
X151651267Y-110455707D01*
X151861798Y-110512119D01*
X151861800Y-110512119D01*
X151867113Y-110513543D01*
X152095200Y-110533498D01*
X152323287Y-110513543D01*
X152328600Y-110512119D01*
X152328602Y-110512119D01*
X152539133Y-110455707D01*
X152539135Y-110455706D01*
X152544443Y-110454284D01*
X152549425Y-110451961D01*
X152746962Y-110359849D01*
X152746967Y-110359846D01*
X152751949Y-110357523D01*
X152856811Y-110284098D01*
X152934989Y-110229357D01*
X152934992Y-110229355D01*
X152939500Y-110226198D01*
X153101398Y-110064300D01*
X153131108Y-110021870D01*
X153211381Y-109907229D01*
X153266838Y-109862901D01*
X153314594Y-109853500D01*
X159564804Y-109853500D01*
X159575987Y-109854027D01*
X159583480Y-109855702D01*
X159591406Y-109855453D01*
X159591407Y-109855453D01*
X159651557Y-109853562D01*
X159655516Y-109853500D01*
X159683427Y-109853500D01*
X159687362Y-109853003D01*
X159687427Y-109852995D01*
X159699264Y-109852062D01*
X159731522Y-109851048D01*
X159735541Y-109850922D01*
X159743460Y-109850673D01*
X159762914Y-109845021D01*
X159782271Y-109841013D01*
X159794501Y-109839468D01*
X159794502Y-109839468D01*
X159802368Y-109838474D01*
X159809739Y-109835555D01*
X159809741Y-109835555D01*
X159843483Y-109822196D01*
X159854713Y-109818351D01*
X159889554Y-109808229D01*
X159889555Y-109808229D01*
X159897164Y-109806018D01*
X159903983Y-109801985D01*
X159903988Y-109801983D01*
X159914599Y-109795707D01*
X159932347Y-109787012D01*
X159951188Y-109779552D01*
X159986958Y-109753564D01*
X159996878Y-109747048D01*
X160028106Y-109728580D01*
X160028109Y-109728578D01*
X160034933Y-109724542D01*
X160049254Y-109710221D01*
X160064288Y-109697380D01*
X160080678Y-109685472D01*
X160108869Y-109651395D01*
X160116859Y-109642616D01*
X167107137Y-102652339D01*
X167169449Y-102618313D01*
X167240264Y-102623378D01*
X167283915Y-102650949D01*
X167345217Y-102710355D01*
X167349869Y-102713481D01*
X167528805Y-102833721D01*
X167528810Y-102833724D01*
X167533458Y-102836847D01*
X167538590Y-102839100D01*
X167538594Y-102839102D01*
X167597532Y-102864974D01*
X167741124Y-102928007D01*
X167746582Y-102929317D01*
X167746581Y-102929317D01*
X167956192Y-102979640D01*
X167956198Y-102979641D01*
X167961651Y-102980950D01*
X168074808Y-102987475D01*
X168182463Y-102993683D01*
X168182466Y-102993683D01*
X168188069Y-102994006D01*
X168413219Y-102966759D01*
X168418581Y-102965109D01*
X168418583Y-102965109D01*
X168548069Y-102925274D01*
X168629987Y-102900073D01*
X168730753Y-102848063D01*
X168826536Y-102798626D01*
X168826537Y-102798626D01*
X168831519Y-102796054D01*
X169011447Y-102657991D01*
X169096397Y-102564632D01*
X169160308Y-102494395D01*
X169160310Y-102494392D01*
X169164081Y-102490248D01*
X169167062Y-102485496D01*
X169281616Y-102302882D01*
X169281618Y-102302878D01*
X169284599Y-102298126D01*
X169369190Y-102087699D01*
X169415181Y-101865618D01*
X169418500Y-101808056D01*
X169418500Y-100661465D01*
X169403474Y-100493105D01*
X169343630Y-100274349D01*
X169329894Y-100245549D01*
X169248410Y-100074716D01*
X169248409Y-100074715D01*
X169245993Y-100069649D01*
X169223734Y-100038672D01*
X169116926Y-99890034D01*
X169116924Y-99890032D01*
X169113649Y-99885474D01*
X169015374Y-99790238D01*
X168954811Y-99731548D01*
X168954808Y-99731546D01*
X168950783Y-99727645D01*
X168885727Y-99683930D01*
X168767195Y-99604279D01*
X168767190Y-99604276D01*
X168762542Y-99601153D01*
X168757410Y-99598900D01*
X168757406Y-99598898D01*
X168618511Y-99537927D01*
X168554876Y-99509993D01*
X168501351Y-99497143D01*
X168339808Y-99458360D01*
X168339802Y-99458359D01*
X168334349Y-99457050D01*
X168221140Y-99450522D01*
X168113537Y-99444317D01*
X168113534Y-99444317D01*
X168107931Y-99443994D01*
X167882781Y-99471241D01*
X167877419Y-99472891D01*
X167877417Y-99472891D01*
X167801549Y-99496231D01*
X167730558Y-99497143D01*
X167670344Y-99459530D01*
X167640023Y-99395334D01*
X167638500Y-99375801D01*
X167638500Y-87823200D01*
X167658502Y-87755079D01*
X167712158Y-87708586D01*
X167782432Y-87698482D01*
X167793913Y-87700681D01*
X167956190Y-87739639D01*
X167961651Y-87740950D01*
X168074860Y-87747478D01*
X168182463Y-87753683D01*
X168182466Y-87753683D01*
X168188069Y-87754006D01*
X168413219Y-87726759D01*
X168418581Y-87725109D01*
X168418583Y-87725109D01*
X168534927Y-87689317D01*
X168629987Y-87660073D01*
X168730753Y-87608063D01*
X168826536Y-87558626D01*
X168826537Y-87558626D01*
X168831519Y-87556054D01*
X168836520Y-87552217D01*
X168847674Y-87543658D01*
X169011447Y-87417991D01*
X169164081Y-87250248D01*
X169193486Y-87203373D01*
X169281616Y-87062882D01*
X169281618Y-87062878D01*
X169284599Y-87058126D01*
X169369190Y-86847699D01*
X169415181Y-86625618D01*
X169418500Y-86568056D01*
X169418500Y-85421465D01*
X169415453Y-85387318D01*
X169407394Y-85297030D01*
X169403474Y-85253105D01*
X169343630Y-85034349D01*
X169336388Y-85019164D01*
X169248410Y-84834716D01*
X169248409Y-84834715D01*
X169245993Y-84829649D01*
X169227676Y-84804158D01*
X169116926Y-84650034D01*
X169116924Y-84650032D01*
X169113649Y-84645474D01*
X169021171Y-84555856D01*
X168954811Y-84491548D01*
X168954808Y-84491546D01*
X168950783Y-84487645D01*
X168872395Y-84434971D01*
X168767195Y-84364279D01*
X168767190Y-84364276D01*
X168762542Y-84361153D01*
X168757410Y-84358900D01*
X168757406Y-84358898D01*
X168617590Y-84297523D01*
X168554876Y-84269993D01*
X168521122Y-84261890D01*
X168339808Y-84218360D01*
X168339802Y-84218359D01*
X168334349Y-84217050D01*
X168221140Y-84210522D01*
X168113537Y-84204317D01*
X168113534Y-84204317D01*
X168107931Y-84203994D01*
X167882781Y-84231241D01*
X167877419Y-84232891D01*
X167877417Y-84232891D01*
X167858408Y-84238739D01*
X167666013Y-84297927D01*
X167661029Y-84300499D01*
X167661030Y-84300499D01*
X167547885Y-84358898D01*
X167464481Y-84401946D01*
X167284553Y-84540009D01*
X167233213Y-84596431D01*
X167191840Y-84641900D01*
X167131919Y-84707752D01*
X167128938Y-84712503D01*
X167128938Y-84712504D01*
X167028196Y-84873101D01*
X167011401Y-84899874D01*
X166994103Y-84942905D01*
X166950136Y-84998649D01*
X166883011Y-85021774D01*
X166814040Y-85004937D01*
X166763470Y-84950152D01*
X166708410Y-84834716D01*
X166708409Y-84834715D01*
X166705993Y-84829649D01*
X166687676Y-84804158D01*
X166576926Y-84650034D01*
X166576924Y-84650032D01*
X166573649Y-84645474D01*
X166481171Y-84555856D01*
X166414811Y-84491548D01*
X166414808Y-84491546D01*
X166410783Y-84487645D01*
X166332395Y-84434971D01*
X166227195Y-84364279D01*
X166227190Y-84364276D01*
X166222542Y-84361153D01*
X166217410Y-84358900D01*
X166217406Y-84358898D01*
X166077590Y-84297523D01*
X166014876Y-84269993D01*
X165981122Y-84261890D01*
X165799808Y-84218360D01*
X165799802Y-84218359D01*
X165794349Y-84217050D01*
X165681140Y-84210522D01*
X165573537Y-84204317D01*
X165573534Y-84204317D01*
X165567931Y-84203994D01*
X165342781Y-84231241D01*
X165337419Y-84232891D01*
X165337417Y-84232891D01*
X165318408Y-84238739D01*
X165126013Y-84297927D01*
X165121029Y-84300499D01*
X165121030Y-84300499D01*
X165007885Y-84358898D01*
X164924481Y-84401946D01*
X164744553Y-84540009D01*
X164693213Y-84596431D01*
X164651840Y-84641900D01*
X164591919Y-84707752D01*
X164588938Y-84712503D01*
X164588938Y-84712504D01*
X164488196Y-84873101D01*
X164471401Y-84899874D01*
X164453849Y-84943537D01*
X164409884Y-84999279D01*
X164342759Y-85022404D01*
X164273788Y-85005567D01*
X164223217Y-84950783D01*
X164167972Y-84834959D01*
X164162290Y-84825352D01*
X164036541Y-84650356D01*
X164029242Y-84641900D01*
X163874500Y-84491944D01*
X163865803Y-84484902D01*
X163686960Y-84364724D01*
X163677157Y-84359335D01*
X163479857Y-84272726D01*
X163469262Y-84269160D01*
X163339615Y-84238034D01*
X163325530Y-84238739D01*
X163322000Y-84247618D01*
X163322000Y-87709498D01*
X163326106Y-87723480D01*
X163336352Y-87725070D01*
X163338475Y-87724619D01*
X163544435Y-87661257D01*
X163554780Y-87657036D01*
X163746267Y-87558202D01*
X163755698Y-87552217D01*
X163926663Y-87421032D01*
X163934876Y-87413479D01*
X164079909Y-87254090D01*
X164086664Y-87245190D01*
X164201166Y-87062657D01*
X164206247Y-87052687D01*
X164221605Y-87014483D01*
X164265572Y-86958739D01*
X164332697Y-86935614D01*
X164401668Y-86952451D01*
X164452238Y-87007236D01*
X164478673Y-87062657D01*
X164510007Y-87128351D01*
X164513281Y-87132907D01*
X164513285Y-87132913D01*
X164555816Y-87192100D01*
X164642351Y-87312526D01*
X164706966Y-87375143D01*
X164754701Y-87421401D01*
X164805217Y-87470355D01*
X164841421Y-87494683D01*
X164988805Y-87593721D01*
X164988810Y-87593724D01*
X164993458Y-87596847D01*
X164998590Y-87599100D01*
X164998594Y-87599102D01*
X165125614Y-87654860D01*
X165201124Y-87688007D01*
X165206582Y-87689317D01*
X165206581Y-87689317D01*
X165416192Y-87739640D01*
X165416198Y-87739641D01*
X165421651Y-87740950D01*
X165534860Y-87747478D01*
X165642463Y-87753683D01*
X165642466Y-87753683D01*
X165648069Y-87754006D01*
X165873219Y-87726759D01*
X165878581Y-87725109D01*
X165878583Y-87725109D01*
X165994927Y-87689317D01*
X166089987Y-87660073D01*
X166187710Y-87609634D01*
X166257417Y-87596165D01*
X166323341Y-87622520D01*
X166364550Y-87680332D01*
X166371500Y-87721600D01*
X166371500Y-99473626D01*
X166351498Y-99541747D01*
X166297842Y-99588240D01*
X166227568Y-99598344D01*
X166194856Y-99589000D01*
X166014876Y-99509993D01*
X165961351Y-99497143D01*
X165799808Y-99458360D01*
X165799802Y-99458359D01*
X165794349Y-99457050D01*
X165681140Y-99450522D01*
X165573537Y-99444317D01*
X165573534Y-99444317D01*
X165567931Y-99443994D01*
X165342781Y-99471241D01*
X165337419Y-99472891D01*
X165337417Y-99472891D01*
X165318408Y-99478739D01*
X165126013Y-99537927D01*
X165121029Y-99540499D01*
X165121030Y-99540499D01*
X165007885Y-99598898D01*
X164924481Y-99641946D01*
X164920033Y-99645359D01*
X164909714Y-99653277D01*
X164744553Y-99780009D01*
X164690616Y-99839285D01*
X164614562Y-99922868D01*
X164591919Y-99947752D01*
X164588938Y-99952503D01*
X164588938Y-99952504D01*
X164494595Y-100102900D01*
X164471401Y-100139874D01*
X164453849Y-100183537D01*
X164409884Y-100239279D01*
X164342759Y-100262404D01*
X164273788Y-100245567D01*
X164223217Y-100190783D01*
X164167972Y-100074959D01*
X164162290Y-100065352D01*
X164036541Y-99890356D01*
X164029242Y-99881900D01*
X163874500Y-99731944D01*
X163865803Y-99724902D01*
X163686960Y-99604724D01*
X163677157Y-99599335D01*
X163479857Y-99512726D01*
X163469262Y-99509160D01*
X163339615Y-99478034D01*
X163325530Y-99478739D01*
X163322000Y-99487618D01*
X163322000Y-101347000D01*
X163301998Y-101415121D01*
X163248342Y-101461614D01*
X163196000Y-101473000D01*
X162940000Y-101473000D01*
X162871879Y-101452998D01*
X162825386Y-101399342D01*
X162814000Y-101347000D01*
X162814000Y-99488502D01*
X162809894Y-99474520D01*
X162799648Y-99472930D01*
X162797525Y-99473381D01*
X162591565Y-99536743D01*
X162581220Y-99540964D01*
X162389733Y-99639798D01*
X162380302Y-99645783D01*
X162209337Y-99776968D01*
X162201124Y-99784521D01*
X162056091Y-99943910D01*
X162049336Y-99952810D01*
X161934834Y-100135343D01*
X161929753Y-100145313D01*
X161914395Y-100183517D01*
X161870428Y-100239261D01*
X161803303Y-100262386D01*
X161734332Y-100245549D01*
X161683762Y-100190764D01*
X161628410Y-100074716D01*
X161628409Y-100074715D01*
X161625993Y-100069649D01*
X161603734Y-100038672D01*
X161496926Y-99890034D01*
X161496924Y-99890032D01*
X161493649Y-99885474D01*
X161395374Y-99790238D01*
X161334811Y-99731548D01*
X161334808Y-99731546D01*
X161330783Y-99727645D01*
X161265727Y-99683930D01*
X161147195Y-99604279D01*
X161147190Y-99604276D01*
X161142542Y-99601153D01*
X161137410Y-99598900D01*
X161137406Y-99598898D01*
X160998511Y-99537927D01*
X160934876Y-99509993D01*
X160881351Y-99497143D01*
X160719808Y-99458360D01*
X160719802Y-99458359D01*
X160714349Y-99457050D01*
X160601140Y-99450522D01*
X160493537Y-99444317D01*
X160493534Y-99444317D01*
X160487931Y-99443994D01*
X160262781Y-99471241D01*
X160257419Y-99472891D01*
X160257417Y-99472891D01*
X160238408Y-99478739D01*
X160046013Y-99537927D01*
X160041029Y-99540499D01*
X160041030Y-99540499D01*
X159927885Y-99598898D01*
X159844481Y-99641946D01*
X159840033Y-99645359D01*
X159829714Y-99653277D01*
X159664553Y-99780009D01*
X159610616Y-99839285D01*
X159534562Y-99922868D01*
X159511919Y-99947752D01*
X159508942Y-99952498D01*
X159508938Y-99952503D01*
X159491237Y-99980722D01*
X159438094Y-100027800D01*
X159367935Y-100038672D01*
X159303035Y-100009888D01*
X159264000Y-99950586D01*
X159258785Y-99915675D01*
X159258684Y-99915680D01*
X159258626Y-99914610D01*
X159258500Y-99913766D01*
X159258500Y-99908866D01*
X159251745Y-99846684D01*
X159200615Y-99710295D01*
X159113261Y-99593739D01*
X158996705Y-99506385D01*
X158860316Y-99455255D01*
X158798134Y-99448500D01*
X158747500Y-99448500D01*
X158679379Y-99428498D01*
X158632886Y-99374842D01*
X158621500Y-99322500D01*
X158621500Y-98427568D01*
X158622027Y-98416385D01*
X158623702Y-98408892D01*
X158623127Y-98390580D01*
X158621562Y-98340802D01*
X158621500Y-98336844D01*
X158621500Y-98308944D01*
X158620996Y-98304953D01*
X158620063Y-98293111D01*
X158618923Y-98256836D01*
X158618674Y-98248911D01*
X158616462Y-98241297D01*
X158616461Y-98241292D01*
X158613023Y-98229459D01*
X158609012Y-98210095D01*
X158607467Y-98197864D01*
X158606474Y-98190003D01*
X158603557Y-98182636D01*
X158603556Y-98182631D01*
X158590198Y-98148892D01*
X158586354Y-98137665D01*
X158576230Y-98102822D01*
X158574018Y-98095207D01*
X158563707Y-98077772D01*
X158555012Y-98060024D01*
X158547552Y-98041183D01*
X158521564Y-98005413D01*
X158515048Y-97995493D01*
X158496580Y-97964265D01*
X158496578Y-97964262D01*
X158492542Y-97957438D01*
X158478221Y-97943117D01*
X158465380Y-97928083D01*
X158458131Y-97918106D01*
X158453472Y-97911693D01*
X158419395Y-97883502D01*
X158410616Y-97875512D01*
X153302752Y-92767648D01*
X153268726Y-92705336D01*
X153270141Y-92645941D01*
X153285718Y-92587809D01*
X153285720Y-92587798D01*
X153287143Y-92582487D01*
X153307098Y-92354400D01*
X153287143Y-92126313D01*
X153279919Y-92099352D01*
X153229307Y-91910467D01*
X153229306Y-91910465D01*
X153227884Y-91905157D01*
X153213294Y-91873869D01*
X153133449Y-91702638D01*
X153133446Y-91702633D01*
X153131123Y-91697651D01*
X153029137Y-91552000D01*
X153002957Y-91514611D01*
X153002955Y-91514608D01*
X152999798Y-91510100D01*
X152837900Y-91348202D01*
X152833392Y-91345045D01*
X152833389Y-91345043D01*
X152746640Y-91284301D01*
X152650349Y-91216877D01*
X152645367Y-91214554D01*
X152645362Y-91214551D01*
X152447825Y-91122439D01*
X152447824Y-91122439D01*
X152442843Y-91120116D01*
X152437535Y-91118694D01*
X152437533Y-91118693D01*
X152227002Y-91062281D01*
X152227000Y-91062281D01*
X152221687Y-91060857D01*
X151993600Y-91040902D01*
X151765513Y-91060857D01*
X151760200Y-91062281D01*
X151760198Y-91062281D01*
X151549667Y-91118693D01*
X151549665Y-91118694D01*
X151544357Y-91120116D01*
X151539376Y-91122439D01*
X151539375Y-91122439D01*
X151341838Y-91214551D01*
X151341833Y-91214554D01*
X151336851Y-91216877D01*
X151240560Y-91284301D01*
X151153811Y-91345043D01*
X151153808Y-91345045D01*
X151149300Y-91348202D01*
X150987402Y-91510100D01*
X150984245Y-91514608D01*
X150984243Y-91514611D01*
X150958063Y-91552000D01*
X150856077Y-91697651D01*
X150853754Y-91702633D01*
X150853751Y-91702638D01*
X150773906Y-91873869D01*
X150759316Y-91905157D01*
X150757894Y-91910465D01*
X150757893Y-91910467D01*
X150707281Y-92099352D01*
X150700057Y-92126313D01*
X150680102Y-92354400D01*
X143147098Y-92354400D01*
X143127143Y-92126313D01*
X143119919Y-92099352D01*
X143069307Y-91910467D01*
X143069306Y-91910465D01*
X143067884Y-91905157D01*
X143053294Y-91873869D01*
X142973449Y-91702638D01*
X142973446Y-91702633D01*
X142971123Y-91697651D01*
X142869137Y-91552000D01*
X142842957Y-91514611D01*
X142842955Y-91514608D01*
X142839798Y-91510100D01*
X142677900Y-91348202D01*
X142673392Y-91345045D01*
X142673389Y-91345043D01*
X142586640Y-91284301D01*
X142490349Y-91216877D01*
X142485367Y-91214554D01*
X142485362Y-91214551D01*
X142287825Y-91122439D01*
X142287824Y-91122439D01*
X142282843Y-91120116D01*
X142277535Y-91118694D01*
X142277533Y-91118693D01*
X142067002Y-91062281D01*
X142067000Y-91062281D01*
X142061687Y-91060857D01*
X141833600Y-91040902D01*
X141605513Y-91060857D01*
X141600200Y-91062281D01*
X141600198Y-91062281D01*
X141389667Y-91118693D01*
X141389665Y-91118694D01*
X141384357Y-91120116D01*
X141379376Y-91122439D01*
X141379375Y-91122439D01*
X141181838Y-91214551D01*
X141181833Y-91214554D01*
X141176851Y-91216877D01*
X141080560Y-91284301D01*
X140993811Y-91345043D01*
X140993808Y-91345045D01*
X140989300Y-91348202D01*
X140827402Y-91510100D01*
X140824245Y-91514608D01*
X140824243Y-91514611D01*
X140717419Y-91667171D01*
X140661962Y-91711499D01*
X140614206Y-91720900D01*
X140388367Y-91720900D01*
X140377184Y-91720373D01*
X140369691Y-91718698D01*
X140361765Y-91718947D01*
X140361764Y-91718947D01*
X140301601Y-91720838D01*
X140297643Y-91720900D01*
X140269744Y-91720900D01*
X140265754Y-91721404D01*
X140253920Y-91722336D01*
X140209711Y-91723726D01*
X140202097Y-91725938D01*
X140202092Y-91725939D01*
X140190259Y-91729377D01*
X140170896Y-91733388D01*
X140150803Y-91735926D01*
X140143436Y-91738843D01*
X140143431Y-91738844D01*
X140109692Y-91752202D01*
X140098465Y-91756046D01*
X140056007Y-91768382D01*
X140049181Y-91772419D01*
X140038572Y-91778693D01*
X140020824Y-91787388D01*
X140001983Y-91794848D01*
X139995567Y-91799510D01*
X139995566Y-91799510D01*
X139966213Y-91820836D01*
X139956293Y-91827352D01*
X139925065Y-91845820D01*
X139925062Y-91845822D01*
X139918238Y-91849858D01*
X139903917Y-91864179D01*
X139888884Y-91877019D01*
X139872493Y-91888928D01*
X139846173Y-91920743D01*
X139844302Y-91923005D01*
X139836312Y-91931784D01*
X138516595Y-93251500D01*
X138454283Y-93285526D01*
X138383467Y-93280461D01*
X138326632Y-93237914D01*
X138301821Y-93171394D01*
X138301500Y-93162405D01*
X138301500Y-92465794D01*
X138321502Y-92397673D01*
X138338405Y-92376699D01*
X141369552Y-89345552D01*
X141431864Y-89311526D01*
X141491259Y-89312941D01*
X141549391Y-89328518D01*
X141549402Y-89328520D01*
X141554713Y-89329943D01*
X141782800Y-89349898D01*
X142010887Y-89329943D01*
X142016200Y-89328519D01*
X142016202Y-89328519D01*
X142226733Y-89272107D01*
X142226735Y-89272106D01*
X142232043Y-89270684D01*
X142237025Y-89268361D01*
X142434562Y-89176249D01*
X142434567Y-89176246D01*
X142439549Y-89173923D01*
X142544411Y-89100498D01*
X142622589Y-89045757D01*
X142622592Y-89045755D01*
X142627100Y-89042598D01*
X142788998Y-88880700D01*
X142829708Y-88822561D01*
X142892997Y-88732174D01*
X142920323Y-88693149D01*
X142922646Y-88688167D01*
X142922649Y-88688162D01*
X143014761Y-88490625D01*
X143014761Y-88490624D01*
X143017084Y-88485643D01*
X143019303Y-88477364D01*
X143074919Y-88269802D01*
X143074919Y-88269800D01*
X143076343Y-88264487D01*
X143096298Y-88036400D01*
X150629302Y-88036400D01*
X150649257Y-88264487D01*
X150650681Y-88269800D01*
X150650681Y-88269802D01*
X150706298Y-88477364D01*
X150708516Y-88485643D01*
X150710839Y-88490624D01*
X150710839Y-88490625D01*
X150802951Y-88688162D01*
X150802954Y-88688167D01*
X150805277Y-88693149D01*
X150832603Y-88732174D01*
X150895893Y-88822561D01*
X150936602Y-88880700D01*
X151098500Y-89042598D01*
X151103008Y-89045755D01*
X151103011Y-89045757D01*
X151181189Y-89100498D01*
X151286051Y-89173923D01*
X151291033Y-89176246D01*
X151291038Y-89176249D01*
X151488575Y-89268361D01*
X151493557Y-89270684D01*
X151498865Y-89272106D01*
X151498867Y-89272107D01*
X151709398Y-89328519D01*
X151709400Y-89328519D01*
X151714713Y-89329943D01*
X151942800Y-89349898D01*
X152170887Y-89329943D01*
X152176200Y-89328519D01*
X152176202Y-89328519D01*
X152386733Y-89272107D01*
X152386735Y-89272106D01*
X152392043Y-89270684D01*
X152397025Y-89268361D01*
X152594562Y-89176249D01*
X152594567Y-89176246D01*
X152599549Y-89173923D01*
X152704411Y-89100498D01*
X152782589Y-89045757D01*
X152782592Y-89045755D01*
X152787100Y-89042598D01*
X152948998Y-88880700D01*
X152984613Y-88829837D01*
X153058981Y-88723629D01*
X153114438Y-88679301D01*
X153162194Y-88669900D01*
X158391833Y-88669900D01*
X158403016Y-88670427D01*
X158410509Y-88672102D01*
X158418435Y-88671853D01*
X158418436Y-88671853D01*
X158478586Y-88669962D01*
X158482545Y-88669900D01*
X158510456Y-88669900D01*
X158514391Y-88669403D01*
X158514456Y-88669395D01*
X158526293Y-88668462D01*
X158558551Y-88667448D01*
X158562570Y-88667322D01*
X158570489Y-88667073D01*
X158589943Y-88661421D01*
X158609300Y-88657413D01*
X158621530Y-88655868D01*
X158621531Y-88655868D01*
X158629397Y-88654874D01*
X158636768Y-88651955D01*
X158636770Y-88651955D01*
X158670512Y-88638596D01*
X158681742Y-88634751D01*
X158716583Y-88624629D01*
X158716584Y-88624629D01*
X158724193Y-88622418D01*
X158731012Y-88618385D01*
X158731017Y-88618383D01*
X158741628Y-88612107D01*
X158759376Y-88603412D01*
X158778217Y-88595952D01*
X158813987Y-88569964D01*
X158823907Y-88563448D01*
X158855135Y-88544980D01*
X158855138Y-88544978D01*
X158861962Y-88540942D01*
X158876283Y-88526621D01*
X158891317Y-88513780D01*
X158901294Y-88506531D01*
X158907707Y-88501872D01*
X158935898Y-88467795D01*
X158943888Y-88459016D01*
X159777930Y-87624974D01*
X159840242Y-87590948D01*
X159917670Y-87598696D01*
X160121124Y-87688007D01*
X160126582Y-87689317D01*
X160126581Y-87689317D01*
X160336192Y-87739640D01*
X160336198Y-87739641D01*
X160341651Y-87740950D01*
X160454860Y-87747478D01*
X160562463Y-87753683D01*
X160562466Y-87753683D01*
X160568069Y-87754006D01*
X160793219Y-87726759D01*
X160798581Y-87725109D01*
X160798583Y-87725109D01*
X161001451Y-87662699D01*
X161072442Y-87661787D01*
X161132656Y-87699400D01*
X161162977Y-87763596D01*
X161164500Y-87783129D01*
X161164500Y-96071476D01*
X161144498Y-96139597D01*
X161132142Y-96155779D01*
X161058960Y-96237056D01*
X160963473Y-96402444D01*
X160904458Y-96584072D01*
X160903768Y-96590633D01*
X160903768Y-96590635D01*
X160889642Y-96725039D01*
X160884496Y-96774000D01*
X160885186Y-96780565D01*
X160901357Y-96934419D01*
X160904458Y-96963928D01*
X160963473Y-97145556D01*
X160966776Y-97151278D01*
X160966777Y-97151279D01*
X160976876Y-97168770D01*
X161058960Y-97310944D01*
X161063378Y-97315851D01*
X161063379Y-97315852D01*
X161163909Y-97427502D01*
X161186747Y-97452866D01*
X161236140Y-97488752D01*
X161305965Y-97539483D01*
X161341248Y-97565118D01*
X161347276Y-97567802D01*
X161347278Y-97567803D01*
X161403207Y-97592704D01*
X161515712Y-97642794D01*
X161595949Y-97659849D01*
X161696056Y-97681128D01*
X161696061Y-97681128D01*
X161702513Y-97682500D01*
X161893487Y-97682500D01*
X161899939Y-97681128D01*
X161899944Y-97681128D01*
X162000051Y-97659849D01*
X162080288Y-97642794D01*
X162192793Y-97592704D01*
X162248722Y-97567803D01*
X162248724Y-97567802D01*
X162254752Y-97565118D01*
X162290036Y-97539483D01*
X162359860Y-97488752D01*
X162409253Y-97452866D01*
X162432091Y-97427502D01*
X162532621Y-97315852D01*
X162532622Y-97315851D01*
X162537040Y-97310944D01*
X162619124Y-97168770D01*
X162629223Y-97151279D01*
X162629224Y-97151278D01*
X162632527Y-97145556D01*
X162691542Y-96963928D01*
X162694644Y-96934419D01*
X162710814Y-96780565D01*
X162711504Y-96774000D01*
X162706358Y-96725039D01*
X162692232Y-96590635D01*
X162692232Y-96590633D01*
X162691542Y-96584072D01*
X162632527Y-96402444D01*
X162537040Y-96237056D01*
X162463863Y-96155785D01*
X162433147Y-96091779D01*
X162431500Y-96071476D01*
X162431500Y-87779578D01*
X162451502Y-87711457D01*
X162505158Y-87664964D01*
X162575432Y-87654860D01*
X162608145Y-87664204D01*
X162656152Y-87685277D01*
X162666738Y-87688840D01*
X162796385Y-87719966D01*
X162810470Y-87719261D01*
X162814000Y-87710382D01*
X162814000Y-84248502D01*
X162809894Y-84234520D01*
X162799648Y-84232930D01*
X162797525Y-84233381D01*
X162591565Y-84296743D01*
X162581220Y-84300964D01*
X162389733Y-84399798D01*
X162380300Y-84405785D01*
X162363477Y-84418693D01*
X162297256Y-84444292D01*
X162227708Y-84430026D01*
X162197680Y-84407824D01*
X159772885Y-81983028D01*
X157331404Y-79541547D01*
X157323864Y-79533261D01*
X157319752Y-79526782D01*
X157270100Y-79480156D01*
X157267259Y-79477402D01*
X157247522Y-79457665D01*
X157244325Y-79455185D01*
X157235303Y-79447480D01*
X157231149Y-79443579D01*
X157203073Y-79417214D01*
X157196127Y-79413395D01*
X157196124Y-79413393D01*
X157185318Y-79407452D01*
X157168799Y-79396601D01*
X157168335Y-79396241D01*
X157152793Y-79384186D01*
X157145524Y-79381041D01*
X157145520Y-79381038D01*
X157112215Y-79366626D01*
X157101565Y-79361409D01*
X157062812Y-79340105D01*
X157043189Y-79335067D01*
X157024486Y-79328663D01*
X157013172Y-79323767D01*
X157013171Y-79323767D01*
X157005897Y-79320619D01*
X156998074Y-79319380D01*
X156998064Y-79319377D01*
X156962228Y-79313701D01*
X156950608Y-79311295D01*
X156915463Y-79302272D01*
X156915462Y-79302272D01*
X156907782Y-79300300D01*
X156887528Y-79300300D01*
X156867817Y-79298749D01*
X156855638Y-79296820D01*
X156847809Y-79295580D01*
X156818538Y-79298347D01*
X156803791Y-79299741D01*
X156791933Y-79300300D01*
X153263794Y-79300300D01*
X153195673Y-79280298D01*
X153160581Y-79246571D01*
X153053757Y-79094011D01*
X153053755Y-79094008D01*
X153050598Y-79089500D01*
X152888700Y-78927602D01*
X152884192Y-78924445D01*
X152884189Y-78924443D01*
X152719686Y-78809257D01*
X152701149Y-78796277D01*
X152696167Y-78793954D01*
X152696162Y-78793951D01*
X152498625Y-78701839D01*
X152498624Y-78701839D01*
X152493643Y-78699516D01*
X152488335Y-78698094D01*
X152488333Y-78698093D01*
X152277802Y-78641681D01*
X152277800Y-78641681D01*
X152272487Y-78640257D01*
X152044400Y-78620302D01*
X151816313Y-78640257D01*
X151811000Y-78641681D01*
X151810998Y-78641681D01*
X151600467Y-78698093D01*
X151600465Y-78698094D01*
X151595157Y-78699516D01*
X151590176Y-78701839D01*
X151590175Y-78701839D01*
X151392638Y-78793951D01*
X151392633Y-78793954D01*
X151387651Y-78796277D01*
X151369114Y-78809257D01*
X151204611Y-78924443D01*
X151204608Y-78924445D01*
X151200100Y-78927602D01*
X151038202Y-79089500D01*
X151035045Y-79094008D01*
X151035043Y-79094011D01*
X151001612Y-79141756D01*
X150906877Y-79277051D01*
X150904554Y-79282033D01*
X150904551Y-79282038D01*
X150817684Y-79468328D01*
X150810116Y-79484557D01*
X150750857Y-79705713D01*
X150730902Y-79933800D01*
X150750857Y-80161887D01*
X150752281Y-80167200D01*
X150752281Y-80167202D01*
X150800643Y-80347688D01*
X150810116Y-80383043D01*
X150812439Y-80388024D01*
X150812439Y-80388025D01*
X150904551Y-80585562D01*
X150904554Y-80585567D01*
X150906877Y-80590549D01*
X151038202Y-80778100D01*
X151200100Y-80939998D01*
X151204608Y-80943155D01*
X151204611Y-80943157D01*
X151282789Y-80997898D01*
X151387651Y-81071323D01*
X151392633Y-81073646D01*
X151392638Y-81073649D01*
X151590175Y-81165761D01*
X151595157Y-81168084D01*
X151600465Y-81169506D01*
X151600467Y-81169507D01*
X151810998Y-81225919D01*
X151811000Y-81225919D01*
X151816313Y-81227343D01*
X152044400Y-81247298D01*
X152272487Y-81227343D01*
X152277800Y-81225919D01*
X152277802Y-81225919D01*
X152488333Y-81169507D01*
X152488335Y-81169506D01*
X152493643Y-81168084D01*
X152498625Y-81165761D01*
X152696162Y-81073649D01*
X152696167Y-81073646D01*
X152701149Y-81071323D01*
X152806011Y-80997898D01*
X152884189Y-80943157D01*
X152884192Y-80943155D01*
X152888700Y-80939998D01*
X153050598Y-80778100D01*
X153152344Y-80632792D01*
X153160581Y-80621029D01*
X153216038Y-80576701D01*
X153263794Y-80567300D01*
X156513158Y-80567300D01*
X156581279Y-80587302D01*
X156602253Y-80604205D01*
X160089814Y-84091767D01*
X160123840Y-84154079D01*
X160118775Y-84224895D01*
X160076228Y-84281730D01*
X160049510Y-84296851D01*
X160046013Y-84297927D01*
X160041029Y-84300499D01*
X160041030Y-84300499D01*
X159927885Y-84358898D01*
X159844481Y-84401946D01*
X159664553Y-84540009D01*
X159613213Y-84596431D01*
X159571840Y-84641900D01*
X159511919Y-84707752D01*
X159508938Y-84712503D01*
X159508938Y-84712504D01*
X159408196Y-84873101D01*
X159391401Y-84899874D01*
X159374103Y-84942905D01*
X159330136Y-84998649D01*
X159263011Y-85021774D01*
X159194040Y-85004937D01*
X159143470Y-84950152D01*
X159088410Y-84834716D01*
X159088409Y-84834715D01*
X159085993Y-84829649D01*
X159067676Y-84804158D01*
X158956926Y-84650034D01*
X158956924Y-84650032D01*
X158953649Y-84645474D01*
X158861171Y-84555856D01*
X158794811Y-84491548D01*
X158794808Y-84491546D01*
X158790783Y-84487645D01*
X158712395Y-84434971D01*
X158607195Y-84364279D01*
X158607190Y-84364276D01*
X158602542Y-84361153D01*
X158597410Y-84358900D01*
X158597406Y-84358898D01*
X158457590Y-84297523D01*
X158394876Y-84269993D01*
X158361122Y-84261890D01*
X158179808Y-84218360D01*
X158179802Y-84218359D01*
X158174349Y-84217050D01*
X158061140Y-84210522D01*
X157953537Y-84204317D01*
X157953534Y-84204317D01*
X157947931Y-84203994D01*
X157722781Y-84231241D01*
X157717419Y-84232891D01*
X157717417Y-84232891D01*
X157698408Y-84238739D01*
X157506013Y-84297927D01*
X157387885Y-84358898D01*
X157387840Y-84358921D01*
X157318133Y-84372390D01*
X157252209Y-84346035D01*
X157240955Y-84336050D01*
X156383452Y-83478547D01*
X156375912Y-83470261D01*
X156371800Y-83463782D01*
X156322148Y-83417156D01*
X156319307Y-83414402D01*
X156299570Y-83394665D01*
X156296373Y-83392185D01*
X156287351Y-83384480D01*
X156260900Y-83359641D01*
X156255121Y-83354214D01*
X156248175Y-83350395D01*
X156248172Y-83350393D01*
X156237366Y-83344452D01*
X156220847Y-83333601D01*
X156220383Y-83333241D01*
X156204841Y-83321186D01*
X156197572Y-83318041D01*
X156197568Y-83318038D01*
X156164263Y-83303626D01*
X156153613Y-83298409D01*
X156114860Y-83277105D01*
X156095237Y-83272067D01*
X156076534Y-83265663D01*
X156065220Y-83260767D01*
X156065219Y-83260767D01*
X156057945Y-83257619D01*
X156050122Y-83256380D01*
X156050112Y-83256377D01*
X156014276Y-83250701D01*
X156002656Y-83248295D01*
X155967511Y-83239272D01*
X155967510Y-83239272D01*
X155959830Y-83237300D01*
X155939576Y-83237300D01*
X155919865Y-83235749D01*
X155907686Y-83233820D01*
X155899857Y-83232580D01*
X155891965Y-83233326D01*
X155855839Y-83236741D01*
X155843981Y-83237300D01*
X153212994Y-83237300D01*
X153144873Y-83217298D01*
X153109781Y-83183571D01*
X153002957Y-83031011D01*
X153002955Y-83031008D01*
X152999798Y-83026500D01*
X152837900Y-82864602D01*
X152833392Y-82861445D01*
X152833389Y-82861443D01*
X152750997Y-82803752D01*
X152650349Y-82733277D01*
X152645367Y-82730954D01*
X152645362Y-82730951D01*
X152447825Y-82638839D01*
X152447824Y-82638839D01*
X152442843Y-82636516D01*
X152437535Y-82635094D01*
X152437533Y-82635093D01*
X152227002Y-82578681D01*
X152227000Y-82578681D01*
X152221687Y-82577257D01*
X151993600Y-82557302D01*
X151765513Y-82577257D01*
X151760200Y-82578681D01*
X151760198Y-82578681D01*
X151549667Y-82635093D01*
X151549665Y-82635094D01*
X151544357Y-82636516D01*
X151539376Y-82638839D01*
X151539375Y-82638839D01*
X151341838Y-82730951D01*
X151341833Y-82730954D01*
X151336851Y-82733277D01*
X151236203Y-82803752D01*
X151153811Y-82861443D01*
X151153808Y-82861445D01*
X151149300Y-82864602D01*
X150987402Y-83026500D01*
X150856077Y-83214051D01*
X150853754Y-83219033D01*
X150853751Y-83219038D01*
X150773009Y-83392192D01*
X150759316Y-83421557D01*
X150700057Y-83642713D01*
X150680102Y-83870800D01*
X150700057Y-84098887D01*
X150701481Y-84104200D01*
X150701481Y-84104202D01*
X150740147Y-84248502D01*
X150759316Y-84320043D01*
X150761639Y-84325024D01*
X150761639Y-84325025D01*
X150853751Y-84522562D01*
X150853754Y-84522567D01*
X150856077Y-84527549D01*
X150987402Y-84715100D01*
X151149300Y-84876998D01*
X151153808Y-84880155D01*
X151153811Y-84880157D01*
X151189405Y-84905080D01*
X151336851Y-85008323D01*
X151341833Y-85010646D01*
X151341838Y-85010649D01*
X151512425Y-85090194D01*
X151544357Y-85105084D01*
X151549665Y-85106506D01*
X151549667Y-85106507D01*
X151760198Y-85162919D01*
X151760200Y-85162919D01*
X151765513Y-85164343D01*
X151993600Y-85184298D01*
X152221687Y-85164343D01*
X152227000Y-85162919D01*
X152227002Y-85162919D01*
X152437533Y-85106507D01*
X152437535Y-85106506D01*
X152442843Y-85105084D01*
X152474775Y-85090194D01*
X152645362Y-85010649D01*
X152645367Y-85010646D01*
X152650349Y-85008323D01*
X152797795Y-84905080D01*
X152833389Y-84880157D01*
X152833392Y-84880155D01*
X152837900Y-84876998D01*
X152999798Y-84715100D01*
X153045063Y-84650455D01*
X153109781Y-84558029D01*
X153165238Y-84513701D01*
X153212994Y-84504300D01*
X155565206Y-84504300D01*
X155633327Y-84524302D01*
X155654301Y-84541205D01*
X156680595Y-85567500D01*
X156714621Y-85629812D01*
X156717500Y-85656595D01*
X156717500Y-86536535D01*
X156732526Y-86704895D01*
X156792370Y-86923651D01*
X156794782Y-86928709D01*
X156794784Y-86928713D01*
X156858780Y-87062882D01*
X156890007Y-87128351D01*
X156943918Y-87203375D01*
X156967425Y-87270365D01*
X156950983Y-87339431D01*
X156899811Y-87388645D01*
X156841595Y-87402900D01*
X153162194Y-87402900D01*
X153094073Y-87382898D01*
X153058981Y-87349171D01*
X152952157Y-87196611D01*
X152952155Y-87196608D01*
X152948998Y-87192100D01*
X152787100Y-87030202D01*
X152782592Y-87027045D01*
X152782589Y-87027043D01*
X152704411Y-86972302D01*
X152599549Y-86898877D01*
X152594567Y-86896554D01*
X152594562Y-86896551D01*
X152397025Y-86804439D01*
X152397024Y-86804439D01*
X152392043Y-86802116D01*
X152386735Y-86800694D01*
X152386733Y-86800693D01*
X152176202Y-86744281D01*
X152176200Y-86744281D01*
X152170887Y-86742857D01*
X151942800Y-86722902D01*
X151714713Y-86742857D01*
X151709400Y-86744281D01*
X151709398Y-86744281D01*
X151498867Y-86800693D01*
X151498865Y-86800694D01*
X151493557Y-86802116D01*
X151488576Y-86804439D01*
X151488575Y-86804439D01*
X151291038Y-86896551D01*
X151291033Y-86896554D01*
X151286051Y-86898877D01*
X151181189Y-86972302D01*
X151103011Y-87027043D01*
X151103008Y-87027045D01*
X151098500Y-87030202D01*
X150936602Y-87192100D01*
X150933445Y-87196608D01*
X150933443Y-87196611D01*
X150895886Y-87250248D01*
X150805277Y-87379651D01*
X150802954Y-87384633D01*
X150802951Y-87384638D01*
X150723019Y-87556054D01*
X150708516Y-87587157D01*
X150707094Y-87592465D01*
X150707093Y-87592467D01*
X150656005Y-87783129D01*
X150649257Y-87808313D01*
X150629302Y-88036400D01*
X143096298Y-88036400D01*
X143076343Y-87808313D01*
X143069595Y-87783129D01*
X143018507Y-87592467D01*
X143018506Y-87592465D01*
X143017084Y-87587157D01*
X143002581Y-87556054D01*
X142922649Y-87384638D01*
X142922646Y-87384633D01*
X142920323Y-87379651D01*
X142829714Y-87250248D01*
X142792157Y-87196611D01*
X142792155Y-87196608D01*
X142788998Y-87192100D01*
X142627100Y-87030202D01*
X142622592Y-87027045D01*
X142622589Y-87027043D01*
X142544411Y-86972302D01*
X142439549Y-86898877D01*
X142434567Y-86896554D01*
X142434562Y-86896551D01*
X142237025Y-86804439D01*
X142237024Y-86804439D01*
X142232043Y-86802116D01*
X142226736Y-86800694D01*
X142226725Y-86800690D01*
X142105879Y-86768309D01*
X142045257Y-86731358D01*
X142014235Y-86667497D01*
X142022664Y-86597002D01*
X142049396Y-86557508D01*
X142225847Y-86381057D01*
X142234137Y-86373513D01*
X142240618Y-86369400D01*
X142287259Y-86319732D01*
X142290013Y-86316891D01*
X142309735Y-86297169D01*
X142312212Y-86293976D01*
X142319917Y-86284955D01*
X142344759Y-86258500D01*
X142350186Y-86252721D01*
X142354007Y-86245771D01*
X142359946Y-86234968D01*
X142370802Y-86218441D01*
X142378357Y-86208702D01*
X142378358Y-86208700D01*
X142383214Y-86202440D01*
X142400774Y-86161860D01*
X142405991Y-86151212D01*
X142423475Y-86119409D01*
X142423476Y-86119407D01*
X142427295Y-86112460D01*
X142432333Y-86092837D01*
X142438737Y-86074134D01*
X142443633Y-86062820D01*
X142443633Y-86062819D01*
X142446781Y-86055545D01*
X142448020Y-86047722D01*
X142448023Y-86047712D01*
X142453699Y-86011876D01*
X142456105Y-86000256D01*
X142465128Y-85965111D01*
X142465128Y-85965110D01*
X142467100Y-85957430D01*
X142467100Y-85937176D01*
X142468651Y-85917465D01*
X142470580Y-85905286D01*
X142471820Y-85897457D01*
X142467659Y-85853438D01*
X142467100Y-85841581D01*
X142467100Y-85090194D01*
X142487102Y-85022073D01*
X142520829Y-84986981D01*
X142673389Y-84880157D01*
X142673392Y-84880155D01*
X142677900Y-84876998D01*
X142839798Y-84715100D01*
X142971123Y-84527549D01*
X142973446Y-84522567D01*
X142973449Y-84522562D01*
X143065561Y-84325025D01*
X143065561Y-84325024D01*
X143067884Y-84320043D01*
X143087054Y-84248502D01*
X143125719Y-84104202D01*
X143125719Y-84104200D01*
X143127143Y-84098887D01*
X143147098Y-83870800D01*
X143127143Y-83642713D01*
X143067884Y-83421557D01*
X143054191Y-83392192D01*
X142973449Y-83219038D01*
X142973446Y-83219033D01*
X142971123Y-83214051D01*
X142839798Y-83026500D01*
X142677900Y-82864602D01*
X142673392Y-82861445D01*
X142673389Y-82861443D01*
X142590997Y-82803752D01*
X142490349Y-82733277D01*
X142485367Y-82730954D01*
X142485362Y-82730951D01*
X142287825Y-82638839D01*
X142287824Y-82638839D01*
X142282843Y-82636516D01*
X142277535Y-82635094D01*
X142277533Y-82635093D01*
X142067002Y-82578681D01*
X142067000Y-82578681D01*
X142061687Y-82577257D01*
X141833600Y-82557302D01*
X141605513Y-82577257D01*
X141600200Y-82578681D01*
X141600198Y-82578681D01*
X141389667Y-82635093D01*
X141389665Y-82635094D01*
X141384357Y-82636516D01*
X141379376Y-82638839D01*
X141379375Y-82638839D01*
X141181838Y-82730951D01*
X141181833Y-82730954D01*
X141176851Y-82733277D01*
X141076203Y-82803752D01*
X140993811Y-82861443D01*
X140993808Y-82861445D01*
X140989300Y-82864602D01*
X140827402Y-83026500D01*
X140696077Y-83214051D01*
X140693754Y-83219033D01*
X140693751Y-83219038D01*
X140613009Y-83392192D01*
X140599316Y-83421557D01*
X140540057Y-83642713D01*
X140520102Y-83870800D01*
X140540057Y-84098887D01*
X140541481Y-84104200D01*
X140541481Y-84104202D01*
X140580147Y-84248502D01*
X140599316Y-84320043D01*
X140601639Y-84325024D01*
X140601639Y-84325025D01*
X140693751Y-84522562D01*
X140693754Y-84522567D01*
X140696077Y-84527549D01*
X140827402Y-84715100D01*
X140989300Y-84876998D01*
X140993808Y-84880155D01*
X140993811Y-84880157D01*
X141146371Y-84986981D01*
X141190699Y-85042438D01*
X141200100Y-85090194D01*
X141200100Y-85562806D01*
X141180098Y-85630927D01*
X141163195Y-85651901D01*
X137191106Y-89623989D01*
X137128794Y-89658015D01*
X137057978Y-89652950D01*
X137001143Y-89610403D01*
X136976332Y-89543883D01*
X136976011Y-89534894D01*
X136976011Y-88762083D01*
X136996013Y-88693962D01*
X137012916Y-88672988D01*
X139965247Y-85720657D01*
X139973537Y-85713113D01*
X139980018Y-85709000D01*
X140026659Y-85659332D01*
X140029413Y-85656491D01*
X140049134Y-85636770D01*
X140051612Y-85633575D01*
X140059318Y-85624553D01*
X140084158Y-85598101D01*
X140089586Y-85592321D01*
X140099346Y-85574568D01*
X140110199Y-85558045D01*
X140117753Y-85548306D01*
X140122613Y-85542041D01*
X140140176Y-85501457D01*
X140145383Y-85490827D01*
X140166695Y-85452060D01*
X140168666Y-85444383D01*
X140168668Y-85444378D01*
X140171732Y-85432442D01*
X140178138Y-85413730D01*
X140183034Y-85402417D01*
X140186181Y-85395145D01*
X140193097Y-85351481D01*
X140195504Y-85339860D01*
X140204528Y-85304711D01*
X140204528Y-85304710D01*
X140206500Y-85297030D01*
X140206500Y-85276769D01*
X140208051Y-85257058D01*
X140209536Y-85247686D01*
X140211219Y-85237057D01*
X140207059Y-85193046D01*
X140206500Y-85181189D01*
X140206500Y-80832594D01*
X140226502Y-80764473D01*
X140243405Y-80743499D01*
X140382699Y-80604205D01*
X140445011Y-80570179D01*
X140471794Y-80567300D01*
X140665006Y-80567300D01*
X140733127Y-80587302D01*
X140768219Y-80621029D01*
X140776456Y-80632792D01*
X140878202Y-80778100D01*
X141040100Y-80939998D01*
X141044608Y-80943155D01*
X141044611Y-80943157D01*
X141122789Y-80997898D01*
X141227651Y-81071323D01*
X141232633Y-81073646D01*
X141232638Y-81073649D01*
X141430175Y-81165761D01*
X141435157Y-81168084D01*
X141440465Y-81169506D01*
X141440467Y-81169507D01*
X141650998Y-81225919D01*
X141651000Y-81225919D01*
X141656313Y-81227343D01*
X141884400Y-81247298D01*
X142112487Y-81227343D01*
X142117800Y-81225919D01*
X142117802Y-81225919D01*
X142328333Y-81169507D01*
X142328335Y-81169506D01*
X142333643Y-81168084D01*
X142338625Y-81165761D01*
X142536162Y-81073649D01*
X142536167Y-81073646D01*
X142541149Y-81071323D01*
X142646011Y-80997898D01*
X142724189Y-80943157D01*
X142724192Y-80943155D01*
X142728700Y-80939998D01*
X142890598Y-80778100D01*
X143021923Y-80590549D01*
X143024246Y-80585567D01*
X143024249Y-80585562D01*
X143116361Y-80388025D01*
X143116361Y-80388024D01*
X143118684Y-80383043D01*
X143128158Y-80347688D01*
X143176519Y-80167202D01*
X143176519Y-80167200D01*
X143177943Y-80161887D01*
X143197898Y-79933800D01*
X143177943Y-79705713D01*
X143118684Y-79484557D01*
X143111116Y-79468328D01*
X143024249Y-79282038D01*
X143024246Y-79282033D01*
X143021923Y-79277051D01*
X142927188Y-79141756D01*
X142893757Y-79094011D01*
X142893755Y-79094008D01*
X142890598Y-79089500D01*
X142728700Y-78927602D01*
X142724192Y-78924445D01*
X142724189Y-78924443D01*
X142559686Y-78809257D01*
X142541149Y-78796277D01*
X142536167Y-78793954D01*
X142536162Y-78793951D01*
X142338625Y-78701839D01*
X142338624Y-78701839D01*
X142333643Y-78699516D01*
X142328335Y-78698094D01*
X142328333Y-78698093D01*
X142117802Y-78641681D01*
X142117800Y-78641681D01*
X142112487Y-78640257D01*
X141884400Y-78620302D01*
X141656313Y-78640257D01*
X141651000Y-78641681D01*
X141650998Y-78641681D01*
X141440467Y-78698093D01*
X141440465Y-78698094D01*
X141435157Y-78699516D01*
X141430176Y-78701839D01*
X141430175Y-78701839D01*
X141232638Y-78793951D01*
X141232633Y-78793954D01*
X141227651Y-78796277D01*
X141209114Y-78809257D01*
X141044611Y-78924443D01*
X141044608Y-78924445D01*
X141040100Y-78927602D01*
X140878202Y-79089500D01*
X140875045Y-79094008D01*
X140875043Y-79094011D01*
X140768219Y-79246571D01*
X140712762Y-79290899D01*
X140665006Y-79300300D01*
X140235968Y-79300300D01*
X140224785Y-79299773D01*
X140217292Y-79298098D01*
X140209366Y-79298347D01*
X140209365Y-79298347D01*
X140149202Y-79300238D01*
X140145244Y-79300300D01*
X140117344Y-79300300D01*
X140113354Y-79300804D01*
X140101520Y-79301736D01*
X140057311Y-79303126D01*
X140049695Y-79305339D01*
X140049693Y-79305339D01*
X140037852Y-79308779D01*
X140018493Y-79312788D01*
X140017183Y-79312954D01*
X139998403Y-79315326D01*
X139991037Y-79318242D01*
X139991031Y-79318244D01*
X139957298Y-79331600D01*
X139946068Y-79335445D01*
X139930028Y-79340105D01*
X139903607Y-79347781D01*
X139896784Y-79351816D01*
X139886166Y-79358095D01*
X139868413Y-79366792D01*
X139860768Y-79369819D01*
X139849583Y-79374248D01*
X139835905Y-79384186D01*
X139813812Y-79400237D01*
X139803895Y-79406751D01*
X139765838Y-79429258D01*
X139751517Y-79443579D01*
X139736484Y-79456419D01*
X139720093Y-79468328D01*
X139693716Y-79500213D01*
X139691912Y-79502393D01*
X139683922Y-79511174D01*
X139180742Y-80014353D01*
X139172463Y-80021887D01*
X139165982Y-80026000D01*
X139153646Y-80039137D01*
X139119357Y-80075651D01*
X139116602Y-80078493D01*
X139096865Y-80098230D01*
X139094385Y-80101427D01*
X139086682Y-80110447D01*
X139056414Y-80142679D01*
X139052595Y-80149625D01*
X139052593Y-80149628D01*
X139046652Y-80160434D01*
X139035801Y-80176953D01*
X139023386Y-80192959D01*
X139020241Y-80200228D01*
X139020238Y-80200232D01*
X139005826Y-80233537D01*
X139000609Y-80244187D01*
X138979305Y-80282940D01*
X138977334Y-80290615D01*
X138977334Y-80290616D01*
X138974267Y-80302562D01*
X138967863Y-80321266D01*
X138959819Y-80339855D01*
X138958580Y-80347678D01*
X138958577Y-80347688D01*
X138952901Y-80383524D01*
X138950495Y-80395144D01*
X138939500Y-80437970D01*
X138939500Y-80458224D01*
X138937949Y-80477934D01*
X138934780Y-80497943D01*
X138935526Y-80505835D01*
X138938941Y-80541961D01*
X138939500Y-80553819D01*
X138939500Y-84902405D01*
X138919498Y-84970526D01*
X138902595Y-84991500D01*
X135950258Y-87943837D01*
X135941972Y-87951377D01*
X135935493Y-87955489D01*
X135930068Y-87961266D01*
X135888868Y-88005140D01*
X135886113Y-88007982D01*
X135866376Y-88027719D01*
X135863896Y-88030916D01*
X135856193Y-88039936D01*
X135825925Y-88072168D01*
X135822106Y-88079114D01*
X135822104Y-88079117D01*
X135816163Y-88089923D01*
X135805312Y-88106442D01*
X135792897Y-88122448D01*
X135789752Y-88129717D01*
X135789749Y-88129721D01*
X135775337Y-88163026D01*
X135770120Y-88173676D01*
X135748816Y-88212429D01*
X135746845Y-88220104D01*
X135746845Y-88220105D01*
X135743778Y-88232051D01*
X135737374Y-88250755D01*
X135734100Y-88258322D01*
X135729330Y-88269344D01*
X135728091Y-88277167D01*
X135728088Y-88277177D01*
X135722412Y-88313013D01*
X135720006Y-88324633D01*
X135709011Y-88367459D01*
X135709011Y-88387713D01*
X135707460Y-88407423D01*
X135704291Y-88427432D01*
X135705037Y-88435324D01*
X135708452Y-88471450D01*
X135709011Y-88483308D01*
X135709011Y-88921496D01*
X135689009Y-88989617D01*
X135635353Y-89036110D01*
X135565079Y-89046214D01*
X135550400Y-89043203D01*
X135548143Y-89042598D01*
X135397395Y-89002205D01*
X135351402Y-88989881D01*
X135351400Y-88989881D01*
X135346087Y-88988457D01*
X135118000Y-88968502D01*
X134889913Y-88988457D01*
X134884600Y-88989881D01*
X134884598Y-88989881D01*
X134674067Y-89046293D01*
X134674065Y-89046294D01*
X134668757Y-89047716D01*
X134663776Y-89050039D01*
X134663775Y-89050039D01*
X134466238Y-89142151D01*
X134466233Y-89142154D01*
X134461251Y-89144477D01*
X134423707Y-89170766D01*
X134278211Y-89272643D01*
X134278208Y-89272645D01*
X134273700Y-89275802D01*
X134111802Y-89437700D01*
X133980477Y-89625251D01*
X133978154Y-89630233D01*
X133978151Y-89630238D01*
X133937225Y-89718006D01*
X133883716Y-89832757D01*
X133882294Y-89838065D01*
X133882293Y-89838067D01*
X133825881Y-90048598D01*
X133824457Y-90053913D01*
X133804502Y-90282000D01*
X133824457Y-90510087D01*
X133883716Y-90731243D01*
X133886039Y-90736224D01*
X133886039Y-90736225D01*
X133978151Y-90933762D01*
X133978154Y-90933767D01*
X133980477Y-90938749D01*
X133983634Y-90943257D01*
X134106476Y-91118693D01*
X134111802Y-91126300D01*
X134273700Y-91288198D01*
X134278208Y-91291355D01*
X134278211Y-91291357D01*
X134354883Y-91345043D01*
X134461251Y-91419523D01*
X134466233Y-91421846D01*
X134466238Y-91421849D01*
X134500457Y-91437805D01*
X134553742Y-91484722D01*
X134573203Y-91552999D01*
X134552661Y-91620959D01*
X134500457Y-91666195D01*
X134466238Y-91682151D01*
X134466233Y-91682154D01*
X134461251Y-91684477D01*
X134383607Y-91738844D01*
X134278211Y-91812643D01*
X134278208Y-91812645D01*
X134273700Y-91815802D01*
X134111802Y-91977700D01*
X134108645Y-91982208D01*
X134108643Y-91982211D01*
X134070848Y-92036188D01*
X133980477Y-92165251D01*
X133978154Y-92170233D01*
X133978151Y-92170238D01*
X133920099Y-92294733D01*
X133883716Y-92372757D01*
X133882294Y-92378065D01*
X133882293Y-92378067D01*
X133825881Y-92588598D01*
X133824457Y-92593913D01*
X133804502Y-92822000D01*
X133824457Y-93050087D01*
X133825881Y-93055400D01*
X133825881Y-93055402D01*
X133828937Y-93066805D01*
X133883716Y-93271243D01*
X133886039Y-93276224D01*
X133886039Y-93276225D01*
X133978151Y-93473762D01*
X133978154Y-93473767D01*
X133980477Y-93478749D01*
X134029556Y-93548841D01*
X134099284Y-93648422D01*
X134111802Y-93666300D01*
X134273700Y-93828198D01*
X134278208Y-93831355D01*
X134278211Y-93831357D01*
X134282697Y-93834498D01*
X134461251Y-93959523D01*
X134466233Y-93961846D01*
X134466238Y-93961849D01*
X134500457Y-93977805D01*
X134553742Y-94024722D01*
X134573203Y-94092999D01*
X134552661Y-94160959D01*
X134500457Y-94206195D01*
X134466238Y-94222151D01*
X134466233Y-94222154D01*
X134461251Y-94224477D01*
X134356389Y-94297902D01*
X134278211Y-94352643D01*
X134278208Y-94352645D01*
X134273700Y-94355802D01*
X134111802Y-94517700D01*
X133980477Y-94705251D01*
X133978154Y-94710233D01*
X133978151Y-94710238D01*
X133886039Y-94907775D01*
X133883716Y-94912757D01*
X133882294Y-94918065D01*
X133882293Y-94918067D01*
X133828474Y-95118922D01*
X133824457Y-95133913D01*
X133804502Y-95362000D01*
X133824457Y-95590087D01*
X133883716Y-95811243D01*
X133886039Y-95816224D01*
X133886039Y-95816225D01*
X133978151Y-96013762D01*
X133978154Y-96013767D01*
X133980477Y-96018749D01*
X134111802Y-96206300D01*
X134273700Y-96368198D01*
X134278208Y-96371355D01*
X134278211Y-96371357D01*
X134314435Y-96396721D01*
X134461251Y-96499523D01*
X134466233Y-96501846D01*
X134466238Y-96501849D01*
X134500457Y-96517805D01*
X134553742Y-96564722D01*
X134573203Y-96632999D01*
X134552661Y-96700959D01*
X134500457Y-96746195D01*
X134466238Y-96762151D01*
X134466233Y-96762154D01*
X134461251Y-96764477D01*
X134426136Y-96789065D01*
X134278211Y-96892643D01*
X134278208Y-96892645D01*
X134273700Y-96895802D01*
X134111802Y-97057700D01*
X134108645Y-97062208D01*
X134108643Y-97062211D01*
X134083669Y-97097878D01*
X133980477Y-97245251D01*
X133978154Y-97250233D01*
X133978151Y-97250238D01*
X133886039Y-97447775D01*
X133883716Y-97452757D01*
X133882294Y-97458065D01*
X133882293Y-97458067D01*
X133828849Y-97657523D01*
X133824457Y-97673913D01*
X133804502Y-97902000D01*
X133824457Y-98130087D01*
X133825881Y-98135400D01*
X133825881Y-98135402D01*
X133880646Y-98339784D01*
X133883716Y-98351243D01*
X133886039Y-98356224D01*
X133886039Y-98356225D01*
X133978151Y-98553762D01*
X133978154Y-98553767D01*
X133980477Y-98558749D01*
X134111802Y-98746300D01*
X134273700Y-98908198D01*
X134278208Y-98911355D01*
X134278211Y-98911357D01*
X134356389Y-98966098D01*
X134461251Y-99039523D01*
X134466233Y-99041846D01*
X134466238Y-99041849D01*
X134500457Y-99057805D01*
X134553742Y-99104722D01*
X134573203Y-99172999D01*
X134552661Y-99240959D01*
X134500457Y-99286195D01*
X134466238Y-99302151D01*
X134466233Y-99302154D01*
X134461251Y-99304477D01*
X134435512Y-99322500D01*
X134278211Y-99432643D01*
X134278208Y-99432645D01*
X134273700Y-99435802D01*
X134111802Y-99597700D01*
X134108645Y-99602208D01*
X134108643Y-99602211D01*
X134078431Y-99645359D01*
X133980477Y-99785251D01*
X133978154Y-99790233D01*
X133978151Y-99790238D01*
X133902486Y-99952504D01*
X133883716Y-99992757D01*
X133882294Y-99998065D01*
X133882293Y-99998067D01*
X133832597Y-100183534D01*
X133824457Y-100213913D01*
X133804502Y-100442000D01*
X133824457Y-100670087D01*
X133825881Y-100675400D01*
X133825881Y-100675402D01*
X133842226Y-100736400D01*
X133883716Y-100891243D01*
X133886039Y-100896224D01*
X133886039Y-100896225D01*
X133978151Y-101093762D01*
X133978154Y-101093767D01*
X133980477Y-101098749D01*
X134047900Y-101195039D01*
X134106534Y-101278776D01*
X134111802Y-101286300D01*
X134273700Y-101448198D01*
X134278208Y-101451355D01*
X134278211Y-101451357D01*
X134356389Y-101506098D01*
X134461251Y-101579523D01*
X134466233Y-101581846D01*
X134466238Y-101581849D01*
X134500457Y-101597805D01*
X134553742Y-101644722D01*
X134573203Y-101712999D01*
X134552661Y-101780959D01*
X134500457Y-101826195D01*
X134466238Y-101842151D01*
X134466233Y-101842154D01*
X134461251Y-101844477D01*
X134431059Y-101865618D01*
X134278211Y-101972643D01*
X134278208Y-101972645D01*
X134273700Y-101975802D01*
X134111802Y-102137700D01*
X134108645Y-102142208D01*
X134108643Y-102142211D01*
X134053902Y-102220389D01*
X133980477Y-102325251D01*
X133978154Y-102330233D01*
X133978151Y-102330238D01*
X133905754Y-102485496D01*
X133883716Y-102532757D01*
X133882294Y-102538065D01*
X133882293Y-102538067D01*
X133841105Y-102691783D01*
X133824457Y-102753913D01*
X133804502Y-102982000D01*
X133824457Y-103210087D01*
X133825881Y-103215400D01*
X133825881Y-103215402D01*
X133882207Y-103425610D01*
X133883716Y-103431243D01*
X133886039Y-103436224D01*
X133886039Y-103436225D01*
X133978151Y-103633762D01*
X133978154Y-103633767D01*
X133980477Y-103638749D01*
X134072985Y-103770864D01*
X134095673Y-103838137D01*
X134078388Y-103906997D01*
X134058867Y-103932229D01*
X131685505Y-106305590D01*
X129314500Y-108676595D01*
X129252188Y-108710621D01*
X129225405Y-108713500D01*
X128835199Y-108713500D01*
X128767078Y-108693498D01*
X128720585Y-108639842D01*
X128710481Y-108569568D01*
X128721005Y-108534248D01*
X128729490Y-108516053D01*
X128733236Y-108505761D01*
X128779394Y-108333497D01*
X128779058Y-108319401D01*
X128771116Y-108316000D01*
X127370000Y-108316000D01*
X127301879Y-108295998D01*
X127255386Y-108242342D01*
X127244000Y-108190000D01*
X127244000Y-107934000D01*
X127264002Y-107865879D01*
X127317658Y-107819386D01*
X127370000Y-107808000D01*
X128765967Y-107808000D01*
X128779498Y-107804027D01*
X128780727Y-107795478D01*
X128733236Y-107618239D01*
X128729490Y-107607947D01*
X128637414Y-107410489D01*
X128631931Y-107400993D01*
X128506972Y-107222533D01*
X128499916Y-107214125D01*
X128345875Y-107060084D01*
X128337467Y-107053028D01*
X128159007Y-106928069D01*
X128149511Y-106922586D01*
X128114951Y-106906471D01*
X128061666Y-106859554D01*
X128042205Y-106791277D01*
X128062747Y-106723317D01*
X128114951Y-106678081D01*
X128149762Y-106661849D01*
X128149767Y-106661846D01*
X128154749Y-106659523D01*
X128323289Y-106541510D01*
X128337789Y-106531357D01*
X128337792Y-106531355D01*
X128342300Y-106528198D01*
X128504198Y-106366300D01*
X128553620Y-106295719D01*
X128594116Y-106237884D01*
X128635523Y-106178749D01*
X128637846Y-106173767D01*
X128637849Y-106173762D01*
X128729961Y-105976225D01*
X128729961Y-105976224D01*
X128732284Y-105971243D01*
X128791543Y-105750087D01*
X128811498Y-105522000D01*
X128791543Y-105293913D01*
X128776294Y-105237002D01*
X128733707Y-105078067D01*
X128733706Y-105078065D01*
X128732284Y-105072757D01*
X128697483Y-104998125D01*
X128637849Y-104870238D01*
X128637846Y-104870233D01*
X128635523Y-104865251D01*
X128539956Y-104728767D01*
X128507357Y-104682211D01*
X128507355Y-104682208D01*
X128504198Y-104677700D01*
X128342300Y-104515802D01*
X128337792Y-104512645D01*
X128337789Y-104512643D01*
X128259611Y-104457902D01*
X128154749Y-104384477D01*
X128149767Y-104382154D01*
X128149762Y-104382151D01*
X128115543Y-104366195D01*
X128062258Y-104319278D01*
X128042797Y-104251001D01*
X128063339Y-104183041D01*
X128115543Y-104137805D01*
X128149762Y-104121849D01*
X128149767Y-104121846D01*
X128154749Y-104119523D01*
X128323590Y-104001299D01*
X128337789Y-103991357D01*
X128337792Y-103991355D01*
X128342300Y-103988198D01*
X128504198Y-103826300D01*
X128635523Y-103638749D01*
X128637846Y-103633767D01*
X128637849Y-103633762D01*
X128729961Y-103436225D01*
X128729961Y-103436224D01*
X128732284Y-103431243D01*
X128733794Y-103425610D01*
X128790119Y-103215402D01*
X128790119Y-103215400D01*
X128791543Y-103210087D01*
X128811498Y-102982000D01*
X128791543Y-102753913D01*
X128774895Y-102691783D01*
X128733707Y-102538067D01*
X128733706Y-102538065D01*
X128732284Y-102532757D01*
X128710246Y-102485496D01*
X128637849Y-102330238D01*
X128637846Y-102330233D01*
X128635523Y-102325251D01*
X128562098Y-102220389D01*
X128507357Y-102142211D01*
X128507355Y-102142208D01*
X128504198Y-102137700D01*
X128342300Y-101975802D01*
X128337792Y-101972645D01*
X128337789Y-101972643D01*
X128184941Y-101865618D01*
X128154749Y-101844477D01*
X128149767Y-101842154D01*
X128149762Y-101842151D01*
X128115543Y-101826195D01*
X128062258Y-101779278D01*
X128042797Y-101711001D01*
X128063339Y-101643041D01*
X128115543Y-101597805D01*
X128149762Y-101581849D01*
X128149767Y-101581846D01*
X128154749Y-101579523D01*
X128259611Y-101506098D01*
X128337789Y-101451357D01*
X128337792Y-101451355D01*
X128342300Y-101448198D01*
X128504198Y-101286300D01*
X128509467Y-101278776D01*
X128568100Y-101195039D01*
X128635523Y-101098749D01*
X128637846Y-101093767D01*
X128637849Y-101093762D01*
X128729961Y-100896225D01*
X128729961Y-100896224D01*
X128732284Y-100891243D01*
X128773775Y-100736400D01*
X128790119Y-100675402D01*
X128790119Y-100675400D01*
X128791543Y-100670087D01*
X128811498Y-100442000D01*
X128791543Y-100213913D01*
X128783403Y-100183534D01*
X128733707Y-99998067D01*
X128733706Y-99998065D01*
X128732284Y-99992757D01*
X128713514Y-99952504D01*
X128637849Y-99790238D01*
X128637846Y-99790233D01*
X128635523Y-99785251D01*
X128537569Y-99645359D01*
X128507357Y-99602211D01*
X128507355Y-99602208D01*
X128504198Y-99597700D01*
X128342300Y-99435802D01*
X128337792Y-99432645D01*
X128337789Y-99432643D01*
X128180488Y-99322500D01*
X128154749Y-99304477D01*
X128149767Y-99302154D01*
X128149762Y-99302151D01*
X128115543Y-99286195D01*
X128062258Y-99239278D01*
X128042797Y-99171001D01*
X128063339Y-99103041D01*
X128115543Y-99057805D01*
X128149762Y-99041849D01*
X128149767Y-99041846D01*
X128154749Y-99039523D01*
X128259611Y-98966098D01*
X128337789Y-98911357D01*
X128337792Y-98911355D01*
X128342300Y-98908198D01*
X128504198Y-98746300D01*
X128635523Y-98558749D01*
X128637846Y-98553767D01*
X128637849Y-98553762D01*
X128729961Y-98356225D01*
X128729961Y-98356224D01*
X128732284Y-98351243D01*
X128735355Y-98339784D01*
X128790119Y-98135402D01*
X128790119Y-98135400D01*
X128791543Y-98130087D01*
X128811498Y-97902000D01*
X128791543Y-97673913D01*
X128790119Y-97668598D01*
X128790118Y-97668591D01*
X128774541Y-97610459D01*
X128776230Y-97539483D01*
X128807152Y-97488752D01*
X129043247Y-97252657D01*
X129051537Y-97245113D01*
X129058018Y-97241000D01*
X129104659Y-97191332D01*
X129107413Y-97188491D01*
X129127134Y-97168770D01*
X129129612Y-97165575D01*
X129137318Y-97156553D01*
X129162158Y-97130101D01*
X129167586Y-97124321D01*
X129177346Y-97106568D01*
X129188199Y-97090045D01*
X129195753Y-97080306D01*
X129200613Y-97074041D01*
X129218176Y-97033457D01*
X129223383Y-97022827D01*
X129244695Y-96984060D01*
X129246666Y-96976383D01*
X129246668Y-96976378D01*
X129249732Y-96964442D01*
X129256138Y-96945730D01*
X129261033Y-96934419D01*
X129264181Y-96927145D01*
X129265421Y-96919317D01*
X129265423Y-96919310D01*
X129271099Y-96883476D01*
X129273505Y-96871856D01*
X129282528Y-96836711D01*
X129282528Y-96836710D01*
X129284500Y-96829030D01*
X129284500Y-96808776D01*
X129286051Y-96789065D01*
X129287980Y-96776886D01*
X129289220Y-96769057D01*
X129285059Y-96725038D01*
X129284500Y-96713181D01*
X129284500Y-95003467D01*
X129285027Y-94992284D01*
X129286702Y-94984791D01*
X129284562Y-94916714D01*
X129284500Y-94912755D01*
X129284500Y-94884844D01*
X129283995Y-94880844D01*
X129283062Y-94869001D01*
X129281922Y-94832729D01*
X129281673Y-94824810D01*
X129276022Y-94805358D01*
X129272014Y-94786006D01*
X129270467Y-94773763D01*
X129269474Y-94765903D01*
X129266556Y-94758532D01*
X129253200Y-94724797D01*
X129249355Y-94713570D01*
X129245628Y-94700743D01*
X129237018Y-94671107D01*
X129232984Y-94664285D01*
X129232981Y-94664279D01*
X129226706Y-94653668D01*
X129218010Y-94635918D01*
X129213472Y-94624456D01*
X129213469Y-94624451D01*
X129210552Y-94617083D01*
X129184573Y-94581325D01*
X129178057Y-94571407D01*
X129159575Y-94540157D01*
X129155542Y-94533337D01*
X129141218Y-94519013D01*
X129128376Y-94503978D01*
X129116472Y-94487593D01*
X129082406Y-94459411D01*
X129073627Y-94451422D01*
X128485093Y-93862888D01*
X128451067Y-93800576D01*
X128456132Y-93729761D01*
X128485093Y-93684698D01*
X128499916Y-93669875D01*
X128506972Y-93661467D01*
X128631931Y-93483007D01*
X128637414Y-93473511D01*
X128729490Y-93276053D01*
X128733236Y-93265761D01*
X128779394Y-93093497D01*
X128779058Y-93079401D01*
X128771116Y-93076000D01*
X127370000Y-93076000D01*
X127301879Y-93055998D01*
X127255386Y-93002342D01*
X127244000Y-92950000D01*
X127244000Y-92694000D01*
X127264002Y-92625879D01*
X127317658Y-92579386D01*
X127370000Y-92568000D01*
X128765967Y-92568000D01*
X128779498Y-92564027D01*
X128780727Y-92555478D01*
X128733236Y-92378239D01*
X128729490Y-92367947D01*
X128637414Y-92170489D01*
X128631931Y-92160993D01*
X128503813Y-91978022D01*
X128505709Y-91976694D01*
X128481187Y-91920743D01*
X128492368Y-91850632D01*
X128517070Y-91815631D01*
X131324247Y-89008453D01*
X131332537Y-89000909D01*
X131339018Y-88996796D01*
X131345760Y-88989617D01*
X131385658Y-88947129D01*
X131388413Y-88944287D01*
X131408134Y-88924566D01*
X131410612Y-88921371D01*
X131418318Y-88912349D01*
X131443158Y-88885897D01*
X131448586Y-88880117D01*
X131458346Y-88862364D01*
X131469199Y-88845841D01*
X131476753Y-88836102D01*
X131481613Y-88829837D01*
X131499176Y-88789253D01*
X131504383Y-88778623D01*
X131525695Y-88739856D01*
X131527666Y-88732179D01*
X131527668Y-88732174D01*
X131530732Y-88720238D01*
X131537138Y-88701526D01*
X131538813Y-88697657D01*
X131545181Y-88682941D01*
X131546758Y-88672988D01*
X131552097Y-88639277D01*
X131554504Y-88627656D01*
X131563528Y-88592507D01*
X131563528Y-88592506D01*
X131565500Y-88584826D01*
X131565500Y-88564565D01*
X131567051Y-88544854D01*
X131568979Y-88532681D01*
X131570219Y-88524853D01*
X131566059Y-88480842D01*
X131565500Y-88468985D01*
X131565500Y-82560427D01*
X131585502Y-82492306D01*
X131626618Y-82452550D01*
X131629994Y-82450896D01*
X131811860Y-82321173D01*
X131970096Y-82163489D01*
X132100453Y-81982077D01*
X132101776Y-81983028D01*
X132148645Y-81939857D01*
X132218580Y-81927625D01*
X132284026Y-81955144D01*
X132311875Y-81986994D01*
X132371987Y-82085088D01*
X132518250Y-82253938D01*
X132690126Y-82396632D01*
X132883000Y-82509338D01*
X133091692Y-82589030D01*
X133096760Y-82590061D01*
X133096763Y-82590062D01*
X133204017Y-82611883D01*
X133310597Y-82633567D01*
X133315772Y-82633757D01*
X133315774Y-82633757D01*
X133528673Y-82641564D01*
X133528677Y-82641564D01*
X133533837Y-82641753D01*
X133538957Y-82641097D01*
X133538959Y-82641097D01*
X133750288Y-82614025D01*
X133750289Y-82614025D01*
X133755416Y-82613368D01*
X133794434Y-82601662D01*
X133964429Y-82550661D01*
X133964434Y-82550659D01*
X133969384Y-82549174D01*
X134169994Y-82450896D01*
X134351860Y-82321173D01*
X134419331Y-82253938D01*
X134460479Y-82212933D01*
X134522851Y-82179017D01*
X134593658Y-82184205D01*
X134650419Y-82226851D01*
X134667401Y-82257954D01*
X134708676Y-82368054D01*
X134717214Y-82383649D01*
X134793715Y-82485724D01*
X134806276Y-82498285D01*
X134908351Y-82574786D01*
X134923946Y-82583324D01*
X135044394Y-82628478D01*
X135059649Y-82632105D01*
X135110514Y-82637631D01*
X135117328Y-82638000D01*
X135739885Y-82638000D01*
X135755124Y-82633525D01*
X135756329Y-82632135D01*
X135758000Y-82624452D01*
X135758000Y-82619884D01*
X136266000Y-82619884D01*
X136270475Y-82635123D01*
X136271865Y-82636328D01*
X136279548Y-82637999D01*
X136906669Y-82637999D01*
X136913490Y-82637629D01*
X136964352Y-82632105D01*
X136979604Y-82628479D01*
X137100054Y-82583324D01*
X137115649Y-82574786D01*
X137217724Y-82498285D01*
X137230285Y-82485724D01*
X137306786Y-82383649D01*
X137315324Y-82368054D01*
X137360478Y-82247606D01*
X137364105Y-82232351D01*
X137369631Y-82181486D01*
X137370000Y-82174672D01*
X137370000Y-81552115D01*
X137365525Y-81536876D01*
X137364135Y-81535671D01*
X137356452Y-81534000D01*
X136284115Y-81534000D01*
X136268876Y-81538475D01*
X136267671Y-81539865D01*
X136266000Y-81547548D01*
X136266000Y-82619884D01*
X135758000Y-82619884D01*
X135758000Y-81007885D01*
X136266000Y-81007885D01*
X136270475Y-81023124D01*
X136271865Y-81024329D01*
X136279548Y-81026000D01*
X137351884Y-81026000D01*
X137367123Y-81021525D01*
X137368328Y-81020135D01*
X137369999Y-81012452D01*
X137369999Y-80385331D01*
X137369629Y-80378510D01*
X137364105Y-80327648D01*
X137360479Y-80312396D01*
X137315324Y-80191946D01*
X137306786Y-80176351D01*
X137230285Y-80074276D01*
X137217724Y-80061715D01*
X137115649Y-79985214D01*
X137100054Y-79976676D01*
X136979606Y-79931522D01*
X136964351Y-79927895D01*
X136913486Y-79922369D01*
X136906672Y-79922000D01*
X136284115Y-79922000D01*
X136268876Y-79926475D01*
X136267671Y-79927865D01*
X136266000Y-79935548D01*
X136266000Y-81007885D01*
X135758000Y-81007885D01*
X135758000Y-79940116D01*
X135753525Y-79924877D01*
X135752135Y-79923672D01*
X135744452Y-79922001D01*
X135117331Y-79922001D01*
X135110510Y-79922371D01*
X135059648Y-79927895D01*
X135044396Y-79931521D01*
X134923946Y-79976676D01*
X134908351Y-79985214D01*
X134806276Y-80061715D01*
X134793715Y-80074276D01*
X134717214Y-80176351D01*
X134708676Y-80191946D01*
X134667297Y-80302322D01*
X134624655Y-80359087D01*
X134558093Y-80383786D01*
X134488744Y-80368578D01*
X134456121Y-80342891D01*
X134405151Y-80286876D01*
X134405145Y-80286870D01*
X134401670Y-80283051D01*
X134397619Y-80279852D01*
X134397615Y-80279848D01*
X134230414Y-80147800D01*
X134230410Y-80147798D01*
X134226359Y-80144598D01*
X134203859Y-80132177D01*
X134141468Y-80097736D01*
X134030789Y-80036638D01*
X134025920Y-80034914D01*
X134025916Y-80034912D01*
X133825087Y-79963795D01*
X133825083Y-79963794D01*
X133820212Y-79962069D01*
X133815119Y-79961162D01*
X133815116Y-79961161D01*
X133605373Y-79923800D01*
X133605367Y-79923799D01*
X133600284Y-79922894D01*
X133526452Y-79921992D01*
X133382081Y-79920228D01*
X133382079Y-79920228D01*
X133376911Y-79920165D01*
X133156091Y-79953955D01*
X132943756Y-80023357D01*
X132913443Y-80039137D01*
X132754686Y-80121781D01*
X132745607Y-80126507D01*
X132741474Y-80129610D01*
X132741471Y-80129612D01*
X132588857Y-80244198D01*
X132566965Y-80260635D01*
X132412629Y-80422138D01*
X132305201Y-80579621D01*
X132250293Y-80624621D01*
X132179768Y-80632792D01*
X132116021Y-80601538D01*
X132095324Y-80577054D01*
X132014822Y-80452617D01*
X132014820Y-80452614D01*
X132012014Y-80448277D01*
X131861670Y-80283051D01*
X131857619Y-80279852D01*
X131857615Y-80279848D01*
X131690414Y-80147800D01*
X131690410Y-80147798D01*
X131686359Y-80144598D01*
X131663859Y-80132177D01*
X131601468Y-80097736D01*
X131490789Y-80036638D01*
X131485920Y-80034914D01*
X131485916Y-80034912D01*
X131285087Y-79963795D01*
X131285083Y-79963794D01*
X131280212Y-79962069D01*
X131275119Y-79961162D01*
X131275116Y-79961161D01*
X131065373Y-79923800D01*
X131065367Y-79923799D01*
X131060284Y-79922894D01*
X130986452Y-79921992D01*
X130842081Y-79920228D01*
X130842079Y-79920228D01*
X130836911Y-79920165D01*
X130616091Y-79953955D01*
X130403756Y-80023357D01*
X130373443Y-80039137D01*
X130214686Y-80121781D01*
X130205607Y-80126507D01*
X130201474Y-80129610D01*
X130201471Y-80129612D01*
X130048857Y-80244198D01*
X130026965Y-80260635D01*
X129872629Y-80422138D01*
X129765201Y-80579621D01*
X129710293Y-80624621D01*
X129639768Y-80632792D01*
X129576021Y-80601538D01*
X129555324Y-80577054D01*
X129474822Y-80452617D01*
X129474820Y-80452614D01*
X129472014Y-80448277D01*
X129321670Y-80283051D01*
X129317619Y-80279852D01*
X129317615Y-80279848D01*
X129150414Y-80147800D01*
X129150410Y-80147798D01*
X129146359Y-80144598D01*
X129123859Y-80132177D01*
X129061468Y-80097736D01*
X128950789Y-80036638D01*
X128945920Y-80034914D01*
X128945916Y-80034912D01*
X128745087Y-79963795D01*
X128745083Y-79963794D01*
X128740212Y-79962069D01*
X128735119Y-79961162D01*
X128735116Y-79961161D01*
X128525373Y-79923800D01*
X128525367Y-79923799D01*
X128520284Y-79922894D01*
X128446452Y-79921992D01*
X128302081Y-79920228D01*
X128302079Y-79920228D01*
X128296911Y-79920165D01*
X128076091Y-79953955D01*
X127863756Y-80023357D01*
X127833443Y-80039137D01*
X127674686Y-80121781D01*
X127665607Y-80126507D01*
X127661474Y-80129610D01*
X127661471Y-80129612D01*
X127508857Y-80244198D01*
X127486965Y-80260635D01*
X127332629Y-80422138D01*
X127225201Y-80579621D01*
X127170293Y-80624621D01*
X127099768Y-80632792D01*
X127036021Y-80601538D01*
X127015324Y-80577054D01*
X126934822Y-80452617D01*
X126934820Y-80452614D01*
X126932014Y-80448277D01*
X126781670Y-80283051D01*
X126777619Y-80279852D01*
X126777615Y-80279848D01*
X126610414Y-80147800D01*
X126610410Y-80147798D01*
X126606359Y-80144598D01*
X126583859Y-80132177D01*
X126521468Y-80097736D01*
X126410789Y-80036638D01*
X126405920Y-80034914D01*
X126405916Y-80034912D01*
X126205087Y-79963795D01*
X126205083Y-79963794D01*
X126200212Y-79962069D01*
X126195119Y-79961162D01*
X126195116Y-79961161D01*
X125985373Y-79923800D01*
X125985367Y-79923799D01*
X125980284Y-79922894D01*
X125906452Y-79921992D01*
X125762081Y-79920228D01*
X125762079Y-79920228D01*
X125756911Y-79920165D01*
X125536091Y-79953955D01*
X125323756Y-80023357D01*
X125293443Y-80039137D01*
X125134686Y-80121781D01*
X125125607Y-80126507D01*
X125121474Y-80129610D01*
X125121471Y-80129612D01*
X124968857Y-80244198D01*
X124946965Y-80260635D01*
X124792629Y-80422138D01*
X124666743Y-80606680D01*
X124572688Y-80809305D01*
X124512989Y-81024570D01*
X124489251Y-81246695D01*
X124502110Y-81469715D01*
X124503247Y-81474761D01*
X124503248Y-81474767D01*
X124535453Y-81617668D01*
X124530917Y-81688520D01*
X124501631Y-81734464D01*
X123618227Y-82617868D01*
X123609941Y-82625408D01*
X123603462Y-82629520D01*
X123598037Y-82635297D01*
X123556837Y-82679171D01*
X123554082Y-82682013D01*
X123534345Y-82701750D01*
X123531865Y-82704947D01*
X123524162Y-82713967D01*
X123493894Y-82746199D01*
X123490075Y-82753145D01*
X123490073Y-82753148D01*
X123484132Y-82763954D01*
X123473281Y-82780473D01*
X123460866Y-82796479D01*
X123457721Y-82803748D01*
X123457718Y-82803752D01*
X123443306Y-82837057D01*
X123438089Y-82847707D01*
X123416785Y-82886460D01*
X123414814Y-82894135D01*
X123414814Y-82894136D01*
X123411747Y-82906082D01*
X123405343Y-82924786D01*
X123397299Y-82943375D01*
X123396060Y-82951198D01*
X123396057Y-82951208D01*
X123390381Y-82987044D01*
X123387975Y-82998664D01*
X123379670Y-83031011D01*
X123376980Y-83041490D01*
X123376980Y-83061744D01*
X123375429Y-83081454D01*
X123372260Y-83101463D01*
X121149406Y-83101463D01*
X121148397Y-80190182D01*
X121150142Y-80169239D01*
X121153455Y-80149552D01*
X121153608Y-80137000D01*
X121152919Y-80132185D01*
X121152918Y-80132177D01*
X121151429Y-80121781D01*
X121150308Y-80097736D01*
X121150422Y-80095426D01*
X121164585Y-79807125D01*
X121165796Y-79794824D01*
X121213350Y-79474247D01*
X121215760Y-79462129D01*
X121216879Y-79457665D01*
X121294504Y-79147765D01*
X121298093Y-79135932D01*
X121407273Y-78830794D01*
X121412005Y-78819370D01*
X121550566Y-78526405D01*
X121556395Y-78515500D01*
X121723005Y-78237527D01*
X121729875Y-78227246D01*
X121922925Y-77966947D01*
X121930769Y-77957389D01*
X122148401Y-77717268D01*
X122157144Y-77708525D01*
X122397275Y-77490881D01*
X122406834Y-77483036D01*
X122667137Y-77289981D01*
X122677418Y-77283111D01*
X122955385Y-77116503D01*
X122966290Y-77110674D01*
X123259259Y-76972109D01*
X123270682Y-76967378D01*
X123575807Y-76858201D01*
X123587640Y-76854611D01*
X123684499Y-76830348D01*
X123902020Y-76775861D01*
X123914134Y-76773452D01*
X124234708Y-76725898D01*
X124247009Y-76724686D01*
X124533819Y-76710595D01*
X124559375Y-76711943D01*
X124570606Y-76713691D01*
X124602244Y-76709554D01*
X124618548Y-76708490D01*
X167600798Y-76698390D01*
X167620205Y-76699890D01*
G37*
%TD.AperFunction*%
%TD*%
M02*
