%TF.GenerationSoftware,KiCad,Pcbnew,(6.0.4)*%
%TF.CreationDate,2022-05-25T21:12:10+01:00*%
%TF.ProjectId,7SegmentDB,37536567-6d65-46e7-9444-422e6b696361,V1.0*%
%TF.SameCoordinates,Original*%
%TF.FileFunction,Soldermask,Bot*%
%TF.FilePolarity,Negative*%
%FSLAX46Y46*%
G04 Gerber Fmt 4.6, Leading zero omitted, Abs format (unit mm)*
G04 Created by KiCad (PCBNEW (6.0.4)) date 2022-05-25 21:12:10*
%MOMM*%
%LPD*%
G01*
G04 APERTURE LIST*
%ADD10R,1.524000X2.524000*%
%ADD11O,1.524000X2.524000*%
%ADD12C,1.600000*%
%ADD13O,1.600000X1.600000*%
%ADD14R,1.700000X1.700000*%
%ADD15O,1.700000X1.700000*%
%ADD16R,1.600000X1.600000*%
G04 APERTURE END LIST*
D10*
%TO.C,U2*%
X157988000Y-101219000D03*
D11*
X160528000Y-101219000D03*
X163068000Y-101219000D03*
X165608000Y-101219000D03*
X168148000Y-101219000D03*
X168148000Y-85979000D03*
X165608000Y-85979000D03*
X163068000Y-85979000D03*
X160528000Y-85979000D03*
X157988000Y-85979000D03*
%TD*%
D12*
%TO.C,R3*%
X141782800Y-88036400D03*
D13*
X151942800Y-88036400D03*
%TD*%
D12*
%TO.C,R1*%
X141884400Y-79933800D03*
D13*
X152044400Y-79933800D03*
%TD*%
D12*
%TO.C,R6*%
X141884400Y-105003600D03*
D13*
X152044400Y-105003600D03*
%TD*%
D12*
%TO.C,R5*%
X141884400Y-96520000D03*
D13*
X152044400Y-96520000D03*
%TD*%
D12*
%TO.C,R7*%
X141935200Y-109220000D03*
D13*
X152095200Y-109220000D03*
%TD*%
D14*
%TO.C,J1*%
X136012000Y-81280000D03*
D15*
X133472000Y-81280000D03*
X130932000Y-81280000D03*
X128392000Y-81280000D03*
X125852000Y-81280000D03*
%TD*%
D12*
%TO.C,R8*%
X141935200Y-100736400D03*
D13*
X152095200Y-100736400D03*
%TD*%
D12*
%TO.C,R4*%
X141833600Y-92354400D03*
D13*
X151993600Y-92354400D03*
%TD*%
D16*
%TO.C,U1*%
X135118000Y-108062000D03*
D13*
X135118000Y-105522000D03*
X135118000Y-102982000D03*
X135118000Y-100442000D03*
X135118000Y-97902000D03*
X135118000Y-95362000D03*
X135118000Y-92822000D03*
X135118000Y-90282000D03*
X127498000Y-90282000D03*
X127498000Y-92822000D03*
X127498000Y-95362000D03*
X127498000Y-97902000D03*
X127498000Y-100442000D03*
X127498000Y-102982000D03*
X127498000Y-105522000D03*
X127498000Y-108062000D03*
%TD*%
D12*
%TO.C,R2*%
X141833600Y-83870800D03*
D13*
X151993600Y-83870800D03*
%TD*%
M02*
